999
dxfrw 0.6.3
  0
SECTION
  2
HEADER
  9
$ACADVER
  1
AC1021
  9
$DWGCODEPAGE
  3
ANSI_936
  9
$INSBASE
 10
0
 20
0
 30
0
  9
$EXTMIN
 10
-483.7602804198388
 20
-86.90299999999998
 30
0
  9
$EXTMAX
 10
17.04335350277099
 20
1171.692978731836
 30
0
  9
$LIMMIN
 10
0
 20
0
  9
$LIMMAX
 10
420
 20
297
  9
$ORTHOMODE
 70
    0
  9
$REGENMODE
 70
    1
  9
$FILLMODE
 70
    1
  9
$QTEXTMODE
 70
    0
  9
$MIRRTEXT
 70
    0
  9
$LTSCALE
 40
1
  9
$ATTMODE
 70
    1
  9
$TEXTSIZE
 40
2.5
  9
$TRACEWID
 40
1
  9
$TEXTSTYLE
  7
Standard
  9
$CLAYER
  8
board
  9
$CELTYPE
  6
ByLayer
  9
$CECOLOR
 62
   85
  9
$CELTSCALE
 40
1
  9
$DISPSILH
 70
    0
  9
$DIMSCALE
 40
1
  9
$DIMASZ
 40
2.5
  9
$DIMEXO
 40
0.625
  9
$DIMDLI
 40
3.75
  9
$DIMRND
 40
0
  9
$DIMDLE
 40
0
  9
$DIMEXE
 40
1.25
  9
$DIMTP
 40
0
  9
$DIMTM
 40
0
  9
$DIMTXT
 40
2.5
  9
$DIMCEN
 40
2.5
  9
$DIMTSZ
 40
0
  9
$DIMTOL
 70
    0
  9
$DIMLIM
 70
    0
  9
$DIMTIH
 70
    0
  9
$DIMTOH
 70
    0
  9
$DIMSE1
 70
    0
  9
$DIMSE2
 70
    0
  9
$DIMTAD
 70
    1
  9
$DIMZIN
 70
    8
  9
$DIMBLK
  1

  9
$DIMASO
 70
    1
  9
$DIMSHO
 70
    1
  9
$DIMPOST
  1

  9
$DIMAPOST
  1

  9
$DIMALT
 70
    0
  9
$DIMALTD
 70
    3
  9
$DIMALTF
 40
0.03937007874016
  9
$DIMLFAC
 40
1
  9
$DIMTOFL
 70
    1
  9
$DIMTVP
 40
0
  9
$DIMTIX
 70
    0
  9
$DIMSOXD
 70
    0
  9
$DIMSAH
 70
    0
  9
$DIMBLK1
  1

  9
$DIMBLK2
  1

  9
$DIMSTYLE
  2
ISO-25
  9
$DIMCLRD
 70
    0
  9
$DIMCLRE
 70
    0
  9
$DIMCLRT
 70
    0
  9
$DIMTFAC
 40
1
  9
$DIMGAP
 40
0.625
  9
$DIMJUST
 70
    0
  9
$DIMSD1
 70
    0
  9
$DIMSD2
 70
    0
  9
$DIMTOLJ
 70
    0
  9
$DIMTZIN
 70
    8
  9
$DIMALTZ
 70
    0
  9
$DIMALTTZ
 70
    0
  9
$DIMUPT
 70
    0
  9
$DIMDEC
 70
    2
  9
$DIMTDEC
 70
    2
  9
$DIMALTU
 70
    2
  9
$DIMALTTD
 70
    3
  9
$DIMTXSTY
  7
Standard
  9
$DIMAUNIT
 70
    0
  9
$DIMADEC
 70
    0
  9
$DIMALTRND
 40
0
  9
$DIMAZIN
 70
    0
  9
$DIMDSEP
 70
   46
  9
$DIMATFIT
 70
    3
  9
$DIMFRAC
 70
    0
  9
$DIMLDRBLK
  1

  9
$DIMLUNIT
 70
    2
  9
$DIMLWD
 70
   -2
  9
$DIMLWE
 70
   -2
  9
$DIMTMOVE
 70
    0
  9
$DIMFXL
 40
1
  9
$DIMFXLON
 70
    0
  9
$DIMJOGANG
 40
1.570796326794896
  9
$DIMTFILL
 70
    0
  9
$DIMTFILLCLR
 70
    0
  9
$DIMARCSYM
 70
    0
  9
$DIMLTYPE
  6

  9
$DIMLTEX1
  6

  9
$DIMLTEX2
  6

  9
$LUNITS
 70
    2
  9
$LUPREC
 70
    4
  9
$SKETCHINC
 40
1
  9
$FILLETRAD
 40
10
  9
$AUNITS
 70
    0
  9
$AUPREC
 70
    0
  9
$MENU
  1
.
  9
$ELEVATION
 40
0
  9
$PELEVATION
 40
0
  9
$THICKNESS
 40
0
  9
$LIMCHECK
 70
    0
  9
$CHAMFERA
 40
0
  9
$CHAMFERB
 40
0
  9
$CHAMFERC
 40
0
  9
$CHAMFERD
 40
0
  9
$SKPOLY
 70
    0
  9
$USRTIMER
 70
    1
  9
$ANGBASE
 50
0
  9
$ANGDIR
 70
    0
  9
$PDMODE
 70
    0
  9
$PDSIZE
 40
0
  9
$PLINEWID
 40
0
  9
$SPLFRAME
 70
    0
  9
$SPLINETYPE
 70
    6
  9
$SPLINESEGS
 70
    8
  9
$HANDSEED
  5
20000
  9
$SURFTAB1
 70
    6
  9
$SURFTAB2
 70
    6
  9
$SURFTYPE
 70
    6
  9
$SURFU
 70
    6
  9
$SURFV
 70
    6
  9
$UCSBASE
  2

  9
$UCSNAME
  2

  9
$UCSORG
 10
0
 20
0
 30
0
  9
$UCSXDIR
 10
1
 20
0
 30
0
  9
$UCSYDIR
 10
0
 20
1
 30
0
  9
$UCSORTHOREF
  2

  9
$UCSORTHOVIEW
 70
    0
  9
$UCSORGTOP
 10
0
 20
0
 30
0
  9
$UCSORGBOTTOM
 10
0
 20
0
 30
0
  9
$UCSORGLEFT
 10
0
 20
0
 30
0
  9
$UCSORGRIGHT
 10
0
 20
0
 30
0
  9
$UCSORGFRONT
 10
0
 20
0
 30
0
  9
$UCSORGBACK
 10
0
 20
0
 30
0
  9
$PUCSBASE
  2

  9
$PUCSNAME
  2

  9
$PUCSORG
 10
0
 20
0
 30
0
  9
$PUCSXDIR
 10
1
 20
0
 30
0
  9
$PUCSYDIR
 10
0
 20
1
 30
0
  9
$PUCSORTHOREF
  2

  9
$PUCSORTHOVIEW
 70
    0
  9
$PUCSORGTOP
 10
0
 20
0
 30
0
  9
$PUCSORGBOTTOM
 10
0
 20
0
 30
0
  9
$PUCSORGLEFT
 10
0
 20
0
 30
0
  9
$PUCSORGRIGHT
 10
0
 20
0
 30
0
  9
$PUCSORGFRONT
 10
0
 20
0
 30
0
  9
$PUCSORGBACK
 10
0
 20
0
 30
0
  9
$USERI1
 70
    0
  9
$USERI2
 70
    0
  9
$USERI3
 70
    0
  9
$USERI4
 70
    0
  9
$USERI5
 70
    0
  9
$USERR1
 40
0
  9
$USERR2
 40
0
  9
$USERR3
 40
0
  9
$USERR4
 40
0
  9
$USERR5
 40
0
  9
$WORLDVIEW
 70
    1
  9
$SHADEDGE
 70
    3
  9
$SHADEDIF
 70
   70
  9
$TILEMODE
 70
    1
  9
$MAXACTVP
 70
   64
  9
$PINSBASE
 10
0
 20
0
 30
0
  9
$PLIMCHECK
 70
    0
  9
$PEXTMIN
 10
1e+20
 20
1e+20
 30
1e+20
  9
$PEXTMAX
 10
-1e+20
 20
-1e+20
 30
-1e+20
  9
$GRIDMODE
 70
    0
  9
$SNAPSTYLE
 70
    0
  9
$PLIMMIN
 10
0
 20
0
  9
$PLIMMAX
 10
420
 20
297
  9
$UNITMODE
 70
    0
  9
$VISRETAIN
 70
    1
  9
$PLINEGEN
 70
    0
  9
$PSLTSCALE
 70
    1
  9
$TREEDEPTH
 70
 3020
  9
$CMLSTYLE
  2
Standard
  9
$CMLJUST
 70
    0
  9
$CMLSCALE
 40
20
  9
$PROXYGRAPHICS
 70
    1
  9
$MEASUREMENT
 70
    1
  9
$CELWEIGHT
370
   -1
  9
$ENDCAPS
280
    0
  9
$JOINSTYLE
280
    0
  9
$LWDISPLAY
290
    0
  9
$INSUNITS
 70
    4
  9
$HYPERLINKBASE
  1

  9
$STYLESHEET
  1

  9
$XEDIT
290
    1
  9
$CEPSNTYPE
380
    0
  9
$PSTYLEMODE
290
    1
  9
$EXTNAMES
290
    1
  9
$PSVPSCALE
 40
0
  9
$OLESTARTUP
290
    0
  9
$SORTENTS
280
  127
  9
$INDEXCTL
280
    0
  9
$HIDETEXT
280
    1
  9
$XCLIPFRAME
290
    2
  9
$HALOGAP
280
    0
  9
$OBSCOLOR
 70
  257
  9
$OBSLTYPE
280
    0
  9
$INTERSECTIONDISPLAY
280
    0
  9
$INTERSECTIONCOLOR
 70
  257
  9
$DIMASSOC
280
    2
  9
$PROJECTNAME
  1

  9
$CAMERADISPLAY
290
    0
  9
$LENSLENGTH
 40
50
  9
$CAMERAHEIGHT
 40
0
  9
$STEPSPERSEC
 40
2
  9
$STEPSIZE
 40
6
  9
$3DDWFPREC
 40
2
  9
$PSOLWIDTH
 40
0.25
  9
$PSOLHEIGHT
 40
4
  9
$LOFTANG1
 40
1.570796326794896
  9
$LOFTANG2
 40
1.570796326794896
  9
$LOFTMAG1
 40
0
  9
$LOFTMAG2
 40
0
  9
$LOFTPARAM
 70
    7
  9
$LOFTNORMALS
280
    1
  9
$LATITUDE
 40
37.795
  9
$LONGITUDE
 40
-122.394
  9
$NORTHDIRECTION
 40
0
  9
$TIMEZONE
 70
-8000
  9
$LIGHTGLYPHDISPLAY
280
    1
  9
$TILEMODELIGHTSYNCH
280
    1
  9
$SOLIDHIST
280
    0
  9
$SHOWHIST
280
    1
  9
$DWFFRAME
280
    2
  9
$DGNFRAME
280
    0
  9
$REALWORLDSCALE
290
    1
  9
$INTERFERECOLOR
 62
    1
  9
$CSHADOW
280
    0
  9
$SHADOWPLANELOCATION
 40
0
  0
ENDSEC
  0
SECTION
  2
CLASSES
  0
ENDSEC
  0
SECTION
  2
TABLES
  0
TABLE
  2
VPORT
  5
8
330
0
100
AcDbSymbolTable
 70
    1
  0
VPORT
  5
31
330
2
100
AcDbSymbolTableRecord
100
AcDbViewportTableRecord
  2
*ACTIVE
 70
    0
 10
0
 20
0
 11
1
 21
1
 12
-181.2378259503816
 22
290.6767846878953
 13
0
 23
0
 14
10
 24
10
 15
10
 25
10
 16
0
 26
0
 36
1
 17
0
 27
0
 37
0
 40
42.29929617790535
 41
1.944306930693069
 42
50
 43
0
 44
0
 50
0
 51
0
 71
    0
 72
  100
 73
    1
 74
    3
 75
    0
 76
    0
 77
    0
 78
    0
281
    0
 65
    1
110
0
120
0
130
0
111
1
121
0
131
0
112
0
122
1
132
0
 79
    0
146
0
348
10020
 60
    7
 61
    5
292
1
282
    1
141
0
142
0
 63
  250
421
3358443
  0
ENDTAB
  0
TABLE
  2
LTYPE
  5
5
330
0
100
AcDbSymbolTable
 70
    4
  0
LTYPE
  5
14
330
5
100
AcDbSymbolTableRecord
100
AcDbLinetypeTableRecord
  2
ByBlock
 70
    0
  3

 72
   65
 73
    0
 40
0
  0
LTYPE
  5
15
330
5
100
AcDbSymbolTableRecord
100
AcDbLinetypeTableRecord
  2
ByLayer
 70
    0
  3

 72
   65
 73
    0
 40
0
  0
LTYPE
  5
16
330
5
100
AcDbSymbolTableRecord
100
AcDbLinetypeTableRecord
  2
Continuous
 70
    0
  3
Solid line
 72
   65
 73
    0
 40
0
  0
LTYPE
  5
32
330
5
100
AcDbSymbolTableRecord
100
AcDbLinetypeTableRecord
  2
DOT
 70
    0
  3
Dot . . . . . . . . . . . . . . . . . . . . . .
 72
   65
 73
    2
 40
6.35
 49
0
 74
    0
 49
-6.35
 74
    0
  0
LTYPE
  5
33
330
5
100
AcDbSymbolTableRecord
100
AcDbLinetypeTableRecord
  2
DOTTINY
 70
    0
  3
Dot (.15x) .....................................
 72
   65
 73
    2
 40
0.9525
 49
0
 74
    0
 49
-0.9525
 74
    0
  0
LTYPE
  5
34
330
5
100
AcDbSymbolTableRecord
100
AcDbLinetypeTableRecord
  2
DOT2
 70
    0
  3
Dot (.5x) .....................................
 72
   65
 73
    2
 40
3.175
 49
0
 74
    0
 49
-3.175
 74
    0
  0
LTYPE
  5
35
330
5
100
AcDbSymbolTableRecord
100
AcDbLinetypeTableRecord
  2
DOTX2
 70
    0
  3
Dot (2x) .  .  .  .  .  .  .  .  .  .  .  .  .
 72
   65
 73
    2
 40
12.7
 49
0
 74
    0
 49
-12.7
 74
    0
  0
LTYPE
  5
36
330
5
100
AcDbSymbolTableRecord
100
AcDbLinetypeTableRecord
  2
DASHED
 70
    0
  3
Dashed _ _ _ _ _ _ _ _ _ _ _ _ _ _ _ _ _
 72
   65
 73
    2
 40
19.05
 49
12.7
 74
    0
 49
-6.35
 74
    0
  0
LTYPE
  5
37
330
5
100
AcDbSymbolTableRecord
100
AcDbLinetypeTableRecord
  2
DASHEDTINY
 70
    0
  3
Dashed (.15x) _ _ _ _ _ _ _ _ _ _ _ _ _ _ _ _ _
 72
   65
 73
    2
 40
2.8575
 49
1.905
 74
    0
 49
-0.9525
 74
    0
  0
LTYPE
  5
38
330
5
100
AcDbSymbolTableRecord
100
AcDbLinetypeTableRecord
  2
DASHED2
 70
    0
  3
Dashed (.5x) _ _ _ _ _ _ _ _ _ _ _ _ _ _ _ _ _
 72
   65
 73
    2
 40
9.524999999999999
 49
6.35
 74
    0
 49
-3.175
 74
    0
  0
LTYPE
  5
39
330
5
100
AcDbSymbolTableRecord
100
AcDbLinetypeTableRecord
  2
DASHEDX2
 70
    0
  3
Dashed (2x) ____  ____  ____  ____  ____  ___
 72
   65
 73
    2
 40
38.09999999999999
 49
25.4
 74
    0
 49
-12.7
 74
    0
  0
LTYPE
  5
3A
330
5
100
AcDbSymbolTableRecord
100
AcDbLinetypeTableRecord
  2
DASHDOT
 70
    0
  3
Dash dot __ . __ . __ . __ . __ . __ . __ . __
 72
   65
 73
    4
 40
25.4
 49
12.7
 74
    0
 49
-6.35
 74
    0
 49
0
 74
    0
 49
-6.35
 74
    0
  0
LTYPE
  5
3B
330
5
100
AcDbSymbolTableRecord
100
AcDbLinetypeTableRecord
  2
DASHDOTTINY
 70
    0
  3
Dash dot (.15x) _._._._._._._._._._._._._._._.
 72
   65
 73
    4
 40
3.81
 49
1.905
 74
    0
 49
-0.9525
 74
    0
 49
0
 74
    0
 49
-0.9525
 74
    0
  0
LTYPE
  5
3C
330
5
100
AcDbSymbolTableRecord
100
AcDbLinetypeTableRecord
  2
DASHDOT2
 70
    0
  3
Dash dot (.5x) _._._._._._._._._._._._._._._.
 72
   65
 73
    4
 40
12.7
 49
6.35
 74
    0
 49
-3.175
 74
    0
 49
0
 74
    0
 49
-3.175
 74
    0
  0
LTYPE
  5
3D
330
5
100
AcDbSymbolTableRecord
100
AcDbLinetypeTableRecord
  2
DASHDOTX2
 70
    0
  3
Dash dot (2x) ____  .  ____  .  ____  .  ___
 72
   65
 73
    4
 40
50.8
 49
25.4
 74
    0
 49
-12.7
 74
    0
 49
0
 74
    0
 49
-12.7
 74
    0
  0
LTYPE
  5
3E
330
5
100
AcDbSymbolTableRecord
100
AcDbLinetypeTableRecord
  2
DIVIDE
 70
    0
  3
Divide ____ . . ____ . . ____ . . ____ . . ____
 72
   65
 73
    6
 40
31.75
 49
12.7
 74
    0
 49
-6.35
 74
    0
 49
0
 74
    0
 49
-6.35
 74
    0
 49
0
 74
    0
 49
-6.35
 74
    0
  0
LTYPE
  5
3F
330
5
100
AcDbSymbolTableRecord
100
AcDbLinetypeTableRecord
  2
DIVIDETINY
 70
    0
  3
Divide (.15x) __..__..__..__..__..__..__..__.._
 72
   65
 73
    6
 40
4.7625
 49
1.905
 74
    0
 49
-0.9525
 74
    0
 49
0
 74
    0
 49
-0.9525
 74
    0
 49
0
 74
    0
 49
-0.9525
 74
    0
  0
LTYPE
  5
40
330
5
100
AcDbSymbolTableRecord
100
AcDbLinetypeTableRecord
  2
DIVIDE2
 70
    0
  3
Divide (.5x) __..__..__..__..__..__..__..__.._
 72
   65
 73
    6
 40
15.875
 49
6.35
 74
    0
 49
-3.175
 74
    0
 49
0
 74
    0
 49
-3.175
 74
    0
 49
0
 74
    0
 49
-3.175
 74
    0
  0
LTYPE
  5
41
330
5
100
AcDbSymbolTableRecord
100
AcDbLinetypeTableRecord
  2
DIVIDEX2
 70
    0
  3
Divide (2x) ________  .  .  ________  .  .  _
 72
   65
 73
    6
 40
63.5
 49
25.4
 74
    0
 49
-12.7
 74
    0
 49
0
 74
    0
 49
-12.7
 74
    0
 49
0
 74
    0
 49
-12.7
 74
    0
  0
LTYPE
  5
42
330
5
100
AcDbSymbolTableRecord
100
AcDbLinetypeTableRecord
  2
BORDER
 70
    0
  3
Border __ __ . __ __ . __ __ . __ __ . __ __ .
 72
   65
 73
    6
 40
44.45
 49
12.7
 74
    0
 49
-6.35
 74
    0
 49
12.7
 74
    0
 49
-6.35
 74
    0
 49
0
 74
    0
 49
-6.35
 74
    0
  0
LTYPE
  5
43
330
5
100
AcDbSymbolTableRecord
100
AcDbLinetypeTableRecord
  2
BORDERTINY
 70
    0
  3
Border (.15x) __.__.__.__.__.__.__.__.__.__.__.
 72
   65
 73
    6
 40
6.6675
 49
1.905
 74
    0
 49
-0.9525
 74
    0
 49
1.905
 74
    0
 49
-0.9525
 74
    0
 49
0
 74
    0
 49
-0.9525
 74
    0
  0
LTYPE
  5
44
330
5
100
AcDbSymbolTableRecord
100
AcDbLinetypeTableRecord
  2
BORDER2
 70
    0
  3
Border (.5x) __.__.__.__.__.__.__.__.__.__.__.
 72
   65
 73
    6
 40
22.225
 49
6.35
 74
    0
 49
-3.175
 74
    0
 49
6.35
 74
    0
 49
-3.175
 74
    0
 49
0
 74
    0
 49
-3.175
 74
    0
  0
LTYPE
  5
45
330
5
100
AcDbSymbolTableRecord
100
AcDbLinetypeTableRecord
  2
BORDERX2
 70
    0
  3
Border (2x) ____  ____  .  ____  ____  .  ___
 72
   65
 73
    6
 40
88.89999999999999
 49
25.4
 74
    0
 49
-12.7
 74
    0
 49
25.4
 74
    0
 49
-12.7
 74
    0
 49
0
 74
    0
 49
-12.7
 74
    0
  0
LTYPE
  5
46
330
5
100
AcDbSymbolTableRecord
100
AcDbLinetypeTableRecord
  2
CENTER
 70
    0
  3
Center ____ _ ____ _ ____ _ ____ _ ____ _ ____
 72
   65
 73
    4
 40
50.8
 49
31.75
 74
    0
 49
-6.35
 74
    0
 49
6.35
 74
    0
 49
-6.35
 74
    0
  0
LTYPE
  5
47
330
5
100
AcDbSymbolTableRecord
100
AcDbLinetypeTableRecord
  2
CENTERTINY
 70
    0
  3
Center (.15x) ___ _ ___ _ ___ _ ___ _ ___ _ ___
 72
   65
 73
    4
 40
7.619999999999999
 49
4.7625
 74
    0
 49
-0.9525
 74
    0
 49
0.9525
 74
    0
 49
-0.9525
 74
    0
  0
LTYPE
  5
48
330
5
100
AcDbSymbolTableRecord
100
AcDbLinetypeTableRecord
  2
CENTER2
 70
    0
  3
Center (.5x) ___ _ ___ _ ___ _ ___ _ ___ _ ___
 72
   65
 73
    4
 40
28.575
 49
19.05
 74
    0
 49
-3.175
 74
    0
 49
3.175
 74
    0
 49
-3.175
 74
    0
  0
LTYPE
  5
49
330
5
100
AcDbSymbolTableRecord
100
AcDbLinetypeTableRecord
  2
CENTERX2
 70
    0
  3
Center (2x) ________  __  ________  __  _____
 72
   65
 73
    4
 40
101.6
 49
63.5
 74
    0
 49
-12.7
 74
    0
 49
12.7
 74
    0
 49
-12.7
 74
    0
  0
ENDTAB
  0
TABLE
  2
LAYER
  5
2
330
0
100
AcDbSymbolTable
 70
    1
  0
LAYER
  5
10
330
2
100
AcDbSymbolTableRecord
100
AcDbLayerTableRecord
  2
0
 70
    1
 62
    7
  6
CONTINUOUS
370
   -3
390
F
  0
LAYER
  5
4A
330
2
100
AcDbSymbolTableRecord
100
AcDbLayerTableRecord
  2
Defpoints
 70
    1
 62
    7
  6
CONTINUOUS
290
0
370
   -3
390
F
1001
LibreCad
1070
    1
  0
LAYER
  5
4B
330
2
100
AcDbSymbolTableRecord
100
AcDbLayerTableRecord
  2
appendix_container
 70
    0
 62
    1
  6
CONTINUOUS
370
    0
390
F
  0
LAYER
  5
4C
330
2
100
AcDbSymbolTableRecord
100
AcDbLayerTableRecord
  2
appendix_stopline
 70
    0
 62
    1
  6
CONTINUOUS
370
    0
390
F
  0
LAYER
  5
4D
330
2
100
AcDbSymbolTableRecord
100
AcDbLayerTableRecord
  2
associate
 70
    1
 62
    6
  6
CONTINUOUS
370
    0
390
F
  0
LAYER
  5
4E
330
2
100
AcDbSymbolTableRecord
100
AcDbLayerTableRecord
  2
board
 70
    0
 62
   40
420
15908613
  6
CONTINUOUS
370
    0
390
F
  0
LAYER
  5
4F
330
2
100
AcDbSymbolTableRecord
100
AcDbLayerTableRecord
  2
collusion
 70
    1
 62
    2
  6
CONTINUOUS
370
    0
390
F
  0
LAYER
  5
50
330
2
100
AcDbSymbolTableRecord
100
AcDbLayerTableRecord
  2
ref_line
 70
    0
 62
    3
  6
CONTINUOUS
370
    0
390
F
  0
LAYER
  5
51
330
2
100
AcDbSymbolTableRecord
100
AcDbLayerTableRecord
  2
车道线
 70
    0
 62
    7
  6
CONTINUOUS
370
   -3
390
F
  0
ENDTAB
  0
TABLE
  2
STYLE
  5
3
330
0
100
AcDbSymbolTable
 70
    3
  0
STYLE
  5
52
330
2
100
AcDbSymbolTableRecord
100
AcDbTextStyleTableRecord
  2
Standard
 70
    0
 40
0
 41
1
 50
0
 71
    0
 42
1
  3
txt
  4

  0
ENDTAB
  0
TABLE
  2
VIEW
  5
6
330
0
100
AcDbSymbolTable
 70
    0
  0
ENDTAB
  0
TABLE
  2
UCS
  5
7
330
0
100
AcDbSymbolTable
 70
    0
  0
ENDTAB
  0
TABLE
  2
APPID
  5
9
330
0
100
AcDbSymbolTable
 70
    1
  0
APPID
  5
12
330
9
100
AcDbSymbolTableRecord
100
AcDbRegAppTableRecord
  2
ACAD
 70
    0
  0
APPID
  5
53
330
9
100
AcDbSymbolTableRecord
100
AcDbRegAppTableRecord
  2
LibreCad
 70
    0
  0
ENDTAB
  0
TABLE
  2
DIMSTYLE
  5
A
330
0
100
AcDbSymbolTable
 70
    1
100
AcDbDimStyleTable
 71
    1
  0
DIMSTYLE
105
54
330
A
100
AcDbSymbolTableRecord
100
AcDbDimStyleTableRecord
  2
Standard
 70
    0
 40
1
 41
2.5
 42
0.625
 43
0.38
 44
1.25
 45
0
 46
0
 47
0
 48
0
 49
1
140
2.5
141
0.09
142
0
143
25.4
144
1
145
0
146
1
147
0.625
148
0
 71
    0
 72
    0
 73
    0
 74
    1
 75
    0
 76
    0
 77
    0
 78
    8
 79
    0
170
    0
171
    2
172
    0
173
    0
174
    0
175
    0
176
    0
177
    0
178
    0
179
    0
271
    2
272
    4
273
    2
274
    2
275
    0
276
    0
277
    2
278
   46
279
    0
280
    0
281
    0
282
    0
283
    1
284
    0
285
    0
286
    0
288
    0
289
    3
340
Standard
341

371
   -2
372
   -2
  0
ENDTAB
  0
TABLE
  2
BLOCK_RECORD
  5
1
330
0
100
AcDbSymbolTable
 70
    2
  0
BLOCK_RECORD
  5
1F
330
1
100
AcDbSymbolTableRecord
100
AcDbBlockTableRecord
  2
*Model_Space
 70
    0
280
    1
281
    0
  0
BLOCK_RECORD
  5
1E
330
1
100
AcDbSymbolTableRecord
100
AcDbBlockTableRecord
  2
*Paper_Space
 70
    0
280
    1
281
    0
  0
ENDTAB
  0
ENDSEC
  0
SECTION
  2
BLOCKS
  0
BLOCK
  5
20
330
1F
100
AcDbEntity
  8
0
100
AcDbBlockBegin
  2
*Model_Space
 70
    0
 10
0
 20
0
 30
0
  3
*Model_Space
  1

  0
ENDBLK
  5
21
330
1F
100
AcDbEntity
  8
0
100
AcDbBlockEnd
  0
BLOCK
  5
1C
330
1B
100
AcDbEntity
  8
0
100
AcDbBlockBegin
  2
*Paper_Space
 70
    0
 10
0
 20
0
 30
0
  3
*Paper_Space
  1

  0
ENDBLK
  5
1D
330
1F
100
AcDbEntity
  8
0
100
AcDbBlockEnd
  0
ENDSEC
  0
SECTION
  2
ENTITIES
  0
LINE
  5
55
100
AcDbEntity
  8
0
  6
ByLayer
 62
  256
370
   -1
100
AcDbLine
 10
0
 20
0
 11
-4.55984882837254
 21
52.20758580252542
  0
LINE
  5
56
100
AcDbEntity
  8
0
  6
ByLayer
 62
  256
370
   -1
100
AcDbLine
 10
4.084999999999999
 20
0.4210000000000001
 11
-0.4805914919643861
 21
52.56358547001631
  0
LINE
  5
57
100
AcDbEntity
  8
0
  6
ByLayer
 62
  256
370
   -1
100
AcDbLine
 10
7.052
 20
0.6740000000000002
 11
-3.467
 21
121.207
  0
LINE
  5
58
100
AcDbEntity
  8
0
  6
ByLayer
 62
  256
370
   -1
100
AcDbLine
 10
-11.158
 20
51.63
 11
-183.724
 21
36.524
  0
LINE
  5
59
100
AcDbEntity
  8
0
  6
ByLayer
 62
  256
370
   -1
100
AcDbLine
 10
-183.724
 20
36.524
 11
-194.6419719079056
 21
35.57780331373658
  0
LINE
  5
5A
100
AcDbEntity
  8
车道线
  6
ByLayer
 62
  256
370
   -1
100
AcDbLine
 10
-244.9751102423432
 20
31.20904826443395
 11
-423.5293545620928
 21
15.69047969206668
  0
LINE
  5
5B
100
AcDbEntity
  8
0
  6
ByLayer
 62
  256
370
   -1
100
AcDbLine
 10
-11.501
 20
55.613
 11
-184.194
 21
40.25
  0
LINE
  5
5C
100
AcDbEntity
  8
0
  6
ByLayer
 62
  256
370
   -1
100
AcDbLine
 10
-184.194
 20
40.25
 11
-194.9676008569385
 21
39.31888589566926
  0
LINE
  5
5D
100
AcDbEntity
  8
车道线
  6
ByLayer
 62
  256
370
   -1
100
AcDbLine
 10
-218.42
 20
37.292
 11
-399.504
 21
21.368
  0
LINE
  5
5E
100
AcDbEntity
  8
0
  6
ByLayer
 62
  256
370
   -1
100
AcDbLine
 10
-5.224443218499128
 20
59.81680048317848
 11
-184.255
 21
44.215
  0
LINE
  5
5F
100
AcDbEntity
  8
0
  6
ByLayer
 62
  256
370
   -1
100
AcDbLine
 10
-184.255
 20
44.215
 11
-195.3096511039595
 21
43.24862932012973
  0
LINE
  5
60
100
AcDbEntity
  8
车道线
  6
ByLayer
 62
  256
370
   -1
100
AcDbLine
 10
-218.676
 20
41.206
 11
-399.892
 21
25.412
  0
LINE
  5
61
100
AcDbEntity
  8
0
  6
ByLayer
 62
  256
370
   -1
100
AcDbLine
 10
-5.571536863588995
 20
63.79081846921073
 11
-184.517
 21
48.198
  0
LINE
  5
62
100
AcDbEntity
  8
0
  6
ByLayer
 62
  256
370
   -1
100
AcDbLine
 10
-184.517
 20
48.198
 11
-195.655081036238
 21
47.21720123845485
  0
LINE
  5
63
100
AcDbEntity
  8
车道线
  6
ByLayer
 62
  256
370
   -1
100
AcDbLine
 10
-219.051
 20
45.15699999999998
 11
-400.2169999999998
 21
29.398
  0
LINE
  5
64
100
AcDbEntity
  8
0
  6
ByLayer
 62
  256
370
   -1
100
AcDbLine
 10
-12.346
 20
66.947
 11
-184.7649999999999
 21
51.935
  0
LINE
  5
65
100
AcDbEntity
  8
0
  6
ByLayer
 62
  256
370
   -1
100
AcDbLine
 10
-184.7649999999999
 20
51.935
 11
-195.9814032692279
 21
50.96624881411207
  0
LINE
  5
66
100
AcDbEntity
  8
车道线
  6
ByLayer
 62
  256
370
   -1
100
AcDbLine
 10
-219.407
 20
48.94300000000001
 11
-411.0576308837083
 21
32.26824534908239
  0
LINE
  5
67
100
AcDbEntity
  8
车道线
  6
ByLayer
 62
  256
370
   -1
100
AcDbLine
 10
-200.63
 20
104.373
 11
-195.9814032692279
 21
50.96624881411207
  0
LINE
  5
68
100
AcDbEntity
  8
车道线
  6
ByLayer
 62
  256
370
   -1
100
AcDbLine
 10
-204.3723158846358
 20
104.0472637026115
 11
-199.7087851673123
 21
50.64431801799553
  0
LINE
  5
69
100
AcDbEntity
  8
0
  6
ByLayer
 62
  256
370
   -1
100
AcDbLine
 10
-197.615
 20
26.668
 11
-190.66
 21
-53.159
  0
LINE
  5
6A
100
AcDbEntity
  8
车道线
  6
ByLayer
 62
  256
370
   -1
100
AcDbLine
 10
-208.2846344050761
 20
103.7067301430892
 11
-203.6520527380086
 21
50.30374136042603
  0
LINE
  5
6B
100
AcDbEntity
  8
0
  6
ByLayer
 62
  256
370
   -1
100
AcDbLine
 10
-201.571
 20
26.314
 11
-194.625
 21
-53.461
  0
LINE
  5
6C
100
AcDbEntity
  8
车道线
  6
ByLayer
 62
  256
370
   -1
100
AcDbLine
 10
-212.2515278977641
 20
103.3614463032756
 11
-207.6192352226701
 21
49.9610991921301
  0
LINE
  5
6D
100
AcDbEntity
  8
车道线
  6
ByLayer
 62
  256
370
   -1
100
AcDbLine
 10
-205.54
 20
25.992
 11
-198.58
 21
-53.743
  0
LINE
  5
6E
100
AcDbEntity
  8
车道线
  6
ByLayer
 62
  256
370
   -1
100
AcDbLine
 10
-215.671
 20
99.093
 11
-211.341567098714
 21
49.63960456211093
  0
LINE
  5
6F
100
AcDbEntity
  8
0
  6
ByLayer
 62
  256
370
   -1
100
AcDbLine
 10
-411.0576308837083
 20
32.26824534908237
 11
-412.2259999999998
 21
46.332
  0
LINE
  5
70
100
AcDbEntity
  8
0
  6
ByLayer
 62
  256
370
   -1
100
AcDbLine
 10
-412.2259999999998
 20
46.332
 11
-446.9619999999999
 21
445.2269999999998
  0
LINE
  5
71
100
AcDbEntity
  8
0
  6
ByLayer
 62
  256
370
   -1
100
AcDbLine
 10
-415.623
 20
46.03499999999999
 11
-450.3759999999998
 21
444.93
  0
LINE
  5
72
100
AcDbEntity
  8
0
  6
ByLayer
 62
  256
370
   -1
100
AcDbLine
 10
-419.078
 20
45.718
 11
-453.833
 21
444.7269999999998
  0
LINE
  5
73
100
AcDbEntity
  8
0
  6
ByLayer
 62
  256
370
   -1
100
AcDbLine
 10
-422.5909999999998
 20
45.49199999999999
 11
-457.308
 21
444
  0
LINE
  5
74
100
AcDbEntity
  8
0
  6
ByLayer
 62
  256
370
   -1
100
AcDbLine
 10
-460.7569999999998
 20
444.1459999999998
 11
-423.5293545620928
 21
15.69047969206668
  0
LINE
  5
75
100
AcDbEntity
  8
0
  6
ByLayer
 62
  240
420
15540004
370
   -1
100
AcDbLine
 10
-181.664
 20
-29.049
 11
-7.943999999999999
 21
-13.936
  0
LINE
  5
76
100
AcDbEntity
  8
0
  6
ByLayer
 62
  240
420
15540004
370
   -1
100
AcDbLine
 10
-7.943999999999999
 20
-13.936
 11
-9.789
 21
5.83
  0
LINE
  5
77
100
AcDbEntity
  8
0
  6
ByLayer
 62
  240
420
15540004
370
   -1
100
AcDbLine
 10
-9.789
 20
5.83
 11
-183.3409999999999
 21
-9.333
  0
LINE
  5
78
100
AcDbEntity
  8
0
  6
ByLayer
 62
  240
420
15540004
370
   -1
100
AcDbLine
 10
-183.3409999999999
 20
-9.333
 11
-181.664
 21
-29.049
  0
LINE
  5
79
100
AcDbEntity
  8
0
  6
ByLayer
 62
  240
420
15540004
370
   -1
100
AcDbLine
 10
-184.726
 20
6.118999999999997
 11
-11.031
 21
20.984
  0
LINE
  5
7A
100
AcDbEntity
  8
0
  6
ByLayer
 62
  240
420
15540004
370
   -1
100
AcDbLine
 10
-11.031
 20
20.984
 11
-12.759
 21
45.48699999999999
  0
LINE
  5
7B
100
AcDbEntity
  8
0
  6
ByLayer
 62
  240
420
15540004
370
   -1
100
AcDbLine
 10
-12.759
 20
45.48699999999999
 11
-186.838
 21
30.436
  0
LINE
  5
7C
100
AcDbEntity
  8
0
  6
ByLayer
 62
  240
420
15540004
370
   -1
100
AcDbLine
 10
-186.838
 20
30.436
 11
-184.726
 21
6.118999999999997
  0
LINE
  5
7D
100
AcDbEntity
  8
0
  6
ByLayer
 62
  240
420
15540004
370
   -1
100
AcDbLine
 10
-189.656
 20
62.817
 11
-16.096
 21
77.92399999999996
  0
LINE
  5
7E
100
AcDbEntity
  8
0
  6
ByLayer
 62
  240
420
15540004
370
   -1
100
AcDbLine
 10
-16.096
 20
77.92399999999996
 11
-19.704
 21
119.088
  0
LINE
  5
7F
100
AcDbEntity
  8
0
  6
ByLayer
 62
  240
420
15540004
370
   -1
100
AcDbLine
 10
-19.704
 20
119.088
 11
-193.237
 21
103.951
  0
LINE
  5
80
100
AcDbEntity
  8
0
  6
ByLayer
 62
  240
420
15540004
370
   -1
100
AcDbLine
 10
-193.237
 20
103.951
 11
-189.656
 21
62.817
  0
LINE
  5
81
100
AcDbEntity
  8
0
  6
ByLayer
 62
  256
370
   -1
100
AcDbLine
 10
-328.771
 20
569.495
 11
-451.8228200422187
 21
551.6869649415
  0
LINE
  5
82
100
AcDbEntity
  8
0
  6
ByLayer
 62
  256
370
   -1
100
AcDbLine
 10
-329.261
 20
572.708
 11
-452.1615556448073
 21
554.9288288032778
  0
LINE
  5
83
100
AcDbEntity
  8
0
  6
ByLayer
 62
  256
370
   -1
100
AcDbLine
 10
-329.442
 20
574.2
 11
-452.3180478037549
 21
556.4265345976122
  0
LINE
  5
84
100
AcDbEntity
  8
0
  6
ByLayer
 62
  256
370
   -1
100
AcDbLine
 10
-329.909
 20
577.423
 11
-452.6568712064045
 21
559.6692387485185
  0
LINE
  5
85
100
AcDbEntity
  8
0
  6
ByLayer
 62
  256
370
   -1
100
AcDbLine
 10
-330.121
 20
578.899
 11
-452.810826252239
 21
561.1426631409222
  0
LINE
  5
86
100
AcDbEntity
  8
0
  6
ByLayer
 62
  256
370
   -1
100
AcDbLine
 10
-330.607
 20
582.123
 11
-453.1494761349227
 21
564.3837066216723
  0
LINE
  5
87
100
AcDbEntity
  8
0
  6
ByLayer
 62
  256
370
   -1
100
AcDbLine
 10
-330.83
 20
583.571
 11
-453.304041916213
 21
565.8629760483381
  0
LINE
  5
88
100
AcDbEntity
  8
0
  6
ByLayer
 62
  256
370
   -1
100
AcDbLine
 10
-331.305
 20
586.7919999999998
 11
-467.25
 21
567.148
  0
LINE
  5
89
100
AcDbEntity
  8
0
  6
ByLayer
 62
  256
370
   -1
100
AcDbLine
 10
-461.499
 20
487.436
 11
-464.538
 21
521.7140000000001
  0
LINE
  5
8A
100
AcDbEntity
  8
0
  6
ByLayer
 62
  256
370
   -1
100
AcDbLine
 10
-457.5719999999998
 20
487.7869999999998
 11
-460.563
 21
522.0369999999998
  0
LINE
  5
8B
100
AcDbEntity
  8
0
  6
ByLayer
 62
  256
370
   -1
100
AcDbLine
 10
-453.5849999999999
 20
488.1219999999998
 11
-456.603
 21
522.3480000000002
  0
LINE
  5
8C
100
AcDbEntity
  8
0
  6
ByLayer
 62
  256
370
   -1
100
AcDbLine
 10
-456.603
 20
522.3480000000002
 11
-449.8269999999997
 21
532.586
  0
LINE
  5
8D
100
AcDbEntity
  8
车道线
  6
ByLayer
 62
  256
370
   -1
100
AcDbLine
 10
-244.9751102423432
 20
31.20904826443395
 11
-218.075
 21
33.547
  0
LINE
  5
8E
100
AcDbEntity
  8
车道线
  6
ByLayer
 62
  256
370
   -1
100
AcDbLine
 10
-206.2840121413632
 20
34.56885586606393
 11
-205.54
 21
25.992
  0
LINE
  5
8F
100
AcDbEntity
  8
车道线
  6
ByLayer
 62
  256
370
   -1
100
AcDbLine
 10
-202.3169133025011
 20
34.91266108987961
 11
-201.571
 21
26.314
  0
LINE
  5
90
100
AcDbEntity
  8
车道线
  6
ByLayer
 62
  256
370
   -1
100
AcDbLine
 10
-198.3648927614734
 20
35.25515956592512
 11
-197.615
 21
26.668
  0
LINE
  5
91
100
AcDbEntity
  8
车道线
  6
ByLayer
 62
  256
370
   -1
100
AcDbLine
 10
-211.0111146614598
 20
45.86497739371345
 11
-219.051
 21
45.15699999999998
  0
LINE
  5
92
100
AcDbEntity
  8
车道线
  6
ByLayer
 62
  256
370
   -1
100
AcDbLine
 10
-210.664553021139
 20
41.90634118588628
 11
-218.676
 21
41.206
  0
LINE
  5
93
100
AcDbEntity
  8
车道线
  6
ByLayer
 62
  256
370
   -1
100
AcDbLine
 10
-210.3218592454204
 20
37.9918860618257
 11
-218.42
 21
37.292
  0
LINE
  5
94
100
AcDbEntity
  8
车道线
  6
ByLayer
 62
  256
370
   -1
100
AcDbLine
 10
-211.341567098714
 20
49.63960456211093
 11
-219.407
 21
48.94300000000001
  0
LINE
  5
95
100
AcDbEntity
  8
0
  6
ByLayer
 62
  256
370
   -1
100
AcDbLine
 10
-194.6419719079056
 20
35.57780331373658
 11
-193.895
 21
26.996
  0
LINE
  5
96
100
AcDbEntity
  8
车道线
  6
ByLayer
 62
  256
370
   -1
100
AcDbLine
 10
-209.9940393638966
 20
34.24732953374514
 11
-218.075
 21
33.547
  0
LINE
  5
97
100
AcDbEntity
  8
0
  6
ByLayer
 62
  256
370
   -1
100
AcDbLine
 10
-12.346
 20
66.947
 11
-5.896247173540348
 21
67.50856043957344
  0
LINE
  5
98
100
AcDbEntity
  8
0
  6
ByLayer
 62
  256
370
   -1
100
AcDbLine
 10
-11.158
 20
51.63
 11
-4.55984882837254
 21
52.20758580252542
  0
LINE
  5
99
100
AcDbEntity
  8
0
  6
ByLayer
 62
  256
370
   -1
100
AcDbLine
 10
-11.501
 20
55.613
 11
-4.908503558282326
 21
56.19947729111196
  0
LINE
  5
9A
100
AcDbEntity
  8
0
  6
ByLayer
 62
  256
370
   -1
100
AcDbLine
 10
-5.896247173540348
 20
67.50856043957344
 11
-10.536
 21
120.631
  0
LINE
  5
9B
100
AcDbEntity
  8
0
  6
ByLayer
 62
  256
370
   -1
100
AcDbLine
 10
0
 20
0
 11
7.052
 21
0.6740000000000002
  0
LINE
  5
9C
100
AcDbEntity
  8
0
  6
ByLayer
 62
  256
370
   -1
100
AcDbLine
 10
-10.536
 20
120.631
 11
-3.467
 21
121.207
  0
LINE
  5
9D
100
AcDbEntity
  8
0
  6
ByLayer
 62
  256
370
   -1
100
AcDbLine
 10
-6.467
 20
120.933
 11
-6.469392123005643
 21
120.9623574957064
  0
LINE
  5
9E
100
AcDbEntity
  8
车道线
  6
ByLayer
 62
  256
370
   -1
100
AcDbLine
 10
-200.63
 20
104.373
 11
-216.015998548066
 21
103.0337816247564
  0
LINE
  5
9F
100
AcDbEntity
  8
车道线
  6
ByLayer
 62
  256
370
   -1
100
AcDbLine
 10
-215.671
 20
99.093
 11
-216.015998548066
 21
103.0337816247564
  0
LINE
  5
A0
100
AcDbEntity
  8
0
  6
ByLayer
 62
  256
370
   -1
100
AcDbLine
 10
-467.25
 20
567.148
 11
-469.2550311378144
 21
566.8582737749
  0
LINE
  5
A1
100
AcDbEntity
  8
0
  6
ByLayer
 62
  256
370
   -1
100
AcDbLine
 10
-449.8269999999997
 20
532.586
 11
-451.8228200422186
 21
551.6869649415005
  0
LINE
  5
A2
100
AcDbEntity
  8
0
  6
ByLayer
 62
  256
370
   -1
100
AcDbLine
 10
-326.7751799577811
 20
550.3940350584998
 11
-449.8269999999997
 21
532.586
  0
LINE
  5
A3
100
AcDbEntity
  8
0
  6
ByLayer
 62
  256
370
   -1
100
AcDbLine
 10
-326.7751799577811
 20
550.3940350584998
 11
-330.586175431714
 21
586.8671084819335
  0
LINE
  5
A4
100
AcDbEntity
  8
0
  6
ByLayer
 62
  256
370
   -1
100
AcDbLine
 10
-331.305
 20
586.7919999999998
 11
-330.586175431714
 21
586.8671084819335
  0
LINE
  5
A5
100
AcDbEntity
  8
0
  6
ByLayer
 62
  256
370
   -1
100
AcDbLine
 10
-330.83
 20
583.571
 11
-330.2481246764171
 21
583.6317989405999
  0
LINE
  5
A6
100
AcDbEntity
  8
0
  6
ByLayer
 62
  256
370
   -1
100
AcDbLine
 10
-330.607
 20
582.123
 11
-330.0960518094679
 21
582.1763879121983
  0
LINE
  5
A7
100
AcDbEntity
  8
0
  6
ByLayer
 62
  256
370
   -1
100
AcDbLine
 10
-330.121
 20
578.899
 11
-329.7575721778005
 21
578.9369738161743
  0
LINE
  5
A8
100
AcDbEntity
  8
0
  6
ByLayer
 62
  256
370
   -1
100
AcDbLine
 10
-329.909
 20
577.423
 11
-329.6027240437468
 21
577.4550021367407
  0
LINE
  5
A9
100
AcDbEntity
  8
0
  6
ByLayer
 62
  256
370
   -1
100
AcDbLine
 10
-329.442
 20
574.2
 11
-329.2652864467468
 21
574.2255608174335
  0
LINE
  5
AA
100
AcDbEntity
  8
0
  6
ByLayer
 62
  256
370
   -1
100
AcDbLine
 10
-329.261
 20
572.708
 11
-329.1083858767929
 21
572.723946331861
  0
LINE
  5
AB
100
AcDbEntity
  8
0
  6
ByLayer
 62
  256
370
   -1
100
AcDbLine
 10
-413.6259940597132
 20
453.9516031622091
 11
-447.4656991356397
 21
451.0073458070488
  0
LINE
  5
AC
100
AcDbEntity
  8
0
  6
ByLayer
 62
  256
370
   -1
100
AcDbLine
 10
-415.4664676386174
 20
475.1796090397221
 11
-442.2114487568318
 21
472.8526352320532
  0
LINE
  5
AD
100
AcDbEntity
  8
0
  6
ByLayer
 62
  256
370
   -1
100
AcDbLine
 10
-461.499
 20
487.436
 11
-464.4877089988795
 21
487.1759643870227
  0
LINE
  5
AE
100
AcDbEntity
  8
0
  6
ByLayer
 62
  256
370
   -1
100
AcDbLine
 10
-415.4664676386174
 20
475.1796090397221
 11
-413.6259940597132
 21
453.9516031622091
  0
LINE
  5
AF
100
AcDbEntity
  8
0
  6
ByLayer
 62
  256
370
   -1
100
AcDbLine
 10
-453.5849999999999
 20
488.1219999999998
 11
-453.0395820832673
 21
481.9366210675643
  0
LINE
  5
B0
100
AcDbEntity
  8
0
  6
ByLayer
 62
  256
370
   -1
100
AcDbLine
 10
-447.4656991356397
 20
451.0073458070488
 11
-446.9619999999999
 21
445.2269999999998
  0
LINE
  5
B1
100
AcDbEntity
  8
0
  6
ByLayer
 62
  256
370
   -1
100
AcDbLine
 10
-464.4877089988795
 20
487.1759643870227
 11
-460.7569999999998
 21
444.1459999999998
  0
ARC
  5
B2
100
AcDbEntity
  8
0
  6
ByLayer
 62
  256
370
   -1
100
AcDbCircle
 10
-443.0782341334221
 20
482.8149985616517
 40
10
100
AcDbArc
 50
185.0392265454975
 51
274.9725542951399
  0
LINE
  5
B3
100
AcDbEntity
  8
0
  6
ByLayer
 62
  256
370
   -1
100
AcDbLine
 10
-1.820243357422388
 20
67.8634457439051
 11
-6.467
 21
120.933
  0
LINE
  5
B4
100
AcDbEntity
  8
0
  6
ByLayer
 62
  256
370
   -1
100
AcDbLine
 10
4.084999999999999
 20
0.4210000000000001
 11
4.087654762428203
 21
0.3906805601072902
  0
LINE
  5
B5
100
AcDbEntity
  8
0
  6
ByLayer
 62
   85
420
5814856
370
   -1
100
AcDbLine
 10
-3.832544223461441
 20
67.68724919303513
 11
-8.479300866039054
 21
120.75680344913
  0
LINE
  5
B6
100
AcDbEntity
  8
0
  6
ByLayer
 62
   85
420
5814856
370
   -1
100
AcDbLine
 10
2.052736735594304
 20
0.2435006362064633
 11
-2.51285475637008
 21
52.38608610622277
  0
LINE
  5
B7
100
AcDbEntity
  8
0
  6
ByLayer
 62
   85
420
5814856
370
   -1
100
AcDbLine
 10
-11.158
 20
53.37567681715874
 11
-183.724
 21
38.26967681715874
  0
LINE
  5
B8
100
AcDbEntity
  8
0
  6
ByLayer
 62
   85
420
5814856
370
   -1
100
AcDbLine
 10
-11.501
 20
57.28518739293761
 11
-184.194
 21
41.92218739293759
  0
LINE
  5
B9
100
AcDbEntity
  8
0
  6
ByLayer
 62
   85
420
5814856
370
   -1
100
AcDbLine
 10
-5.731171418783523
 20
65.64395548756308
 11
-184.6766345551945
 21
50.05113701835234
  0
LINE
  5
BA
100
AcDbEntity
  8
0
  6
ByLayer
 62
   85
420
5814856
370
   -1
100
AcDbLine
 10
-5.402481197840324
 20
61.84944484746779
 11
-184.4330379793412
 21
46.24764436428931
  0
LINE
  5
BB
100
AcDbEntity
  8
0
  6
ByLayer
 62
   85
420
5814856
370
   -1
100
AcDbLine
 10
-11.501
 20
57.28518739293761
 11
-4.90207068145915
 21
57.87223696136681
  0
LINE
  5
BC
100
AcDbEntity
  8
0
  6
ByLayer
 62
   85
420
5814856
370
   -1
100
AcDbLine
 10
-11.158
 20
53.37567681715874
 11
-4.409715220115828
 21
53.96640494370122
  0
LINE
  5
BD
100
AcDbEntity
  8
0
  6
ByLayer
 62
   85
420
5814856
370
   -1
100
AcDbLine
 10
-399.3551952674958
 20
19.58622279980131
 11
-183.724
 21
38.26967681715871
  0
LINE
  5
BE
100
AcDbEntity
  8
0
  6
ByLayer
 62
   85
420
5814856
370
   -1
100
AcDbLine
 10
-399.6803627183128
 20
23.39153718891803
 11
-184.194
 21
41.92218739293759
  0
LINE
  5
BF
100
AcDbEntity
  8
0
  6
ByLayer
 62
   85
420
5814856
370
   -1
100
AcDbLine
 10
-400.042382264904
 20
27.40605612919446
 11
-184.4330379793412
 21
46.24764436428931
  0
LINE
  5
C0
100
AcDbEntity
  8
0
  6
ByLayer
 62
   85
420
5814856
370
   -1
100
AcDbLine
 10
-400.3799919955857
 20
31.29054135447363
 11
-184.6766345551945
 21
50.05113701835234
  0
LINE
  5
C1
100
AcDbEntity
  8
0
  6
ByLayer
 62
   85
420
5814856
370
   -1
100
AcDbLine
 10
-216.015998548066
 20
103.0337816247564
 11
-212.2514323228909
 21
103.3603445310515
  0
LINE
  5
C2
100
AcDbEntity
  8
0
  6
ByLayer
 62
   85
420
5814856
370
   -1
100
AcDbLine
 10
-212.2514323228909
 20
103.3603445310515
 11
-208.322999274033
 21
103.7033908123782
  0
LINE
  5
C3
100
AcDbEntity
  8
0
  6
ByLayer
 62
   85
420
5814856
370
   -1
100
AcDbLine
 10
-208.322999274033
 20
103.7033908123782
 11
-204.3724137570721
 21
104.0483844578329
  0
LINE
  5
C4
100
AcDbEntity
  8
0
  6
ByLayer
 62
   85
420
5814856
370
   -1
100
AcDbLine
 10
-204.3724137570721
 20
104.0483844578329
 11
-200.63
 21
104.373
  0
LINE
  5
C5
100
AcDbEntity
  8
0
  6
ByLayer
 62
   85
420
5814856
370
   -1
100
AcDbLine
 10
-196.6029805263153
 20
-53.59648114212404
 11
-210.2797519567611
 21
103.5330723803096
  0
LINE
  5
C6
100
AcDbEntity
  8
0
  6
ByLayer
 62
   85
420
5814856
370
   -1
100
AcDbLine
 10
-413.9238087225312
 20
46.17556551590235
 11
-448.6492553228372
 21
444.7543075418882
  0
LINE
  5
C7
100
AcDbEntity
  8
0
  6
ByLayer
 62
   85
420
5814856
370
   -1
100
AcDbLine
 10
-452.0720596842066
 20
444.4561019490111
 11
-417.3498087225312
 21
45.86856551590233
  0
LINE
  5
C8
100
AcDbEntity
  8
0
  6
ByLayer
 62
   85
420
5814856
370
   -1
100
AcDbLine
 10
-420.8344999999998
 20
45.605
 11
-455.5521594859566
 21
444.1529395002758
  0
LINE
  5
C9
100
AcDbEntity
  8
0
  6
ByLayer
 62
   85
420
5814856
370
   -1
100
AcDbLine
 10
-459.0132830975135
 20
443.8518313535093
 11
-424.3870328396676
 21
45.33594628944935
  0
LINE
  5
CA
100
AcDbEntity
  8
0
  6
ByLayer
 62
   85
420
5814856
370
   -1
100
AcDbLine
 10
-462.5505
 20
521.8754999999998
 11
-459.5350957956289
 21
487.6068714477733
  0
LINE
  5
CB
100
AcDbEntity
  8
0
  6
ByLayer
 62
   85
420
5814856
370
   -1
100
AcDbLine
 10
-329.6027240437468
 20
577.4550021367407
 11
-329.2652864467468
 21
574.2255608174335
  0
LINE
  5
CC
100
AcDbEntity
  8
0
  6
ByLayer
 62
   85
420
5814856
370
   -1
100
AcDbLine
 10
-329.1083858767929
 20
572.723946331861
 11
-328.771
 21
569.495
  0
LINE
  5
CD
100
AcDbEntity
  8
0
  6
ByLayer
 62
   85
420
5814856
370
   -1
100
AcDbLine
 10
-328.9396929383964
 20
571.1094731659304
 11
-452.055974143585
 21
553.2986693506496
  0
LINE
  5
CE
100
AcDbEntity
  8
0
  6
ByLayer
 62
   85
420
5814856
370
   -1
100
AcDbLine
 10
-452.5512198454578
 20
558.0386646323955
 11
-329.4340052452468
 21
575.8402814770873
  0
LINE
  5
CF
100
AcDbEntity
  8
0
  6
ByLayer
 62
   85
420
5814856
370
   -1
100
AcDbLine
 10
-329.9268119936341
 20
580.5566808641864
 11
-453.0412736779135
 21
562.7345866498703
  0
LINE
  5
D0
100
AcDbEntity
  8
0
  6
ByLayer
 62
   85
420
5814856
370
   -1
100
AcDbLine
 10
-453.5376045949393
 20
567.4793310859812
 11
-330.4171500540655
 21
585.2494537112668
  0
LINE
  5
D1
100
AcDbEntity
  8
0
  6
ByLayer
 62
    5
370
   -1
100
AcDbLine
 10
-400.2169999999998
 20
29.398
 11
-400.5462998025767
 21
33.18279421346256
  0
LINE
  5
D2
100
AcDbEntity
  8
0
  6
ByLayer
 62
    5
370
   -1
100
AcDbLine
 10
-419.078
 20
45.718
 11
-426.0854827309563
 21
45.10913380466471
  0
LINE
  5
D3
100
AcDbEntity
  8
0
  6
ByLayer
 62
    5
370
   -1
100
AcDbLine
 10
-218.075
 20
33.547
 11
-218.676
 21
41.20600000000002
  0
LINE
  5
D4
100
AcDbEntity
  8
0
  6
ByLayer
 62
    5
370
   -1
100
AcDbLine
 10
-184.255
 20
44.215
 11
-184.7649999999999
 21
51.935
  0
LINE
  5
D5
100
AcDbEntity
  8
0
  6
ByLayer
 62
    5
370
   -1
100
AcDbLine
 10
-11.158
 20
51.63
 11
-11.82134735987937
 21
59.24190654288826
  0
LINE
  5
D6
100
AcDbEntity
  8
0
  6
ByLayer
 62
    5
370
   -1
100
AcDbLine
 10
-4.177438755916226
 20
47.83427326664557
 11
2.882519771807928
 21
48.45040083132189
  0
LINE
  5
D7
100
AcDbEntity
  8
0
  6
ByLayer
 62
    5
370
   -1
100
AcDbLine
 10
-446.9619999999999
 20
445.2269999999998
 11
-453.833
 21
444.7269999999998
  0
LINE
  5
D8
100
AcDbEntity
  8
0
  6
ByLayer
 62
    5
370
   -1
100
AcDbLine
 10
-400.2169999999998
 20
29.398
 11
-399.892
 21
25.412
  0
LWPOLYLINE
  5
D9
100
AcDbEntity
  8
appendix_container
  6
ByLayer
 62
  256
370
   -1
100
AcDbPolyline
 90
    5
 70
    0
 43
0
 10
-193.237
 20
103.951
 10
-189.656
 20
62.81700000000001
 10
-16.096
 20
77.92399999999998
 10
-19.704
 20
119.088
 10
-193.237
 20
103.951
  0
LINE
  5
DA
100
AcDbEntity
  8
0
  6
ByLayer
 62
    5
370
   -1
100
AcDbLine
 10
-217.0780646072135
 20
33.62522929508613
 11
-217.6790646072135
 21
41.28422929508615
  0
LINE
  5
DB
100
AcDbEntity
  8
0
  6
ByLayer
 62
    5
370
   -1
100
AcDbLine
 10
-10.16177572212087
 20
51.7168169808517
 11
-10.82512308200024
 21
59.32872352373996
  0
LINE
  5
DC
100
AcDbEntity
  8
0
  6
ByLayer
 62
    5
370
   -1
100
AcDbLine
 10
-4.264379013700911
 20
48.83048679374522
 11
2.795579514023243
 21
49.44661435842155
  0
LINE
  5
DD
100
AcDbEntity
  8
0
  6
ByLayer
 62
    5
370
   -1
100
AcDbLine
 10
-401.2136924736717
 20
29.31673430658726
 11
-400.8886924736719
 21
25.33073430658726
  0
LINE
  5
DE
100
AcDbEntity
  8
0
  6
ByLayer
 62
    5
370
   -1
100
AcDbLine
 10
-401.2132363329596
 20
29.31132146234089
 11
-401.5425361355365
 21
33.09611567580345
  0
LINE
  5
DF
100
AcDbEntity
  8
0
  6
ByLayer
 62
    5
370
   -1
100
AcDbLine
 10
-418.9914381310198
 20
44.72175352304831
 11
-425.9989208619762
 21
44.11288732771301
  0
LINE
  5
E0
100
AcDbEntity
  8
0
  6
ByLayer
 62
    5
370
   -1
100
AcDbLine
 10
-447.0345777005657
 20
446.2243627611758
 11
-453.9055777005659
 21
445.7243627611758
  0
LINE
  5
E1
100
AcDbEntity
  8
associate
  6
ByLayer
 62
  256
370
   -1
100
AcDbLine
 10
-329.9268119936341
 20
580.5566808641864
 11
-329.4340052452463
 21
575.8402814770873
  0
ARC
  5
E2
100
AcDbEntity
  8
ref_line
  6
ByLayer
 62
  256
370
   -1
100
AcDbCircle
 10
-12.44189841498147
 20
51.19808737897028
 40
10
100
AcDbArc
 50
4.994569216230856
 51
94.97494607127257
  0
LINE
  5
E3
100
AcDbEntity
  8
0
  6
ByLayer
 62
    5
370
   -1
100
AcDbLine
 10
-185.2528250109402
 20
44.14908150834464
 11
-185.7628250109401
 21
51.86908150834464
  0
LINE
  5
E4
100
AcDbEntity
  8
ref_line
  6
ByLayer
 62
  256
370
   -1
100
AcDbLine
 10
-13.30698721340617
 20
61.16059817549343
 11
-16.84235957007605
 21
60.85250497796115
  0
LINE
  5
E5
100
AcDbEntity
  8
ref_line
  6
ByLayer
 62
  256
370
   -1
100
AcDbLine
 10
-16.84235957007603
 20
60.85250497796114
 11
-30.61927592964567
 21
70.50618912054401
  0
LINE
  5
E6
100
AcDbEntity
  8
ref_line
  6
ByLayer
 62
  256
370
   -1
100
AcDbLine
 10
-184.3895313799624
 20
46.25143579126922
 11
-166.4552866156235
 21
47.81433384431607
  0
LINE
  5
E7
100
AcDbEntity
  8
ref_line
  6
ByLayer
 62
  256
370
   -1
100
AcDbLine
 10
-166.4552866156235
 20
47.81433384431607
 11
-154.539091945091
 21
59.71996729209661
  0
ARC
  5
E8
100
AcDbEntity
  8
ref_line
  6
ByLayer
 62
  256
370
   -1
100
AcDbCircle
 10
-189.9893753655242
 20
31.38690957016867
 40
10.00000705231313
100
AcDbArc
 50
94.98307834375099
 51
184.9150322341916
  0
LINE
  5
E9
100
AcDbEntity
  8
ref_line
  6
ByLayer
 62
  256
370
   -1
100
AcDbLine
 10
-190.8579912199691
 20
41.34912054684034
 11
-185.283200752574
 21
41.82852207744712
  0
LINE
  5
EA
100
AcDbEntity
  8
ref_line
  6
ByLayer
 62
  256
370
   -1
100
AcDbLine
 10
-185.283200752574
 20
41.82852207744712
 11
-175.308971236083
 21
34.84521209288011
  0
ARC
  5
EB
100
AcDbEntity
  8
ref_line
  6
ByLayer
 62
  256
370
   -1
100
AcDbCircle
 10
-9.823389683186257
 20
21.42919203689236
 40
9.980379477603536
100
AcDbArc
 50
274.8915140430419
 51
4.891514043041889
  0
ARC
  5
EC
100
AcDbEntity
  8
ref_line
  6
ByLayer
 62
  256
370
   -1
100
AcDbCircle
 10
-186.0811432757672
 20
-13.70854639523042
 40
9.999999999999989
100
AcDbArc
 50
94.89151404304185
 51
184.9830783437509
  0
LINE
  5
ED
100
AcDbEntity
  8
ref_line
  6
ByLayer
 62
  256
370
   -1
100
AcDbLine
 10
-186.9338368317914
 20
-3.744967033398925
 11
-8.966927062913603
 21
11.48562897845875
  0
LINE
  5
EE
100
AcDbEntity
  8
ref_line
  6
ByLayer
 62
  256
370
   -1
100
AcDbLine
 10
0.1206406154434774
 20
22.28021256361524
 11
-2.129944905527679
 21
48.01295950039265
  0
LINE
  5
EF
100
AcDbEntity
  8
ref_line
  6
ByLayer
 62
  256
370
   -1
100
AcDbLine
 10
-2.129944905527679
 20
48.01295950039265
 11
-2.479868868193153
 21
52.0687005588134
  0
LINE
  5
F0
100
AcDbEntity
  8
ref_line
  6
ByLayer
 62
  256
370
   -1
100
AcDbLine
 10
-196.0433472267808
 20
-14.57716163710065
 11
-198.0713700971291
 21
9.119941118711649
  0
LINE
  5
F1
100
AcDbEntity
  8
ref_line
  6
ByLayer
 62
  256
370
   -1
100
AcDbLine
 10
-198.0713700971291
 20
9.119941118711649
 11
-199.9526109093595
 21
30.53012573257117
  0
LINE
  5
F2
100
AcDbEntity
  8
associate
  6
ByLayer
 62
  256
370
   -1
100
AcDbLine
 10
-220.1251279907715
 20
43.12859743488262
 11
-202.1934662062746
 21
44.69560274642885
  0
LINE
  5
F3
100
AcDbEntity
  8
associate
  6
ByLayer
 62
  256
370
   -1
100
AcDbLine
 10
-201.108288358778
 20
43.7846645637177
 11
-199.5447809234116
 21
25.85269745189325
  0
LINE
  5
F4
100
AcDbEntity
  8
associate
  6
ByLayer
 62
  256
370
   -1
100
AcDbLine
 10
-219.9945442148093
 20
41.63429228617455
 11
-220.2557117667336
 21
44.62290258359069
  0
LINE
  5
F5
100
AcDbEntity
  8
associate
  6
ByLayer
 62
  256
370
   -1
100
AcDbLine
 10
-200.6906429878569
 20
38.99803156070383
 11
-200.9518105397812
 21
41.98664185811997
  0
LINE
  5
F6
100
AcDbEntity
  8
associate
  6
ByLayer
 62
  256
370
   -1
100
AcDbLine
 10
-198.0505380176106
 20
25.98399154339579
 11
-201.0390238292126
 21
25.7214033603907
  0
ARC
  5
F7
100
AcDbEntity
  8
associate
  6
ByLayer
 62
  256
370
   -1
100
AcDbCircle
 10
-210.2887385921084
 20
33.95006576593523
 40
14.60246184109534
100
AcDbArc
 50
326.9391423485739
 51
133.041297298482
  0
ARC
  5
F8
100
AcDbEntity
  8
associate
  6
ByLayer
 62
  256
370
   -1
100
AcDbCircle
 10
-210.2887385921084
 20
33.95006576593523
 40
12.37941840313999
100
AcDbArc
 50
318.343306810149
 51
141.6308318082727
  0
ARC
  5
F9
100
AcDbEntity
  8
ref_line
  6
ByLayer
 62
  256
370
   -1
100
AcDbCircle
 10
-210.2887385921084
 20
33.95006576593523
 40
10.00000000000002
100
AcDbArc
 50
4.983078343750979
 51
94.99425476665606
  0
LINE
  5
FA
100
AcDbEntity
  8
ref_line
  6
ByLayer
 62
  256
370
   -1
100
AcDbLine
 10
-199.9526109093595
 20
30.53012573257117
 11
-200.3265346410948
 21
34.81868100780547
  0
LINE
  5
FB
100
AcDbEntity
  8
associate
  6
ByLayer
 62
  256
370
   -1
100
AcDbLine
 10
-430.2671644120933
 20
28.69113277828735
 11
-370.4928195790782
 21
33.8899499306599
  0
LINE
  5
FC
100
AcDbEntity
  8
associate
  6
ByLayer
 62
  256
370
   -1
100
AcDbLine
 10
-429.5700482707202
 20
20.82118748932319
 11
-369.7906771659054
 21
25.96188688851286
  0
LINE
  5
FD
100
AcDbEntity
  8
associate
  6
ByLayer
 62
  256
370
   -1
100
AcDbLine
 10
-429.2432139785878
 20
16.99656306821246
 11
-369.4671765564038
 21
22.17588253139016
  0
LINE
  5
FE
100
AcDbEntity
  8
associate
  6
ByLayer
 62
  256
370
   -1
100
AcDbLine
 10
-411.3199768329841
 20
16.28877814270049
 11
-416.5276406120782
 21
76.0623528891042
  0
LINE
  5
FF
100
AcDbEntity
  8
associate
  6
ByLayer
 62
  256
370
   -1
100
AcDbLine
 10
-419.9533457842608
 20
75.75537857397529
 11
-414.7462716608016
 21
15.98175245782937
  0
LINE
  5
100
100
AcDbEntity
  8
associate
  6
ByLayer
 62
  256
370
   -1
100
AcDbLine
 10
-418.2310479354125
 20
15.71817953767252
 11
-423.4379520645871
 21
75.49182046232747
  0
LINE
  5
101
100
AcDbEntity
  8
associate
  6
ByLayer
 62
  256
370
   -1
100
AcDbLine
 10
-426.9838889090723
 20
75.22334059800018
 11
-421.7901767702629
 21
15.44855198089853
  0
LINE
  5
102
100
AcDbEntity
  8
associate
  6
ByLayer
 62
  256
370
   -1
100
AcDbLine
 10
-409.9910747649031
 20
76.62322426121848
 11
-404.7840006414439
 21
16.84959814507256
  0
LINE
  5
103
100
AcDbEntity
  8
associate
  6
ByLayer
 62
  256
370
   -1
100
AcDbLine
 10
-405.6581239397923
 20
26.91530980916125
 11
-407.3992409526214
 21
46.83937845860223
  0
LINE
  5
104
100
AcDbEntity
  8
collusion
  6
ByLayer
 62
  256
370
   -1
100
AcDbLine
 10
-282.6327628452078
 20
-18.1539783651468
 11
-262.7083549431807
 21
-16.41674788140634
  0
LINE
  5
105
100
AcDbEntity
  8
collusion
  6
ByLayer
 62
  256
370
   -1
100
AcDbLine
 10
-271.8000003877797
 20
-27.24739744799707
 11
-273.5411174006088
 21
-7.323328798556084
  0
CIRCLE
  5
106
100
AcDbEntity
  8
collusion
  6
ByLayer
 62
  256
370
   -1
100
AcDbCircle
 10
-272.6705588941942
 20
-17.28536312327659
 40
12.37941840314011
  0
CIRCLE
  5
107
100
AcDbEntity
  8
collusion
  6
ByLayer
 62
  256
370
   -1
100
AcDbCircle
 10
-272.6705588941942
 20
-17.28536312327659
 40
14.60246184109528
  0
LINE
  5
108
100
AcDbEntity
  8
collusion
  6
ByLayer
 62
  256
370
   -1
100
AcDbLine
 10
-405.6581239397923
 20
26.91530980916123
 11
-407.3992409526215
 21
46.83937845860221
  0
ARC
  5
109
100
AcDbEntity
  8
ref_line
  6
ByLayer
 62
  256
370
   -1
100
AcDbCircle
 10
-406.5286824462069
 20
36.87734413388174
 40
9.999999999999977
100
AcDbArc
 50
184.9830783437509
 51
274.9786524070798
  0
CIRCLE
  5
10A
100
AcDbEntity
  8
collusion
  6
ByLayer
 62
  256
370
   -1
100
AcDbCircle
 10
-272.6705588941942
 20
-17.28536312327656
 40
9.999999999999982
  0
LINE
  5
10B
100
AcDbEntity
  8
collusion
  6
ByLayer
 62
  256
370
   -1
100
AcDbLine
 10
-264.5752865083604
 20
-6.539826142782973
 11
-282.5069482928573
 21
-8.106831454329194
  0
LINE
  5
10C
100
AcDbEntity
  8
collusion
  6
ByLayer
 62
  256
370
   -1
100
AcDbLine
 10
-282.6375320688194
 20
-6.61252630562112
 11
-282.3763645168951
 21
-9.601136603037268
  0
LINE
  5
10D
100
AcDbEntity
  8
collusion
  6
ByLayer
 62
  256
370
   -1
100
AcDbLine
 10
-264.7058702843225
 20
-5.045520994074899
 11
-264.4447027323982
 21
-8.034131291491047
  0
LINE
  5
10E
100
AcDbEntity
  8
collusion
  6
ByLayer
 62
  256
370
   -1
100
AcDbLine
 10
-282.6374635263445
 20
-6.613310655533034
 11
-264.7058017418476
 21
-5.04630534398683
  0
LINE
  5
10F
100
AcDbEntity
  8
collusion
  6
ByLayer
 62
  256
370
   -1
100
AcDbLine
 10
-282.3763645168951
 20
-9.601136603037268
 11
-264.4447027323982
 21
-8.034131291491047
  0
CIRCLE
  5
110
100
AcDbEntity
  8
collusion
  6
ByLayer
 62
  256
370
   -1
100
AcDbCircle
 10
-272.6705588941942
 20
-17.28536312327656
 40
8.499999999999993
  0
LINE
  5
111
100
AcDbEntity
  8
collusion
  6
ByLayer
 62
  256
370
   -1
100
AcDbLine
 10
-405.6581239397923
 20
26.91530980916124
 11
-407.3992409526215
 21
46.83937845860223
  0
LINE
  5
112
100
AcDbEntity
  8
collusion
  6
ByLayer
 62
  256
370
   -1
100
AcDbLine
 10
-416.4956556208321
 20
47.55018095153719
 11
-416.2344880689078
 21
44.56157065412104
  0
LINE
  5
113
100
AcDbEntity
  8
associate
  6
ByLayer
 62
  256
370
   -1
100
AcDbLine
 10
-418.7565767499469
 20
21.75108697676555
 11
-409.7475887977054
 21
32.4673426697008
  0
ARC
  5
114
100
AcDbEntity
  8
ref_line
  6
ByLayer
 62
  256
370
   -1
100
AcDbCircle
 10
-409.7475887977054
 20
32.4673426697008
 40
9.904975449477677
100
AcDbArc
 50
184.9784894597321
 51
274.9150322341918
  0
LINE
  5
115
100
AcDbEntity
  8
collusion
  6
ByLayer
 62
  256
370
   -1
100
AcDbLine
 10
-419.7072968364904
 20
43.05569579792095
 11
-419.446129284566
 21
40.0670855005048
  0
LINE
  5
116
100
AcDbEntity
  8
collusion
  6
ByLayer
 62
  256
370
   -1
100
AcDbLine
 10
-419.7145619723307
 20
43.14017948735624
 11
-419.4533944204063
 21
40.15156918994009
  0
LINE
  5
117
100
AcDbEntity
  8
associate
  6
ByLayer
 62
  256
370
   -1
100
AcDbLine
 10
-447.7813113596548
 20
434.7920450841542
 11
-449.5171992860195
 21
454.7165699996222
  0
LINE
  5
118
100
AcDbEntity
  8
associate
  6
ByLayer
 62
  256
370
   -1
100
AcDbLine
 10
-448.6492553228372
 20
444.7543075418882
 11
-450.3851432492019
 21
464.6788324573561
  0
LINE
  5
119
100
AcDbEntity
  8
associate
  6
ByLayer
 62
  256
370
   -1
100
AcDbLine
 10
-414.4927794363037
 20
463.9139664918076
 11
-448.3324845122302
 21
460.9697091366473
  0
LINE
  5
11A
100
AcDbEntity
  8
associate
  6
ByLayer
 62
  256
370
   -1
100
AcDbLine
 10
-438.3701211826317
 20
461.8364945132378
 11
-458.2948478418287
 21
460.1029237600567
  0
LINE
  5
11B
100
AcDbEntity
  8
associate
  6
ByLayer
 62
  256
370
   -1
100
AcDbLine
 10
-450.048981183474
 20
460.8203636285207
 11
-439.3281473447966
 21
451.8168242242937
  0
LINE
  5
11C
100
AcDbEntity
  8
associate
  6
ByLayer
 62
  256
370
   -1
100
AcDbLine
 10
-457.7088262356035
 20
512.2307822651088
 11
-459.4571737643966
 21
532.1542177348907
  0
LINE
  5
11D
100
AcDbEntity
  8
associate
  6
ByLayer
 62
  256
370
   -1
100
AcDbLine
 10
-463.4270444849111
 20
531.8370094120303
 11
-461.6739555150889
 21
511.9139905879693
  0
ARC
  5
11E
100
AcDbEntity
  8
ref_line
  6
ByLayer
 62
  256
370
   -1
100
AcDbCircle
 10
-451.9572897046528
 20
552.6149333273452
 40
10.17754413512132
100
AcDbArc
 50
96.08819878793403
 51
184.3184791330937
  0
LINE
  5
11F
100
AcDbEntity
  8
associate
  6
ByLayer
 62
  256
370
   -1
100
AcDbLine
 10
-354.5319023336822
 20
584.6544748533998
 11
-351.6716173584618
 21
564.8600622614453
  0
LINE
  5
120
100
AcDbEntity
  8
associate
  6
ByLayer
 62
  256
370
   -1
100
AcDbLine
 10
-340.555068812052
 20
586.6816491809645
 11
-337.6947838368315
 21
566.8872365890099
  0
LINE
  5
121
100
AcDbEntity
  8
associate
  6
ByLayer
 62
  256
370
   -1
100
AcDbLine
 10
-351.8585580837668
 20
566.1537731605285
 11
-340.3814959707973
 21
585.4804498374316
  0
LINE
  5
122
100
AcDbEntity
  8
associate
  6
ByLayer
 62
  256
370
   -1
100
AcDbLine
 10
-354.3593949350843
 20
583.4606488351553
 11
-337.8810947464175
 21
568.1765888901538
  0
LINE
  5
123
100
AcDbEntity
  8
collusion
  6
ByLayer
 62
  256
370
   -1
100
AcDbLine
 10
-460.1847871127238
 20
542.4117783231642
 11
-440.2603792106966
 21
544.1490088069046
  0
LINE
  5
124
100
AcDbEntity
  8
collusion
  6
ByLayer
 62
  256
370
   -1
100
AcDbLine
 10
-449.3520246552956
 20
533.3183592403138
 11
-451.0931416681248
 21
553.2424278897548
  0
CIRCLE
  5
125
100
AcDbEntity
  8
collusion
  6
ByLayer
 62
  256
370
   -1
100
AcDbCircle
 10
-450.2225831617102
 20
543.2803935650344
 40
12.37941840314011
  0
CIRCLE
  5
126
100
AcDbEntity
  8
collusion
  6
ByLayer
 62
  256
370
   -1
100
AcDbCircle
 10
-450.2225831617102
 20
543.2803935650344
 40
14.60246184109528
  0
CIRCLE
  5
127
100
AcDbEntity
  8
collusion
  6
ByLayer
 62
  256
370
   -1
100
AcDbCircle
 10
-450.2225831617101
 20
543.2803935650344
 40
9.999999999999982
  0
LINE
  5
128
100
AcDbEntity
  8
collusion
  6
ByLayer
 62
  256
370
   -1
100
AcDbLine
 10
-442.1273107758763
 20
554.025930545528
 11
-460.0589725603732
 21
552.4589252339817
  0
LINE
  5
129
100
AcDbEntity
  8
collusion
  6
ByLayer
 62
  256
370
   -1
100
AcDbLine
 10
-460.1895563363354
 20
553.9532303826899
 11
-459.928388784411
 21
550.9646200852737
  0
LINE
  5
12A
100
AcDbEntity
  8
collusion
  6
ByLayer
 62
  256
370
   -1
100
AcDbLine
 10
-442.2578945518385
 20
555.520235694236
 11
-441.9967269999141
 21
552.5316253968199
  0
LINE
  5
12B
100
AcDbEntity
  8
collusion
  6
ByLayer
 62
  256
370
   -1
100
AcDbLine
 10
-460.1894877938605
 20
553.952446032778
 11
-442.2578260093636
 21
555.5194513443241
  0
LINE
  5
12C
100
AcDbEntity
  8
collusion
  6
ByLayer
 62
  256
370
   -1
100
AcDbLine
 10
-459.928388784411
 20
550.9646200852737
 11
-441.9967269999141
 21
552.5316253968199
  0
CIRCLE
  5
12D
100
AcDbEntity
  8
collusion
  6
ByLayer
 62
  256
370
   -1
100
AcDbCircle
 10
-450.2225831617101
 20
543.2803935650344
 40
8.499999999999993
  0
ARC
  5
12E
100
AcDbEntity
  8
ref_line
  6
ByLayer
 62
  256
370
   -1
100
AcDbCircle
 10
-194.298441738704
 20
35.33775165232364
 40
10.00000000000002
100
AcDbArc
 50
94.92549116860833
 51
184.9366675915134
  0
LINE
  5
12F
100
AcDbEntity
  8
associate
  6
ByLayer
 62
  256
370
   -1
100
AcDbLine
 10
-193.8512117370784
 20
30.35777160820982
 11
-196.4628756102508
 21
60.2438756000915
  0
LINE
  5
130
100
AcDbEntity
  8
ref_line
  6
ByLayer
 62
  256
370
   -1
100
AcDbLine
 10
-195.1570436736646
 20
45.30082360415066
 11
-184.3895313799624
 21
46.25143579126922
  0
LINE
  5
131
100
AcDbEntity
  8
associate
  6
ByLayer
 62
  256
370
   -1
100
AcDbLine
 10
-211.159297098523
 20
43.91210009065573
 11
-195.1570436735688
 21
45.30082360415911
  0
LINE
  5
132
100
AcDbEntity
  8
ref_line
  6
ByLayer
 62
  256
370
   -1
100
AcDbLine
 10
-211.159297098523
 20
43.91210009065573
 11
-195.1570436736646
 21
45.30082360415066
  0
LINE
  5
133
100
AcDbEntity
  8
associate
  6
ByLayer
 62
  256
370
   -1
100
AcDbLine
 10
-34.25759899309219
 20
83.74133824607081
 11
-31.65308956754119
 21
53.85460990969689
  0
LINE
  5
134
100
AcDbEntity
  8
associate
  6
ByLayer
 62
  256
370
   -1
100
AcDbLine
 10
-42.01005568888645
 20
40.27016174382466
 11
-20.77522156108572
 21
61.46171240829445
  0
LINE
  5
135
100
AcDbEntity
  8
associate
  6
ByLayer
 62
  256
370
   -1
100
AcDbLine
 10
-31.79139590391168
 20
83.95625802982232
 11
-29.18688647836068
 21
54.0695296934484
  0
LINE
  5
136
100
AcDbEntity
  8
associate
  6
ByLayer
 62
  256
370
   -1
100
AcDbLine
 10
-30.48914119113618
 20
69.01289386163536
 11
-27.88463176558519
 21
39.12616552526144
  0
ARC
  5
137
100
AcDbEntity
  8
ref_line
  6
ByLayer
 62
  256
370
   -1
100
AcDbCircle
 10
-29.83792310198038
 20
61.54017061963188
 40
8.999999999999993
100
AcDbArc
 50
274.9805165209273
 51
94.98051652092697
  0
LINE
  5
138
100
AcDbEntity
  8
collusion
  6
ByLayer
 62
  256
370
   -1
100
AcDbLine
 10
-30.61927592964567
 20
70.50618912054401
 11
-29.05657027431508
 21
52.57415211871978
  0
LINE
  5
139
100
AcDbEntity
  8
associate
  6
ByLayer
 62
  256
370
   -1
100
AcDbLine
 10
-28.26069519982337
 20
59.85861872943702
 11
-58.1474015337001
 21
57.2538568377064
  0
LINE
  5
13A
100
AcDbEntity
  8
车道线
  6
ByLayer
 62
  256
370
   -1
100
AcDbLine
 10
-209.495944482967
 20
34.29093560662172
 11
-209.9940393638966
 21
34.24732953374514
  0
LINE
  5
13B
100
AcDbEntity
  8
associate
  6
ByLayer
 62
  256
370
   -1
100
AcDbLine
 10
-346.1195271793098
 20
575.8179532126568
 11
-338.3561555030171
 21
585.0228464882879
  0
LINE
  5
13C
100
AcDbEntity
  8
associate
  6
ByLayer
 62
  256
370
   -1
100
AcDbLine
 10
-418.6389028474775
 20
1162.488085456205
 11
-410.8755311711848
 21
1171.692978731836
  0
LINE
  5
13D
100
AcDbEntity
  8
collusion
  6
ByLayer
 62
  256
370
   -1
100
AcDbLine
 10
-336.3779525337033
 20
572.8404298545331
 11
-459.0677787859423
 21
555.0840929954553
  0
LINE
  5
13E
100
AcDbEntity
  8
collusion
  6
ByLayer
 62
  256
370
   -1
100
AcDbLine
 10
-353.6308810891563
 20
578.4268401058247
 11
-351.3391506231981
 21
562.5918165355423
  0
CIRCLE
  5
13F
100
AcDbEntity
  8
collusion
  6
ByLayer
 62
  256
370
   -1
100
AcDbCircle
 10
-352.4850158561772
 20
570.5093283206834
 40
8.000000000000098
  0
LINE
  5
140
100
AcDbEntity
  8
collusion
  6
ByLayer
 62
  256
370
   -1
100
AcDbLine
 10
-362.5380818474401
 20
577.1377417187232
 11
-344.7236803308724
 21
579.7159384929262
  0
LINE
  5
141
100
AcDbEntity
  8
collusion
  6
ByLayer
 62
  256
370
   -1
100
AcDbLine
 10
-362.3232321162566
 20
575.6532082590093
 11
-362.7529315786237
 21
578.6222751784371
  0
LINE
  5
142
100
AcDbEntity
  8
collusion
  6
ByLayer
 62
  256
370
   -1
100
AcDbLine
 10
-344.5088305996888
 20
578.2314050332122
 11
-344.938530062056
 21
581.2004719526401
  0
CIRCLE
  5
143
100
AcDbEntity
  8
collusion
  6
ByLayer
 62
  256
370
   -1
100
AcDbCircle
 10
-352.4850158561772
 20
570.5093283206835
 40
13.08625232830239
  0
CIRCLE
  5
144
100
AcDbEntity
  8
collusion
  6
ByLayer
 62
  256
370
   -1
100
AcDbCircle
 10
-352.4850158561773
 20
570.5093283206834
 40
11.10180165558729
  0
LINE
  5
145
100
AcDbEntity
  8
collusion
  6
ByLayer
 62
  256
370
   -1
100
AcDbLine
 10
-362.3232321162557
 20
575.6532082590035
 11
-344.5088305996883
 21
578.2314050332086
  0
CIRCLE
  5
146
100
AcDbEntity
  8
collusion
  6
ByLayer
 62
  256
370
   -1
100
AcDbCircle
 10
-352.4850158561773
 20
570.5093283206834
 40
6.499999999995435
  0
LINE
  5
147
100
AcDbEntity
  8
collusion
  6
ByLayer
 62
  256
370
   -1
100
AcDbLine
 10
-355.0632065126631
 20
588.3237307226403
 11
-352.1985434302154
 21
568.5299512597873
  0
LINE
  5
148
100
AcDbEntity
  8
车道线
  6
ByLayer
 62
  256
370
   -1
100
AcDbLine
 10
-450.3759999999998
 20
444.93
 11
-453.0395826855318
 21
481.936627897619
  0
LINE
  5
149
100
AcDbEntity
  8
associate
  6
ByLayer
 62
  256
370
   -1
100
AcDbLine
 10
-447.77597821737
 20
415.0428809228817
 11
-444.3619782173701
 21
415.3398809228815
  0
LINE
  5
14A
100
AcDbEntity
  8
车道线
  6
ByLayer
 62
  256
370
   -1
100
AcDbLine
 10
-450.3759999999996
 20
444.9299999999977
 11
-444.3619782173701
 21
415.3398809228815
  0
LINE
  5
14B
100
AcDbEntity
  8
associate
  6
ByLayer
 62
  256
370
   -1
100
AcDbLine
 10
-181.5773310367892
 20
-30.04523716594793
 11
-7.857331036789251
 21
-14.93223716594794
  0
LINE
  5
14C
100
AcDbEntity
  8
associate
  6
ByLayer
 62
  256
370
   -1
100
AcDbLine
 10
2.924996888416031
 20
-9.718384839234389
 11
1.180476582772578
 21
10.20538611164731
  0
LINE
  5
14D
100
AcDbEntity
  8
associate
  6
ByLayer
 62
  256
370
   -1
100
AcDbLine
 10
3.797257041237757
 20
-19.68027031467524
 11
2.052736735594304
 21
0.2435006362064627
  0
LINE
  5
14E
100
AcDbEntity
  8
associate
  6
ByLayer
 62
  256
370
   -1
100
AcDbLine
 10
-194.0919073086155
 20
-36.80249992742745
 11
-185.0919306068507
 21
-26.07867507956226
  0
LINE
  5
14F
100
AcDbEntity
  8
associate
  6
ByLayer
 62
  256
370
   -1
100
AcDbLine
 10
-184.2252409747432
 20
-36.04104673904161
 11
-185.9586202389582
 21
-16.1163034200829
  0
LINE
  5
150
100
AcDbEntity
  8
associate
  6
ByLayer
 62
  256
370
   -1
100
AcDbLine
 10
-175.1302555368797
 20
-25.20401525979275
 11
-195.0536056768216
 21
-26.95333489933176
  0
LINE
  5
151
100
AcDbEntity
  8
associate
  6
ByLayer
 62
  256
370
   -1
100
AcDbLine
 10
-186.0797678649339
 20
-13.72446808125196
 11
-206.0069265885969
 21
-15.42985519330035
  0
LINE
  5
152
100
AcDbEntity
  8
associate
  6
ByLayer
 62
  256
370
   -1
100
AcDbLine
 10
-196.8974177706494
 20
-4.597660808372419
 11
-176.970259061257
 21
-2.892273529573909
  0
LINE
  5
153
100
AcDbEntity
  8
associate
  6
ByLayer
 62
  256
370
   -1
100
AcDbLine
 10
-206.8609971253456
 20
-5.450354447771674
 11
-186.9338384159532
 21
-3.744967168973164
  0
LINE
  5
154
100
AcDbEntity
  8
associate
  6
ByLayer
 62
  256
370
   -1
100
AcDbLine
 10
-200.8385470859966
 20
-4.934946815700958
 11
-191.8269931387412
 21
5.779151161063317
  0
ARC
  5
155
100
AcDbEntity
  8
ref_line
  6
ByLayer
 62
  256
370
   -1
100
AcDbCircle
 10
-191.8269931387412
 20
5.779151161063317
 40
9.906667067354887
100
AcDbArc
 50
184.9745655927953
 51
274.8915145224919
  0
LINE
  5
156
100
AcDbEntity
  8
ref_line
  6
ByLayer
 62
  256
370
   -1
100
AcDbLine
 10
-190.9822579391432
 20
-4.091435185551258
 11
-186.9338354143797
 21
-3.744966912095338
  0
LINE
  5
157
100
AcDbEntity
  8
ref_line
  6
ByLayer
 62
  256
370
   -1
100
AcDbLine
 10
-405.6581239397923
 20
26.91530980916123
 11
-400.042382264904
 21
27.40605612919446
  0
LINE
  5
158
100
AcDbEntity
  8
ref_line
  6
ByLayer
 62
  256
370
   -1
100
AcDbLine
 10
-400.042382264904
 20
27.40605612919446
 11
-211.159297098523
 21
43.91210009065556
  0
LINE
  5
159
100
AcDbEntity
  8
associate
  6
ByLayer
 62
  256
370
   -1
100
AcDbLine
 10
-204.7630948217836
 20
40.15335758696958
 11
-213.7724497169007
 21
29.4374103878728
  0
LINE
  5
15A
100
AcDbEntity
  8
associate
  6
ByLayer
 62
  256
370
   -1
100
AcDbLine
 10
-212.9156664837024
 20
19.47418187040365
 11
-214.629232950099
 21
39.40063890534194
  0
LINE
  5
15B
100
AcDbEntity
  8
associate
  6
ByLayer
 62
  256
370
   -1
100
AcDbLine
 10
-223.7350061616627
 20
28.57284744341382
 11
-203.8098932721387
 21
30.30197333233177
  0
LINE
  5
15C
100
AcDbEntity
  8
collusion
  6
ByLayer
 62
  256
370
   -1
100
AcDbLine
 10
-223.7346536679144
 20
28.56879514600251
 11
-203.8102457658873
 21
30.30602562974297
  0
LINE
  5
15D
100
AcDbEntity
  8
collusion
  6
ByLayer
 62
  256
370
   -1
100
AcDbLine
 10
-212.9018912104862
 20
19.47537606315224
 11
-214.6430082233153
 21
39.39944471259323
  0
CIRCLE
  5
15E
100
AcDbEntity
  8
collusion
  6
ByLayer
 62
  256
370
   -1
100
AcDbCircle
 10
-213.7724497169007
 20
29.43741038787272
 40
12.37941840314011
  0
CIRCLE
  5
15F
100
AcDbEntity
  8
collusion
  6
ByLayer
 62
  256
370
   -1
100
AcDbCircle
 10
-213.7724497169007
 20
29.43741038787272
 40
14.60246184109528
  0
CIRCLE
  5
160
100
AcDbEntity
  8
collusion
  6
ByLayer
 62
  256
370
   -1
100
AcDbCircle
 10
-213.7724497169007
 20
29.43741038787275
 40
9.999999999999982
  0
LINE
  5
161
100
AcDbEntity
  8
collusion
  6
ByLayer
 62
  256
370
   -1
100
AcDbLine
 10
-205.677177331067
 20
40.18294736836634
 11
-223.6088391155639
 21
38.61594205682012
  0
LINE
  5
162
100
AcDbEntity
  8
collusion
  6
ByLayer
 62
  256
370
   -1
100
AcDbLine
 10
-223.7394228915259
 20
40.1102472055282
 11
-223.4782553396016
 21
37.12163690811204
  0
LINE
  5
163
100
AcDbEntity
  8
collusion
  6
ByLayer
 62
  256
370
   -1
100
AcDbLine
 10
-205.807761107029
 20
41.67725251707441
 11
-205.5465935551047
 21
38.68864221965826
  0
LINE
  5
164
100
AcDbEntity
  8
collusion
  6
ByLayer
 62
  256
370
   -1
100
AcDbLine
 10
-223.739354349051
 20
40.10946285561628
 11
-205.8076925645541
 21
41.67646816716248
  0
LINE
  5
165
100
AcDbEntity
  8
collusion
  6
ByLayer
 62
  256
370
   -1
100
AcDbLine
 10
-223.4782553396016
 20
37.12163690811204
 11
-205.5465935551047
 21
38.68864221965826
  0
CIRCLE
  5
166
100
AcDbEntity
  8
collusion
  6
ByLayer
 62
  256
370
   -1
100
AcDbCircle
 10
-213.7724497169007
 20
29.43741038787275
 40
8.499999999999993
  0
ARC
  5
167
100
AcDbEntity
  8
ref_line
  6
ByLayer
 62
  256
370
   -1
100
AcDbCircle
 10
-213.7724497169007
 20
29.4374103878728
 40
9.904636650966562
100
AcDbArc
 50
4.959772714856618
 51
94.91503223419193
  0
LINE
  5
168
100
AcDbEntity
  8
ref_line
  6
ByLayer
 62
  256
370
   -1
100
AcDbLine
 10
-203.9048995468894
 20
30.29372857054839
 11
-201.6963446602528
 21
4.920109294651057
  0
LINE
  5
169
100
AcDbEntity
  8
ref_line
  6
ByLayer
 62
  256
370
   -1
100
AcDbLine
 10
-203.9048995468964
 20
30.29372857062833
 11
-204.2613460174709
 21
34.47720628331122
  0
LINE
  5
16A
100
AcDbEntity
  8
ref_line
  6
ByLayer
 62
  256
370
   -1
100
AcDbLine
 10
-408.8989402058729
 20
22.5987898769968
 11
-214.6210623782476
 21
39.30562622148079
  0
LINE
  5
16B
100
AcDbEntity
  8
associate
  6
ByLayer
 62
  256
370
   -1
100
AcDbLine
 10
-434.3997157596361
 20
416.2078248860639
 11
-454.324240675104
 21
414.4719369596991
  0
LINE
  5
16C
100
AcDbEntity
  8
ref_line
  6
ByLayer
 62
  256
370
   -1
100
AcDbLine
 10
-416.4908863972205
 20
36.00872889201151
 11
-449.4966811400865
 21
414.8925292873053
  0
LINE
  5
16D
100
AcDbEntity
  8
associate
  6
ByLayer
 62
  256
370
   -1
100
AcDbLine
 10
-452.9399053714498
 20
454.4183729683688
 11
-451.2042139969634
 21
434.4938309296534
  0
LINE
  5
16E
100
AcDbEntity
  8
ref_line
  6
ByLayer
 62
  256
370
   -1
100
AcDbLine
 10
-452.1066024638134
 20
444.8526292778478
 11
-449.4966811400865
 21
414.8925292873053
  0
LINE
  5
16F
100
AcDbEntity
  8
associate
  6
ByLayer
 62
  256
370
   -1
100
AcDbLine
 10
-44.70762103900934
 20
54.33169725183672
 11
-24.78626283912076
 21
56.10355714238452
  0
LINE
  5
170
100
AcDbEntity
  8
associate
  6
ByLayer
 62
  256
370
   -1
100
AcDbLine
 10
-15.85855803320167
 20
66.64117221307151
 11
4.066063686120971
 21
68.37594866607537
  0
LINE
  5
171
100
AcDbEntity
  8
associate
  6
ByLayer
 62
  256
370
   -1
100
AcDbLine
 10
-14.52215968803386
 20
51.34019757602348
 11
5.402462031288779
 21
53.07497402902736
  0
LINE
  5
172
100
AcDbEntity
  8
associate
  6
ByLayer
 62
  256
370
   -1
100
AcDbLine
 10
0.3916686608573403
 20
42.60169999457545
 11
-1.352851644786113
 21
62.52547094545716
  0
LINE
  5
173
100
AcDbEntity
  8
associate
  6
ByLayer
 62
  256
370
   -1
100
AcDbLine
 10
-0.4805914919643861
 20
52.56358547001631
 11
-2.225111797607839
 21
72.48735642089801
  0
LINE
  5
174
100
AcDbEntity
  8
associate
  6
ByLayer
 62
  256
370
   -1
100
AcDbLine
 10
4.737799560292181
 20
60.68497029169549
 11
-15.18668599729044
 21
58.94863067466148
  0
LINE
  5
175
100
AcDbEntity
  8
associate
  6
ByLayer
 62
  256
370
   -1
100
AcDbLine
 10
5.053739220508983
 20
57.06764709962896
 11
-14.87074633707363
 21
55.33130748259496
  0
LINE
  5
176
100
AcDbEntity
  8
associate
  6
ByLayer
 62
  256
370
   -1
100
AcDbLine
 10
4.390705915202314
 20
64.65898827772773
 11
-15.5337796423803
 21
62.92264866069372
  0
LINE
  5
177
100
AcDbEntity
  8
associate
  6
ByLayer
 62
  256
370
   -1
100
AcDbLine
 10
2.585774358465987
 20
64.50037219369788
 11
-12.38991572138429
 21
51.24410172903573
  0
LINE
  5
178
100
AcDbEntity
  8
associate
  6
ByLayer
 62
  256
370
   -1
100
AcDbLine
 10
-1.762609667429021
 20
68.10822610833615
 11
-12.44189841498147
 21
51.19808737897029
  0
LINE
  5
179
100
AcDbEntity
  8
collusion
  6
ByLayer
 62
  256
370
   -1
100
AcDbLine
 10
-22.4041023659951
 20
50.32947213710005
 11
-2.479694463968002
 21
52.06670262084051
  0
LINE
  5
17A
100
AcDbEntity
  8
collusion
  6
ByLayer
 62
  256
370
   -1
100
AcDbLine
 10
-11.57133990856696
 20
41.23605305424978
 11
-13.31245692139609
 21
61.16012170369076
  0
CIRCLE
  5
17B
100
AcDbEntity
  8
collusion
  6
ByLayer
 62
  256
370
   -1
100
AcDbCircle
 10
-12.44189841498147
 20
51.19808737897026
 40
12.37941840314011
  0
CIRCLE
  5
17C
100
AcDbEntity
  8
collusion
  6
ByLayer
 62
  256
370
   -1
100
AcDbCircle
 10
-12.44189841498147
 20
51.19808737897026
 40
14.60246184109528
  0
CIRCLE
  5
17D
100
AcDbEntity
  8
collusion
  6
ByLayer
 62
  256
370
   -1
100
AcDbCircle
 10
-12.44189841498147
 20
51.19808737897029
 40
9.999999999999982
  0
LINE
  5
17E
100
AcDbEntity
  8
collusion
  6
ByLayer
 62
  256
370
   -1
100
AcDbLine
 10
-4.3466260291477
 20
61.94362435946388
 11
-22.2782878136446
 21
60.37661904791766
  0
LINE
  5
17F
100
AcDbEntity
  8
collusion
  6
ByLayer
 62
  256
370
   -1
100
AcDbLine
 10
-22.40887158960666
 20
61.87092419662573
 11
-22.14770403768236
 21
58.88231389920958
  0
LINE
  5
180
100
AcDbEntity
  8
collusion
  6
ByLayer
 62
  256
370
   -1
100
AcDbLine
 10
-4.477209805109766
 20
63.43792950817195
 11
-4.216042253185464
 21
60.4493192107558
  0
LINE
  5
181
100
AcDbEntity
  8
collusion
  6
ByLayer
 62
  256
370
   -1
100
AcDbLine
 10
-22.40880304713178
 20
61.87013984671381
 11
-4.477141262634888
 21
63.43714515826002
  0
LINE
  5
182
100
AcDbEntity
  8
collusion
  6
ByLayer
 62
  256
370
   -1
100
AcDbLine
 10
-22.14770403768236
 20
58.88231389920958
 11
-4.216042253185464
 21
60.4493192107558
  0
CIRCLE
  5
183
100
AcDbEntity
  8
collusion
  6
ByLayer
 62
  256
370
   -1
100
AcDbCircle
 10
-12.44189841498147
 20
51.19808737897029
 40
8.499999999999993
  0
LINE
  5
184
100
AcDbEntity
  8
associate
  6
ByLayer
 62
  256
370
   -1
100
AcDbLine
 10
-184.6407306443976
 20
5.122642063816846
 11
-10.94573064439758
 21
19.98764206381685
  0
LINE
  5
185
100
AcDbEntity
  8
associate
  6
ByLayer
 62
  256
370
   -1
100
AcDbLine
 10
-20.90931000622909
 20
19.13494850779264
 11
-0.9821512825660701
 21
20.84033561984106
  0
LINE
  5
186
100
AcDbEntity
  8
associate
  6
ByLayer
 62
  256
370
   -1
100
AcDbLine
 10
-10.94573064439758
 20
19.98764206381685
 11
8.98142807926544
 21
21.69302917586527
  0
LINE
  5
187
100
AcDbEntity
  8
associate
  6
ByLayer
 62
  256
370
   -1
100
AcDbLine
 10
-9.876037069752272
 20
6.826205073510939
 11
-183.4280370697522
 21
-8.336794926489056
  0
LINE
  5
188
100
AcDbEntity
  8
associate
  6
ByLayer
 62
  256
370
   -1
100
AcDbLine
 10
0.0860136653571324
 20
7.696575771033662
 11
-19.83808780486168
 21
5.955834375988217
  0
LINE
  5
189
100
AcDbEntity
  8
associate
  6
ByLayer
 62
  256
370
   -1
100
AcDbLine
 10
10.04806440046654
 20
8.566946468556385
 11
-9.876037069752272
 21
6.826205073510939
  0
LINE
  5
18A
100
AcDbEntity
  8
associate
  6
ByLayer
 62
  256
370
   -1
100
AcDbLine
 10
-17.81970269626861
 20
-15.79892679805542
 11
2.105040622690103
 21
-14.06554753384045
  0
LINE
  5
18B
100
AcDbEntity
  8
associate
  6
ByLayer
 62
  256
370
   -1
100
AcDbLine
 10
0.8700949205565638
 20
-9.962074825518108
 11
-0.8700949205565638
 21
9.962074825518108
  0
LINE
  5
18C
100
AcDbEntity
  8
associate
  6
ByLayer
 62
  256
370
   -1
100
AcDbLine
 10
0.8667195127843437
 20
-9.898607081564327
 11
-0.8778007928591094
 21
10.02516386931738
  0
LINE
  5
18D
100
AcDbEntity
  8
associate
  6
ByLayer
 62
  256
370
   -1
100
AcDbLine
 10
8.795891643505577
 20
-19.24259114311448
 11
7.051371337862123
 21
0.6811798077672172
  0
LINE
  5
18E
100
AcDbEntity
  8
associate
  6
ByLayer
 62
  256
370
   -1
100
AcDbLine
 10
-179.6079739210724
 20
36.88115098209138
 11
-239.3839150448616
 21
31.70072023115205
  0
LINE
  5
18F
100
AcDbEntity
  8
board
  6
ByLayer
 62
  256
370
   -1
100
AcDbLine
 10
-209.495944482967
 20
34.29093560662172
 11
-202.3169133025011
 21
34.91266108987961
  0
LINE
  5
190
100
AcDbEntity
  8
board
  6
ByLayer
 62
  256
370
   -1
100
AcDbLine
 10
-202.3169133025011
 20
34.91266108987961
 11
-194.6419719079056
 21
35.57780331373658
  0
LINE
  5
191
100
AcDbEntity
  8
associate
  6
ByLayer
 62
  256
370
   -1
100
AcDbLine
 10
-12.84513937854973
 20
46.48328309604401
 11
-186.9241393785497
 21
31.43228309604402
  0
LINE
  5
192
100
AcDbEntity
  8
associate
  6
ByLayer
 62
  256
370
   -1
100
AcDbLine
 10
17.04335350277099
 20
49.06746445253594
 11
-42.73363225987045
 21
43.89910173955209
  0
LINE
  5
193
100
AcDbEntity
  8
associate
  6
ByLayer
 62
  256
370
   -1
100
AcDbLine
 10
-189.4338123237243
 20
60.32348497916814
 11
-184.2421876762757
 21
0.5485150208318608
  0
LINE
  5
194
100
AcDbEntity
  8
associate
  6
ByLayer
 62
  256
370
   -1
100
AcDbLine
 10
-10.64858210681136
 20
15.56132312685125
 11
-14.86941789318864
 21
75.41267687314873
  0
LINE
  5
195
100
AcDbEntity
  8
board
  6
ByLayer
 62
  256
370
   -1
100
AcDbLine
 10
-194.6419719079056
 20
35.57780331373658
 11
-187.3395456589258
 21
36.21066183148607
  0
LINE
  5
196
100
AcDbEntity
  8
board
  6
ByLayer
 62
  256
370
   -1
100
AcDbLine
 10
-187.3395456589258
 20
36.21066183148607
 11
-186.9241393785497
 21
31.43228309604402
  0
LINE
  5
197
100
AcDbEntity
  8
board
  6
ByLayer
 62
  256
370
   -1
100
AcDbLine
 10
-186.9241393785497
 20
31.43228309604402
 11
-12.8293560902342
 21
46.4846477309077
  0
LINE
  5
198
100
AcDbEntity
  8
board
  6
ByLayer
 62
  256
370
   -1
100
AcDbLine
 10
-4.55984882837254
 20
52.20758580252542
 11
-1.813992423002733
 21
20.76914578390686
  0
LINE
  5
199
100
AcDbEntity
  8
associate
  6
ByLayer
 62
  256
370
   -1
100
AcDbLine
 10
-190.4300618230299
 20
60.23695790171067
 11
-185.2384371755813
 21
0.4619879433743868
  0
LINE
  5
19A
100
AcDbEntity
  8
associate
  6
ByLayer
 62
  256
370
   -1
100
AcDbLine
 10
-214.5302109390912
 20
2.564669038798155
 11
-154.7487347681022
 21
7.680830374943425
  0
LINE
  5
19B
100
AcDbEntity
  8
board
  6
ByLayer
 62
  256
370
   -1
100
AcDbLine
 10
-1.813992423002733
 20
20.76914578390686
 11
-191.919207673767
 21
4.499742377345869
  0
LINE
  5
19C
100
AcDbEntity
  8
board
  6
ByLayer
 62
  256
370
   -1
100
AcDbLine
 10
-191.919207673767
 20
4.499742377345869
 11
-194.226187411059
 21
30.80094258433786
  0
LINE
  5
19D
100
AcDbEntity
  8
board
  6
ByLayer
 62
  256
370
   -1
100
AcDbLine
 10
-194.226187411059
 20
30.80094258433786
 11
-186.9245270840093
 21
31.43224957474121
  0
LINE
  5
19E
100
AcDbEntity
  8
board
  6
ByLayer
 62
  256
370
   -1
100
AcDbLine
 10
-194.226742395354
 20
30.80731868230271
 11
-194.6419719079056
 21
35.57780331373658
  0
LINE
  5
19F
100
AcDbEntity
  8
board
  6
ByLayer
 62
  256
370
   -1
100
AcDbLine
 10
-198.3648927614734
 20
35.25515956592512
 11
-195.6557098061485
 21
4.179968611849734
  0
LINE
  5
1A0
100
AcDbEntity
  8
board
  6
ByLayer
 62
  256
370
   -1
100
AcDbLine
 10
-195.6557098061485
 20
4.179968611849734
 11
-194.9058010037406
 21
-4.427216142975785
  0
LINE
  5
1A1
100
AcDbEntity
  8
board
  6
ByLayer
 62
  256
370
   -1
100
AcDbLine
 10
-194.9058010037406
 20
-4.427216142975785
 11
-194.0364419098327
 21
-14.4054085785456
  0
LINE
  5
1A2
100
AcDbEntity
  8
associate
  6
ByLayer
 62
  256
370
   -1
100
AcDbLine
 10
-153.541884864424
 20
-5.725682833920888
 11
-213.3141892750804
 21
-10.94790701905722
  0
LINE
  5
1A3
100
AcDbEntity
  8
board
  6
ByLayer
 62
  256
370
   -1
100
AcDbLine
 10
-190.7357307166731
 20
-8.975258088931794
 11
-0.6681409488165289
 21
7.630686317643812
  0
LINE
  5
1A4
100
AcDbEntity
  8
board
  6
ByLayer
 62
  256
370
   -1
100
AcDbLine
 10
-190.7357307166731
 20
-8.975258088931795
 11
-191.919207673767
 21
4.499742377345869
  0
LINE
  5
1A5
100
AcDbEntity
  8
board
  6
ByLayer
 62
  256
370
   -1
100
AcDbLine
 10
-190.7357307166731
 20
-8.975258088931795
 11
-205.5102366487652
 21
-10.2660863908143
  0
LINE
  5
1A6
100
AcDbEntity
  8
board
  6
ByLayer
 62
  256
370
   -1
100
AcDbLine
 10
-191.9192076737669
 20
4.49974237734587
 11
-206.7177785560752
 21
3.233265183612529
  0
LINE
  5
1A7
100
AcDbEntity
  8
board
  6
ByLayer
 62
  256
370
   -1
100
AcDbLine
 10
-199.6142949303268
 20
3.841188751341882
 11
-202.3169133025011
 21
34.91266108987961
  0
LINE
  5
1A8
100
AcDbEntity
  8
board
  6
ByLayer
 62
  256
370
   -1
100
AcDbLine
 10
-1.237239054974979
 20
14.02988064703632
 11
-191.3424543057392
 21
-2.239522759524667
  0
LINE
  5
1A9
100
AcDbEntity
  8
board
  6
ByLayer
 62
  256
370
   -1
100
AcDbLine
 10
-0.6681409488165289
 20
7.630686317643812
 11
-1.813992423002733
 21
20.76914578390686
  0
LINE
  5
1AA
100
AcDbEntity
  8
board
  6
ByLayer
 62
  256
370
   -1
100
AcDbLine
 10
-0.6681409488165375
 20
7.630686317643811
 11
6.391060626008329
 21
8.247439068859984
  0
LINE
  5
1AB
100
AcDbEntity
  8
board
  6
ByLayer
 62
  256
370
   -1
100
AcDbLine
 10
6.391060626008329
 20
8.247439068859984
 11
5.245556657146976
 21
21.37330938721395
  0
LINE
  5
1AC
100
AcDbEntity
  8
board
  6
ByLayer
 62
  256
370
   -1
100
AcDbLine
 10
5.245556657146976
 20
21.37330938721395
 11
-1.813992423002726
 21
20.76914578390678
  0
LINE
  5
1AD
100
AcDbEntity
  8
board
  6
ByLayer
 62
  256
370
   -1
100
AcDbLine
 10
-4.55984882837254
 20
52.20758580252542
 11
2.500976639097585
 21
52.82235048575443
  0
LINE
  5
1AE
100
AcDbEntity
  8
board
  6
ByLayer
 62
  256
370
   -1
100
AcDbLine
 10
2.500976639097585
 20
52.82235048575443
 11
1.165641700648462
 21
68.12341771040393
  0
LINE
  5
1AF
100
AcDbEntity
  8
board
  6
ByLayer
 62
  256
370
   -1
100
AcDbLine
 10
1.165641700648462
 20
68.12341771040393
 11
-5.896247173540348
 21
67.50856043957344
  0
LINE
  5
1B0
100
AcDbEntity
  8
board
  6
ByLayer
 62
  256
370
   -1
100
AcDbLine
 10
-5.896247173540348
 20
67.50856043957344
 11
-4.559848828380836
 21
52.2075858025247
  0
LINE
  5
1B1
100
AcDbEntity
  8
associate
  6
ByLayer
 62
  256
370
   -1
100
AcDbLine
 10
-189.5692859209679
 20
61.82076675999161
 11
-16.00928592096793
 21
76.92776675999157
  0
LINE
  5
1B2
100
AcDbEntity
  8
associate
  6
ByLayer
 62
  256
370
   -1
100
AcDbLine
 10
-16.00928592096793
 20
76.92776675999157
 11
-189.5692859209679
 21
61.82076675999161
  0
LINE
  5
1B3
100
AcDbEntity
  8
board
  6
ByLayer
 62
  256
370
   -1
100
AcDbLine
 10
-189.5692859209679
 20
61.82076675999161
 11
-16.00928592096793
 21
76.92776675999157
  0
LINE
  5
1B4
100
AcDbEntity
  8
board
  6
ByLayer
 62
  256
370
   -1
100
AcDbLine
 10
-189.5692859209679
 20
61.82076675999161
 11
-188.6759114296964
 21
51.59721791473785
  0
LINE
  5
1B5
100
AcDbEntity
  8
board
  6
ByLayer
 62
  256
370
   -1
100
AcDbLine
 10
-195.9814032692279
 20
50.96624881411207
 11
-188.6759114296935
 21
51.59721791470557
  0
LINE
  5
1B6
100
AcDbEntity
  8
board
  6
ByLayer
 62
  256
370
   -1
100
AcDbLine
 10
-195.655081036238
 20
47.21720123845485
 11
-14.57014515333696
 21
63.00662557115551
  0
LINE
  5
1B7
100
AcDbEntity
  8
board
  6
ByLayer
 62
  256
370
   -1
100
AcDbLine
 10
-14.15988786732441
 20
59.03811204503884
 11
-195.3096511039595
 21
43.24862932012973
  0
LINE
  5
1B8
100
AcDbEntity
  8
board
  6
ByLayer
 62
  256
370
   -1
100
AcDbLine
 10
-194.9676008569385
 20
39.31888589566926
 11
-13.78480303910146
 21
55.40982983045222
  0
LINE
  5
1B9
100
AcDbEntity
  8
board
  6
ByLayer
 62
  256
370
   -1
100
AcDbLine
 10
-13.37399792464341
 20
51.43601703319505
 11
-4.55984882837254
 21
52.20758580252542
  0
LINE
  5
1BA
100
AcDbEntity
  8
board
  6
ByLayer
 62
  256
370
   -1
100
AcDbLine
 10
-14.57014515333696
 20
63.00662557115551
 11
-5.571536863591012
 21
63.79081846921055
  0
LINE
  5
1BB
100
AcDbEntity
  8
board
  6
ByLayer
 62
  256
370
   -1
100
AcDbLine
 10
-5.571536863591012
 20
63.79081846921055
 11
1.490045281846655
 21
64.40620724813927
  0
LINE
  5
1BC
100
AcDbEntity
  8
board
  6
ByLayer
 62
  256
370
   -1
100
AcDbLine
 10
-14.9540191736076
 20
66.71992767134597
 11
-5.896247173540348
 21
67.50856043957344
  0
LINE
  5
1BD
100
AcDbEntity
  8
board
  6
ByLayer
 62
  256
370
   -1
100
AcDbLine
 10
-14.9540191736076
 20
66.71992767134596
 11
-188.6759114296964
 21
51.59721791473785
  0
LINE
  5
1BE
100
AcDbEntity
  8
board
  6
ByLayer
 62
  256
370
   -1
100
AcDbLine
 10
-14.15988786732441
 20
59.03811204503884
 11
-13.78480303910146
 21
55.40982983045222
  0
LINE
  5
1BF
100
AcDbEntity
  8
board
  6
ByLayer
 62
  256
370
   -1
100
AcDbLine
 10
-13.78480303910145
 20
55.40982983045222
 11
-13.37399792464341
 21
51.43601703319505
  0
LINE
  5
1C0
100
AcDbEntity
  8
board
  6
ByLayer
 62
  256
370
   -1
100
AcDbLine
 10
-13.37399792464341
 20
51.43601703319505
 11
-12.8293560902342
 21
46.4846477309077
  0
LINE
  5
1C1
100
AcDbEntity
  8
board
  6
ByLayer
 62
  256
370
   -1
100
AcDbLine
 10
-14.15988786732432
 20
59.03811204503885
 11
-14.57014515333696
 21
63.00662557115551
  0
LINE
  5
1C2
100
AcDbEntity
  8
board
  6
ByLayer
 62
  256
370
   -1
100
AcDbLine
 10
-14.57014515333696
 20
63.00662557115551
 11
-14.9540191736076
 21
66.71992767134596
  0
LINE
  5
1C3
100
AcDbEntity
  8
board
  6
ByLayer
 62
  256
370
   -1
100
AcDbLine
 10
5.245556657146976
 20
21.37330938721395
 11
2.500976639097585
 21
52.82235048575442
  0
LINE
  5
1C4
100
AcDbEntity
  8
board
  6
ByLayer
 62
  256
370
   -1
100
AcDbLine
 10
-14.15988786732441
 20
59.03811204503884
 11
-4.559848828380836
 21
52.2075858025247
  0
LINE
  5
1C5
100
AcDbEntity
  8
board
  6
ByLayer
 62
  256
370
   -1
100
AcDbLine
 10
-14.95401917425437
 20
66.71992767128965
 11
-16.00928592096793
 21
76.92776675999157
  0
ARC
  5
1C6
100
AcDbEntity
  8
ref_line
  6
ByLayer
 62
  256
370
   -1
100
AcDbCircle
 10
-352.4850097384602
 20
570.5093292060726
 40
8.00000000086694
100
AcDbArc
 50
278.2349341446213
 51
98.24303556271663
  0
LINE
  5
1C7
100
AcDbEntity
  8
associate
  6
ByLayer
 62
  256
370
   -1
100
AcDbLine
 10
-346.5628660452429
 20
583.9969140491011
 11
-360.7011106554245
 21
572.8564455067698
  0
LINE
  5
1C8
100
AcDbEntity
  8
board
  6
ByLayer
 62
  256
370
   -1
100
AcDbLine
 10
-449.8269999999996
 20
532.5860000000001
 11
-456.603
 21
522.3480000000002
  0
LINE
  5
1C9
100
AcDbEntity
  8
board
  6
ByLayer
 62
  256
370
   -1
100
AcDbLine
 10
-469.2550311378144
 20
566.8582737749001
 11
-461.499
 21
487.436
  0
LINE
  5
1CA
100
AcDbEntity
  8
board
  6
ByLayer
 62
  256
370
   -1
100
AcDbLine
 10
-461.499
 20
487.436
 11
-464.4877089988796
 21
487.1759643870227
  0
LINE
  5
1CB
100
AcDbEntity
  8
board
  6
ByLayer
 62
  256
370
   -1
100
AcDbLine
 10
-464.4877089988796
 20
487.1759643870227
 11
-426.0854827309564
 21
45.10913380466469
  0
LINE
  5
1CC
100
AcDbEntity
  8
board
  6
ByLayer
 62
  256
370
   -1
100
AcDbLine
 10
-426.0854827309564
 20
45.10913380466469
 11
-423.5293545620928
 21
15.69047969206668
  0
LINE
  5
1CD
100
AcDbEntity
  8
board
  6
ByLayer
 62
  256
370
   -1
100
AcDbLine
 10
-423.5293545620928
 20
15.69047969206668
 11
-218.075
 21
33.547
  0
LINE
  5
1CE
100
AcDbEntity
  8
board
  6
ByLayer
 62
  256
370
   -1
100
AcDbLine
 10
-218.075
 20
33.547
 11
-209.495944482967
 21
34.29093560662172
  0
LINE
  5
1CF
100
AcDbEntity
  8
associate
  6
ByLayer
 62
  256
370
   -1
100
AcDbLine
 10
-180.3663083547818
 20
44.55112979252792
 11
-210.2529938531372
 21
41.94612884773155
  0
LINE
  5
1D0
100
AcDbEntity
  8
associate
  6
ByLayer
 62
  256
370
   -1
100
AcDbLine
 10
-200.5838428714116
 20
14.98789090598833
 11
-204.0499837335906
 21
54.8374312737709
  0
LINE
  5
1D1
100
AcDbEntity
  8
board
  6
ByLayer
 62
  256
370
   -1
100
AcDbLine
 10
-202.3169133025011
 20
34.91266108987961
 11
-202.9838003639634
 21
42.57973058681524
  0
LINE
  5
1D2
100
AcDbEntity
  8
board
  6
ByLayer
 62
  256
370
   -1
100
AcDbLine
 10
-202.9838003639634
 20
42.57973058681524
 11
-195.3096511039595
 21
43.24862932012973
  0
LINE
  5
1D3
100
AcDbEntity
  8
board
  6
ByLayer
 62
  256
370
   -1
100
AcDbLine
 10
-202.9838003639634
 20
42.57973058681524
 11
-203.6552398691707
 21
50.29913863489499
  0
LINE
  5
1D4
100
AcDbEntity
  8
associate
  6
ByLayer
 62
  256
370
   -1
100
AcDbLine
 10
-213.0858100137771
 20
69.56339979929534
 11
-209.5973241836509
 21
29.71580932492652
  0
LINE
  5
1D5
100
AcDbEntity
  8
board
  6
ByLayer
 62
  256
370
   -1
100
AcDbLine
 10
-211.3408145093147
 20
49.63100803179994
 11
-210.664553021139
 21
41.90634118588628
  0
LINE
  5
1D6
100
AcDbEntity
  8
board
  6
ByLayer
 62
  256
370
   -1
100
AcDbLine
 10
-210.664553021139
 20
41.90634118588628
 11
-209.9940775163278
 21
34.24776533384028
  0
LINE
  5
1D7
100
AcDbEntity
  8
board
  6
ByLayer
 62
  256
370
   -1
100
AcDbLine
 10
-210.664553021139
 20
41.90634118588628
 11
-202.9838003639634
 21
42.57973058681524
  0
LINE
  5
1D8
100
AcDbEntity
  8
board
  6
ByLayer
 62
  256
370
   -1
100
AcDbLine
 10
-400.5462998024449
 20
33.182794213474
 11
-411.0576308837083
 21
32.26824534908237
  0
LINE
  5
1D9
100
AcDbEntity
  8
board
  6
ByLayer
 62
  256
370
   -1
100
AcDbLine
 10
-444.3619782173701
 20
415.3398809228815
 11
-450.3759999999996
 21
444.9299999999977
  0
LINE
  5
1DA
100
AcDbEntity
  8
board
  6
ByLayer
 62
  256
370
   -1
100
AcDbLine
 10
-450.3759999999996
 20
444.9299999999977
 11
-453.0395814810028
 21
481.9366142375098
  0
LINE
  5
1DB
100
AcDbEntity
  8
board
  6
ByLayer
 62
  256
370
   -1
100
AcDbLine
 10
-453.0395814810028
 20
481.9366142375098
 11
-456.603
 21
522.3480000000001
  0
ARC
  5
1DC
100
AcDbEntity
  8
board
  6
ByLayer
 62
  256
370
   -1
100
AcDbCircle
 10
-352.4850097384602
 20
570.5093292060726
 40
13.06266602686491
100
AcDbArc
 50
278.2349341446213
 51
98.24303556271663
  0
LINE
  5
1DD
100
AcDbEntity
  8
board
  6
ByLayer
 62
  256
370
   -1
100
AcDbLine
 10
-354.3578345566148
 20
583.4370424969031
 11
-469.2550311378144
 21
566.8582737749001
  0
LINE
  5
1DE
100
AcDbEntity
  8
board
  6
ByLayer
 62
  256
370
   -1
100
AcDbLine
 10
-350.6140129290216
 20
557.5813512254109
 11
-450.9219092720414
 21
543.0648123062141
  0
LINE
  5
1DF
100
AcDbEntity
  8
associate
  6
ByLayer
 62
  256
370
   -1
100
AcDbLine
 10
-449.8269999999997
 20
532.586
 11
-450.9219092720414
 21
543.0648123062141
  0
LINE
  5
1E0
100
AcDbEntity
  8
board
  6
ByLayer
 62
  256
370
   -1
100
AcDbLine
 10
-449.8269999999996
 20
532.5860000000001
 11
-450.9219092720414
 21
543.0648123062141
  0
LINE
  5
1E1
100
AcDbEntity
  8
board
  6
ByLayer
 62
  256
370
   -1
100
AcDbLine
 10
-450.9219092720413
 20
543.064812306214
 11
-451.8228200422186
 21
551.6869649414999
  0
LINE
  5
1E2
100
AcDbEntity
  8
board
  6
ByLayer
 62
  256
370
   -1
100
AcDbLine
 10
-451.822820042219
 20
551.6869649415
 11
-452.6568712064045
 21
559.6692387485185
  0
LINE
  5
1E3
100
AcDbEntity
  8
board
  6
ByLayer
 62
  256
370
   -1
100
AcDbLine
 10
-452.6568712064045
 20
559.6692387485185
 11
-453.6437449401906
 21
569.1140986016028
  0
LINE
  5
1E4
100
AcDbEntity
  8
associate
  6
ByLayer
 62
  256
370
   -1
100
AcDbLine
 10
-341.1173311811993
 20
547.7420890187452
 11
-368.9780604231259
 21
558.8677245560102
  0
LINE
  5
1E5
100
AcDbEntity
  8
associate
  6
ByLayer
 62
  256
370
   -1
100
AcDbLine
 10
-350.4042409285082
 20
551.4506341978336
 11
-387.5518799177436
 21
566.2848149141869
  0
LINE
  5
1E6
100
AcDbEntity
  8
board
  6
ByLayer
 62
  256
370
   -1
100
AcDbLine
 10
-451.8228200422186
 20
551.6869649414999
 11
-377.8164319329193
 21
562.3971547912007
  0
LINE
  5
1E7
100
AcDbEntity
  8
board
  6
ByLayer
 62
  256
370
   -1
100
AcDbLine
 10
-377.8164319329193
 20
562.3971547912007
 11
-361.7287021914523
 21
555.9728355936893
  0
LINE
  5
1E8
100
AcDbEntity
  8
associate
  6
ByLayer
 62
  256
370
   -1
100
AcDbLine
 10
-352.7520152354269
 20
591.8514943880908
 11
-366.8902598456085
 21
580.7110258457595
  0
LINE
  5
1E9
100
AcDbEntity
  8
associate
  6
ByLayer
 62
  256
370
   -1
100
AcDbLine
 10
-351.181099167629
 20
593.0893242261276
 11
-382.599420523588
 21
568.3327274653915
  0
LINE
  5
1EA
100
AcDbEntity
  8
associate
  6
ByLayer
 62
  256
370
   -1
100
AcDbLine
 10
-370.548795688547
 20
577.8282207597663
 11
-453.304041916213
 21
565.8629760483381
  0
ARC
  5
1EB
100
AcDbEntity
  8
associate
  6
ByLayer
 62
  256
370
   -1
100
AcDbCircle
 10
-352.4850097384602
 20
570.5093292060726
 40
5.099897027544584
100
AcDbArc
 50
278.2349341446213
 51
98.24303556271663
  0
LINE
  5
1EC
100
AcDbEntity
  8
board
  6
ByLayer
 62
  256
370
   -1
100
AcDbLine
 10
-377.8164319329193
 20
562.3971547912007
 11
-351.7545393014717
 21
565.4620167893261
  0
LINE
  5
1ED
100
AcDbEntity
  8
board
  6
ByLayer
 62
  256
370
   -1
100
AcDbLine
 10
-452.8103328211338
 20
561.1392545341542
 11
-353.2161938400499
 21
575.5565382864596
  0
LINE
  5
1EE
100
AcDbEntity
  8
board
  6
ByLayer
 62
  256
370
   -1
100
AcDbLine
 10
-452.6568712064046
 20
559.6692387485185
 11
-353.0042694282371
 21
574.08259258244
  0
LINE
  5
1EF
100
AcDbEntity
  8
board
  6
ByLayer
 62
  256
370
   -1
100
AcDbLine
 10
-452.1615556448073
 20
554.9288288032778
 11
-352.3235474394129
 21
569.3717011768857
  0
ARC
  5
1F0
100
AcDbEntity
  8
board
  6
ByLayer
 62
  256
370
   -1
100
AcDbCircle
 10
-352.4850097384591
 20
570.5093292060719
 40
5.0998970275447
100
AcDbArc
 50
278.2349341450112
 51
98.24303548466037
  0
LINE
  5
1F1
100
AcDbEntity
  8
associate
  6
ByLayer
 62
  256
370
   -1
100
AcDbLine
 10
-434.3997157596361
 20
416.2078248860639
 11
-474.2487655905719
 21
412.7360490333344
  0
LINE
  5
1F2
100
AcDbEntity
  8
board
  6
ByLayer
 62
  256
370
   -1
100
AcDbLine
 10
-457.308
 20
444
 11
-458.149721128291
 21
414.1386489460875
  0
LINE
  5
1F3
100
AcDbEntity
  8
ref_line
  6
ByLayer
 62
  256
370
   -1
100
AcDbLine
 10
-453.1416048988262
 20
414.5749719466831
 11
-459.5350957956289
 21
487.6068714477733
  0
LINE
  5
1F4
100
AcDbEntity
  8
board
  6
ByLayer
 62
  256
370
   -1
100
AcDbLine
 10
-461.499
 20
487.436
 11
-457.308
 21
444
  0
LINE
  5
1F5
100
AcDbEntity
  8
associate
  6
ByLayer
 62
  256
370
   -1
100
AcDbLine
 10
-391.1329042245114
 20
34.00181610226352
 11
-430.9823575429054
 21
30.53467459590121
  0
LINE
  5
1F6
100
AcDbEntity
  8
associate
  6
ByLayer
 62
  256
370
   -1
100
AcDbLine
 10
-417.3590936510934
 20
65.95950699100564
 11
-413.8869063489066
 21
26.11049300899433
  0
LINE
  5
1F7
100
AcDbEntity
  8
associate
  6
ByLayer
 62
  256
370
   -1
100
AcDbLine
 10
-420.8140936510933
 20
65.64250699100566
 11
-417.3419063489066
 21
25.79349300899435
  0
LINE
  5
1F8
100
AcDbEntity
  8
associate
  6
ByLayer
 62
  256
370
   -1
100
AcDbLine
 10
-424.3270936510932
 20
65.41650699100565
 11
-420.8549063489064
 21
25.56749300899433
  0
LINE
  5
1F9
100
AcDbEntity
  8
associate
  6
ByLayer
 62
  256
370
   -1
100
AcDbLine
 10
-396.5663443581969
 20
37.74442026295919
 11
-436.4154284353552
 21
34.2730375108603
  0
LINE
  5
1FA
100
AcDbEntity
  8
board
  6
ByLayer
 62
  256
370
   -1
100
AcDbLine
 10
-447.77597821737
 20
415.0428809228817
 11
-414.7624944293869
 21
36.15929470801729
  0
LINE
  5
1FB
100
AcDbEntity
  8
board
  6
ByLayer
 62
  256
370
   -1
100
AcDbLine
 10
-411.4212253184919
 20
36.45036347986719
 11
-444.3619782173701
 21
415.3398809228815
  0
LINE
  5
1FC
100
AcDbEntity
  8
associate
  6
ByLayer
 62
  256
370
   -1
100
AcDbLine
 10
-411.0576308837083
 20
32.26824534908237
 11
-411.4212253184919
 21
36.45036347986719
  0
LINE
  5
1FD
100
AcDbEntity
  8
board
  6
ByLayer
 62
  256
370
   -1
100
AcDbLine
 10
-411.0576308837083
 20
32.26824534908237
 11
-411.4212253184919
 21
36.45036347986719
  0
LINE
  5
1FE
100
AcDbEntity
  8
board
  6
ByLayer
 62
  256
370
   -1
100
AcDbLine
 10
-418.2187245692118
 20
35.85821130867387
 11
-425.2286298871722
 21
35.24755575715613
  0
LINE
  5
1FF
100
AcDbEntity
  8
board
  6
ByLayer
 62
  256
370
   -1
100
AcDbLine
 10
-418.2188801191056
 20
35.85819775821893
 11
-411.4212253184919
 21
36.45036347986719
  0
LINE
  5
200
100
AcDbEntity
  8
board
  6
ByLayer
 62
  256
370
   -1
100
AcDbLine
 10
-400.2169999999998
 20
29.398
 11
-211.0111146614598
 21
45.86497739371345
  0
LINE
  5
201
100
AcDbEntity
  8
board
  6
ByLayer
 62
  256
370
   -1
100
AcDbLine
 10
-210.664553021139
 20
41.90634118588628
 11
-399.892
 21
25.412
  0
ARC
  5
202
100
AcDbEntity
  8
board
  6
ByLayer
 62
  256
370
   -1
100
AcDbCircle
 10
-406.5286824462069
 20
36.87734413388174
 40
11.73438181825227
100
AcDbArc
 50
184.9830783437509
 51
274.9786524070798
  0
LINE
  5
203
100
AcDbEntity
  8
board
  6
ByLayer
 62
  256
370
   -1
100
AcDbLine
 10
-399.892
 20
25.412
 11
-405.5103191808634
 21
25.18723494207655
  0
LINE
  5
204
100
AcDbEntity
  8
board
  6
ByLayer
 62
  256
370
   -1
100
AcDbLine
 10
-370.3942299072568
 20
576.3489513331006
 11
-365.4645621890952
 21
581.834428384843
  0
LWPOLYLINE
  5
205
100
AcDbEntity
  8
appendix_stopline
  6
ByLayer
 62
  256
370
   -1
100
AcDbPolyline
 90
    5
 70
    0
 43
0
 10
-11.82134735987937
 20
59.24190654288826
 10
-11.158
 20
51.63000000000001
 10
-10.16180945380735
 20
51.71720405172968
 10
-10.82512308200024
 20
59.32872352373996
 10
-11.82134735987937
 20
59.24190654288826
  0
LWPOLYLINE
  5
206
100
AcDbEntity
  8
appendix_stopline
  6
ByLayer
 62
  256
370
   -1
100
AcDbPolyline
 90
    5
 70
    0
 43
0
 10
-4.264379013700911
 20
48.83048679374522
 10
-4.177438755916226
 20
47.83427326664557
 10
2.882519771807928
 20
48.45040083132189
 10
2.795579514023244
 20
49.44661435842155
 10
-4.264379013700911
 20
48.83048679374522
  0
LWPOLYLINE
  5
207
100
AcDbEntity
  8
appendix_stopline
  6
ByLayer
 62
  256
370
   -1
100
AcDbPolyline
 90
    5
 70
    0
 43
0
 10
-185.761494000426
 20
51.8489336629157
 10
-185.2528250109402
 20
44.14908150834464
 10
-184.255
 20
44.215
 10
-184.7649999999961
 20
51.93500000000034
 10
-185.761494000426
 20
51.84893366291569
  0
LWPOLYLINE
  5
208
100
AcDbEntity
  8
appendix_stopline
  6
ByLayer
 62
  256
370
   -1
100
AcDbPolyline
 90
    5
 70
    0
 43
0
 10
-218.676
 20
41.206
 10
-218.0750000000474
 20
33.54699999999588
 10
-217.0787052914654
 20
33.6333940216841
 10
-217.6790646072135
 20
41.28422929508615
 10
-218.676
 20
41.20600000000002
  0
LWPOLYLINE
  5
209
100
AcDbEntity
  8
appendix_stopline
  6
ByLayer
 62
  256
370
   -1
100
AcDbPolyline
 90
    5
 70
    0
 43
0
 10
-401.5425361355366
 20
33.09611567580347
 10
-400.8886924736719
 20
25.33073430658726
 10
-399.8920000000001
 20
25.412
 10
-400.5462998024122
 20
33.18279421347685
 10
-401.5425361355366
 20
33.09611567580348
  0
LWPOLYLINE
  5
20A
100
AcDbEntity
  8
appendix_stopline
  6
ByLayer
 62
  256
370
   -1
100
AcDbPolyline
 90
    5
 70
    0
 43
0
 10
-426.0854827309564
 20
45.10913380466469
 10
-425.9989208619762
 20
44.11288732771301
 10
-418.9914381310198
 20
44.72175352304831
 10
-419.078
 20
45.718
 10
-426.0854827309303
 20
45.10913380436357
  0
LWPOLYLINE
  5
20B
100
AcDbEntity
  8
appendix_stopline
  6
ByLayer
 62
  256
370
   -1
100
AcDbPolyline
 90
    5
 70
    0
 43
0
 10
-453.9055777005659
 20
445.7243627611758
 10
-453.833
 20
444.7269999999998
 10
-446.9619999999728
 20
445.226999999689
 10
-447.0345777005657
 20
446.2243627611758
 10
-453.9055777005659
 20
445.7243627611758
  0
LINE
  5
20C
100
AcDbEntity
  8
associate
  6
ByLayer
 62
  256
370
   -1
100
AcDbLine
 10
-171.4152955820762
 20
-0.5341356474762498
 11
-211.2696130294022
 21
-3.944909871573085
  0
LINE
  5
20D
100
AcDbEntity
  8
associate
  6
ByLayer
 62
  256
370
   -1
100
AcDbLine
 10
-197.2927480434122
 20
-22.82184074817027
 11
-200.7624161755175
 21
17.0273926579199
  0
LINE
  5
20E
100
AcDbEntity
  8
board
  6
ByLayer
 62
  256
370
   -1
100
AcDbLine
 10
-191.3274271378349
 20
-2.238236718758393
 11
-199.0275821094649
 21
-2.897224045125185
  0
LINE
  5
20F
100
AcDbEntity
  8
board
  6
ByLayer
 62
  256
370
   -1
100
AcDbLine
 10
-199.6142949303268
 20
3.841188751341882
 11
-199.0275821094649
 21
-2.897224045125186
  0
LINE
  5
210
100
AcDbEntity
  8
board
  6
ByLayer
 62
  256
370
   -1
100
AcDbLine
 10
-199.0275821094649
 20
-2.897224045125186
 11
-198.439762462729
 21
-9.648348767030832
  0
LINE
  5
211
100
AcDbEntity
  8
board
  6
ByLayer
 62
  256
370
   -1
100
AcDbLine
 10
-199.6142949303268
 20
3.841188751341882
 11
-191.3424543057392
 21
-2.239522759524667
  0
LINE
  5
212
100
AcDbEntity
  8
board
  6
ByLayer
 62
  256
370
   -1
100
AcDbLine
 10
-13.37399792464341
 20
51.43601703319505
 11
-187.3395456589258
 21
36.21066183148607
  0
LINE
  5
213
100
AcDbEntity
  8
board
  6
ByLayer
 62
  256
370
   -1
100
AcDbLine
 10
-194.6419719079056
 20
35.57780331373658
 11
-195.3096511039595
 21
43.24862932012974
  0
LINE
  5
214
100
AcDbEntity
  8
board
  6
ByLayer
 62
  256
370
   -1
100
AcDbLine
 10
-195.3096511039595
 20
43.24862932012974
 11
-195.981403269221
 21
50.96624881411267
  0
LINE
  5
215
100
AcDbEntity
  8
board
  6
ByLayer
 62
  256
370
   -1
100
AcDbLine
 10
-400.5462998025767
 20
33.18279421346256
 11
-211.3408145093146
 21
49.63100803179994
  0
LINE
  5
216
100
AcDbEntity
  8
board
  6
ByLayer
 62
  256
370
   -1
100
AcDbLine
 10
-211.3408145093146
 20
49.63100803179994
 11
-195.9814032692279
 21
50.96624881411207
  0
LINE
  5
217
100
AcDbEntity
  8
board
  6
ByLayer
 62
  256
370
   -1
100
AcDbLine
 10
-210.664553021139
 20
41.90634118588628
 11
-202.3169133025011
 21
34.91266108987961
  0
LINE
  5
218
100
AcDbEntity
  8
board
  6
ByLayer
 62
  256
370
   -1
100
AcDbLine
 10
-188.7176180577604
 20
-31.95337258186453
 11
-190.7357307166731
 21
-8.975258088931795
  0
LINE
  5
219
100
AcDbEntity
  8
board
  6
ByLayer
 62
  256
370
   -1
100
AcDbLine
 10
-206.7177785560752
 20
3.233265183612524
 11
-209.495944482967
 21
34.29093560662172
  0
LINE
  5
21A
100
AcDbEntity
  8
board
  6
ByLayer
 62
  256
370
   -1
100
AcDbLine
 10
-206.7177785560752
 20
3.233265183612524
 11
-205.5102366487652
 21
-10.2660863908143
  0
LINE
  5
21B
100
AcDbEntity
  8
associate
  6
ByLayer
 62
  256
370
   -1
100
AcDbLine
 10
-27.28426891522653
 20
-22.38776035442568
 11
12.56521772269089
 21
-18.92100182599576
  0
LINE
  5
21C
100
AcDbEntity
  8
associate
  6
ByLayer
 62
  256
370
   -1
100
AcDbLine
 10
3.797562207987673
 20
-19.68375555494872
 11
-6.925178571789278
 21
-10.68248730154641
  0
LINE
  5
21D
100
AcDbEntity
  8
associate
  6
ByLayer
 62
  256
370
   -1
100
AcDbLine
 10
-5.191799307574321
 20
-30.60723062050511
 11
-8.658557836004235
 21
9.2422560174123
  0
LINE
  5
21E
100
AcDbEntity
  8
associate
  6
ByLayer
 62
  256
370
   -1
100
AcDbLine
 10
12.99859237909243
 20
-8.937966995902956
 11
-26.84894952267098
 21
-12.42700760718986
  0
LINE
  5
21F
100
AcDbEntity
  8
collusion
  6
ByLayer
 62
  256
370
   -1
100
AcDbLine
 10
-16.88738252280291
 20
-11.55110254341664
 11
3.037025379224189
 21
-9.813872059676186
  0
LINE
  5
220
100
AcDbEntity
  8
collusion
  6
ByLayer
 62
  256
370
   -1
100
AcDbLine
 10
-6.054620065374764
 20
-20.64452162626691
 11
-7.7957370782039
 21
-0.7204529768259285
  0
CIRCLE
  5
221
100
AcDbEntity
  8
collusion
  6
ByLayer
 62
  256
370
   -1
100
AcDbCircle
 10
-6.925178571789275
 20
-10.68248730154643
 40
12.37941840314011
  0
CIRCLE
  5
222
100
AcDbEntity
  8
collusion
  6
ByLayer
 62
  256
370
   -1
100
AcDbCircle
 10
-6.925178571789275
 20
-10.68248730154643
 40
14.60246184109528
  0
CIRCLE
  5
223
100
AcDbEntity
  8
collusion
  6
ByLayer
 62
  256
370
   -1
100
AcDbCircle
 10
-6.925178571789275
 20
-10.68248730154641
 40
9.999999999999982
  0
LINE
  5
224
100
AcDbEntity
  8
collusion
  6
ByLayer
 62
  256
370
   -1
100
AcDbLine
 10
1.170093814044491
 20
0.06304967894718239
 11
-16.7615679704524
 21
-1.503955632599039
  0
LINE
  5
225
100
AcDbEntity
  8
collusion
  6
ByLayer
 62
  256
370
   -1
100
AcDbLine
 10
-16.89215174641447
 20
-0.009650483890965234
 11
-16.63098419449017
 21
-2.998260781307113
  0
LINE
  5
226
100
AcDbEntity
  8
collusion
  6
ByLayer
 62
  256
370
   -1
100
AcDbLine
 10
1.039510038082425
 20
1.557354827655256
 11
1.300677590006727
 21
-1.431255469760892
  0
LINE
  5
227
100
AcDbEntity
  8
collusion
  6
ByLayer
 62
  256
370
   -1
100
AcDbLine
 10
-16.89208320393959
 20
-0.01043483380287924
 11
1.039578580557303
 21
1.556570477743325
  0
LINE
  5
228
100
AcDbEntity
  8
collusion
  6
ByLayer
 62
  256
370
   -1
100
AcDbLine
 10
-16.63098419449017
 20
-2.998260781307113
 11
1.300677590006727
 21
-1.431255469760892
  0
CIRCLE
  5
229
100
AcDbEntity
  8
collusion
  6
ByLayer
 62
  256
370
   -1
100
AcDbCircle
 10
-6.925178571789275
 20
-10.68248730154641
 40
8.499999999999993
  0
LINE
  5
22A
100
AcDbEntity
  8
associate
  6
ByLayer
 62
  256
370
   -1
100
AcDbLine
 10
-154.7296228130553
 20
-13.39565342500821
 11
-151.3405381337703
 21
-53.25182114139353
  0
LINE
  5
22B
100
AcDbEntity
  8
associate
  6
ByLayer
 62
  256
370
   -1
100
AcDbLine
 10
-280.3338225027575
 20
-29.00177856767204
 11
-272.6705588941942
 21
-17.28536312327656
  0
LINE
  5
22C
100
AcDbEntity
  8
associate
  6
ByLayer
 62
  256
370
   -1
100
AcDbLine
 10
-281.428574446838
 20
-30.67555220258568
 11
-279.239070558677
 21
-27.3280049327584
  0
LINE
  5
22D
100
AcDbEntity
  8
board
  6
ByLayer
 62
  256
370
   -1
100
AcDbLine
 10
-454.8925883763042
 20
414.4216841779111
 11
-421.3661793952548
 21
31.45448036740482
  0
LINE
  5
22E
100
AcDbEntity
  8
board
  6
ByLayer
 62
  256
370
   -1
100
AcDbLine
 10
-408.7249098125321
 20
20.57505212087037
 11
-218.3417941086274
 21
36.9469601959637
  0
LINE
  5
22F
100
AcDbEntity
  8
board
  6
ByLayer
 62
  256
370
   -1
100
AcDbLine
 10
-218.3417941086274
 20
36.94696019596371
 11
-210.2944396280458
 21
37.64245702742402
  0
LINE
  5
230
100
AcDbEntity
  8
associate
  6
ByLayer
 62
  256
370
   -1
100
AcDbLine
 10
-174.9553235729258
 20
-27.19635027378694
 11
-194.8786737128677
 21
-28.94566991332595
  0
ARC
  5
231
100
AcDbEntity
  8
ref_line
  6
ByLayer
 62
  256
370
   -1
100
AcDbCircle
 10
-184.9169986428968
 20
-28.07101009355645
 40
9.903454224896421
100
AcDbArc
 50
185.0178435409874
 51
274.9720036474354
  0
LINE
  5
232
100
AcDbEntity
  8
ref_line
  6
ByLayer
 62
  256
370
   -1
100
AcDbLine
 10
-172.7768185316148
 20
-37.05262961389387
 11
-184.0586765330199
 21
-37.93719926366236
  0
LINE
  5
233
100
AcDbEntity
  8
ref_line
  6
ByLayer
 62
  256
370
   -1
100
AcDbLine
 10
-194.7824979487717
 20
-28.93722544230079
 11
-196.0433472267808
 21
-14.57716163710065
  0
LINE
  5
234
100
AcDbEntity
  8
board
  6
ByLayer
 62
  256
370
   -1
100
AcDbLine
 10
-173.1464110716541
 20
-32.33882267263875
 11
-184.4282690730592
 21
-33.22339232240724
  0
LINE
  5
235
100
AcDbEntity
  8
board
  6
ByLayer
 62
  256
370
   -1
100
AcDbLine
 10
-184.4282690730592
 20
-33.22339232240724
 11
-188.7176180577604
 21
-31.95337258186453
  0
LINE
  5
236
100
AcDbEntity
  8
associate
  6
ByLayer
 62
  256
370
   -1
100
AcDbLine
 10
-34.03690982428723
 20
52.13118714608274
 11
-24.07623072434293
 21
53.01711709135665
  0
LINE
  5
237
100
AcDbEntity
  8
ref_line
  6
ByLayer
 62
  256
370
   -1
100
AcDbLine
 10
-29.05657027431508
 20
52.5741521187197
 11
-34.03690982428723
 21
52.13118714608274
  0
LINE
  5
238
100
AcDbEntity
  8
associate
  6
ByLayer
 62
  256
370
   -1
100
AcDbLine
 10
-42.22014599114675
 20
46.38360975753005
 11
-25.85367365742771
 21
57.87876453463544
  0
LINE
  5
239
100
AcDbEntity
  8
associate
  6
ByLayer
 62
  256
370
   -1
100
AcDbLine
 10
-24.9677437121538
 20
47.91808543469116
 11
-43.10607593642065
 21
56.34428885747433
  0
LINE
  5
23A
100
AcDbEntity
  8
ref_line
  6
ByLayer
 62
  256
370
   -1
100
AcDbLine
 10
-42.22014599114675
 20
46.38360975753005
 11
-34.03690982428724
 21
52.13118714608274
  0
LINE
  5
23B
100
AcDbEntity
  8
ref_line
  6
ByLayer
 62
  256
370
   -1
100
AcDbLine
 10
-39.72728148903718
 20
54.77466222447367
 11
-34.03690982428725
 21
52.13118714608275
  0
LINE
  5
23C
100
AcDbEntity
  8
ref_line
  6
ByLayer
 62
  256
370
   -1
100
AcDbLine
 10
-185.283200752574
 20
41.82852207744712
 11
-39.72728148903718
 21
54.77466222447367
  0
LINE
  5
23D
100
AcDbEntity
  8
ref_line
  6
ByLayer
 62
  256
370
   -1
100
AcDbLine
 10
-175.308971236083
 20
34.84521209288011
 11
-42.22014599114675
 21
46.38360975753005
  0
LINE
  5
23E
100
AcDbEntity
  8
ref_line
  6
ByLayer
 62
  256
370
   -1
100
AcDbLine
 10
-154.539091945091
 20
59.71996729209661
 11
-35.60044212968763
 21
70.07261872538362
  0
LINE
  5
23F
100
AcDbEntity
  8
ref_line
  6
ByLayer
 62
  256
370
   -1
100
AcDbLine
 10
-35.60044212968763
 20
70.07261872538362
 11
-30.61927592964571
 21
70.50618912054398
  0
LINE
  5
240
100
AcDbEntity
  8
ref_line
  6
ByLayer
 62
  256
370
   -1
100
AcDbLine
 10
-47.50049730256573
 20
58.18234380939485
 11
-35.60229437147773
 21
70.07245750265534
  0
LINE
  5
241
100
AcDbEntity
  8
ref_line
  6
ByLayer
 62
  256
370
   -1
100
AcDbLine
 10
-47.50049730256573
 20
58.18234380939485
 11
-166.4552866156235
 21
47.81433384431606
  0
LINE
  5
242
100
AcDbEntity
  8
ref_line
  6
ByLayer
 62
  256
370
   -1
100
AcDbLine
 10
-16.84235957007606
 20
60.85250497796115
 11
-47.50049730256574
 21
58.18234380939484
  0
LINE
  5
243
100
AcDbEntity
  8
ref_line
  6
ByLayer
 62
  256
370
   -1
100
AcDbLine
 10
-356.2875960421587
 20
561.875654587652
 11
-351.3391506230742
 21
562.5918165346866
  0
LINE
  5
244
100
AcDbEntity
  8
associate
  6
ByLayer
 62
  256
370
   -1
100
AcDbLine
 10
-451.6786388797786
 20
553.3475014744878
 11
-365.9883368937471
 21
565.7494605890166
  0
LINE
  5
245
100
AcDbEntity
  8
ref_line
  6
ByLayer
 62
  256
370
   -1
100
AcDbLine
 10
-358.5804236766963
 20
577.7105192915498
 11
-353.6319782576118
 21
578.4266812385844
  0
LINE
  5
246
100
AcDbEntity
  8
ref_line
  6
ByLayer
 62
  256
370
   -1
100
AcDbLine
 10
-360.6039966801648
 20
576.1160172707416
 11
-358.5804337694439
 21
577.7105178308806
  0
LINE
  5
247
100
AcDbEntity
  8
ref_line
  6
ByLayer
 62
  256
370
   -1
100
AcDbLine
 10
-453.0412736779619
 20
562.7345866498632
 11
-360.6039966801648
 21
576.1160172707416
  0
LINE
  5
248
100
AcDbEntity
  8
ref_line
  6
ByLayer
 62
  256
370
   -1
100
AcDbLine
 10
-462.1059387680547
 20
551.8485608263677
 11
-461.7295463604949
 21
546.8623109647355
  0
LINE
  5
249
100
AcDbEntity
  8
ref_line
  6
ByLayer
 62
  256
370
   -1
100
AcDbLine
 10
-461.7295463604949
 20
546.8623109647355
 11
-464.2821301846076
 21
541.5546499793347
  0
LINE
  5
24A
100
AcDbEntity
  8
ref_line
  6
ByLayer
 62
  256
370
   -1
100
AcDbLine
 10
-464.2821301833326
 20
541.554649981986
 11
-459.5350957956289
 21
487.6068714477733
  0
LINE
  5
24B
100
AcDbEntity
  8
ref_line
  6
ByLayer
 62
  256
370
   -1
100
AcDbLine
 10
-453.1416048988262
 20
414.5749719466831
 11
-420.8370789598126
 21
45.56515713827482
  0
LINE
  5
24C
100
AcDbEntity
  8
ref_line
  6
ByLayer
 62
  256
370
   -1
100
AcDbLine
 10
-420.8370789598126
 20
45.56515713827482
 11
-419.6151962291154
 21
31.60777171024649
  0
LINE
  5
24D
100
AcDbEntity
  8
associate
  6
ByLayer
 62
  256
370
   -1
100
AcDbLine
 10
-181.664
 20
-29.049
 11
-181.329600540356
 21
-32.98043693878333
  0
LINE
  5
24E
100
AcDbEntity
  8
associate
  6
ByLayer
 62
  256
370
   -1
100
AcDbLine
 10
-191.9401907829671
 20
5.769298283155669
 11
-186.9914206195999
 21
-51.08608240442454
  0
LINE
  5
24F
100
AcDbEntity
  8
collusion
  6
ByLayer
 62
  256
370
   -1
100
AcDbLine
 10
-198.0591075064321
 20
-39.2540364547819
 11
-178.134699604405
 21
-37.51680597104144
  0
LINE
  5
250
100
AcDbEntity
  8
collusion
  6
ByLayer
 62
  256
370
   -1
100
AcDbLine
 10
-187.226345049004
 20
-48.34745553763217
 11
-188.9674620618331
 21
-28.42338688819118
  0
CIRCLE
  5
251
100
AcDbEntity
  8
collusion
  6
ByLayer
 62
  256
370
   -1
100
AcDbCircle
 10
-188.0969035554185
 20
-38.38542121291169
 40
12.37941840314011
  0
CIRCLE
  5
252
100
AcDbEntity
  8
collusion
  6
ByLayer
 62
  256
370
   -1
100
AcDbCircle
 10
-188.0969035554185
 20
-38.38542121291169
 40
14.60246184109528
  0
CIRCLE
  5
253
100
AcDbEntity
  8
collusion
  6
ByLayer
 62
  256
370
   -1
100
AcDbCircle
 10
-188.0969035554185
 20
-38.38542121291166
 40
9.999999999999982
  0
LINE
  5
254
100
AcDbEntity
  8
collusion
  6
ByLayer
 62
  256
370
   -1
100
AcDbLine
 10
-180.0016311695847
 20
-27.63988423241807
 11
-197.9332929540816
 21
-29.20688954396429
  0
LINE
  5
255
100
AcDbEntity
  8
collusion
  6
ByLayer
 62
  256
370
   -1
100
AcDbLine
 10
-198.0638767300437
 20
-27.71258439525622
 11
-197.8027091781194
 21
-30.70119469267237
  0
LINE
  5
256
100
AcDbEntity
  8
collusion
  6
ByLayer
 62
  256
370
   -1
100
AcDbLine
 10
-180.1322149455468
 20
-26.14557908371
 11
-179.8710473936225
 21
-29.13418938112614
  0
LINE
  5
257
100
AcDbEntity
  8
collusion
  6
ByLayer
 62
  256
370
   -1
100
AcDbLine
 10
-198.0638081875688
 20
-27.71336874516813
 11
-180.1321464030719
 21
-26.14636343362193
  0
LINE
  5
258
100
AcDbEntity
  8
collusion
  6
ByLayer
 62
  256
370
   -1
100
AcDbLine
 10
-197.8027091781194
 20
-30.70119469267237
 11
-179.8710473936225
 21
-29.13418938112614
  0
CIRCLE
  5
259
100
AcDbEntity
  8
collusion
  6
ByLayer
 62
  256
370
   -1
100
AcDbCircle
 10
-188.0969035554185
 20
-38.38542121291166
 40
8.499999999999993
  0
LINE
  5
25A
100
AcDbEntity
  8
associate
  6
ByLayer
 62
  256
370
   -1
100
AcDbLine
 10
-195.7601671639818
 20
-50.10183665730714
 11
-188.0969035554185
 21
-38.38542121291166
  0
LINE
  5
25B
100
AcDbEntity
  8
associate
  6
ByLayer
 62
  256
370
   -1
100
AcDbLine
 10
-196.8549191080623
 20
-51.77561029222078
 11
-194.6654152199013
 21
-48.4280630223935
  0
LINE
  5
25C
100
AcDbEntity
  8
ref_line
  6
ByLayer
 62
  256
370
   -1
100
AcDbLine
 10
-201.6963446602528
 20
4.920109294651057
 11
-197.6188749886189
 21
-41.92508310059969
  0
ARC
  5
25D
100
AcDbEntity
  8
ref_line
  6
ByLayer
 62
  256
370
   -1
100
AcDbCircle
 10
-187.8628472801523
 20
-41.07444458501347
 40
9.793041536344406
100
AcDbArc
 50
184.9830783514591
 51
248.8728341539369
  0
ARC
  5
25E
100
AcDbEntity
  8
ref_line
  6
ByLayer
 62
  256
370
   -1
100
AcDbCircle
 10
-171.9141202391862
 20
-47.01535810020398
 40
10.00000996910163
100
AcDbArc
 50
248.8734276859797
 51
94.9982637837099
  0
LINE
  5
25F
100
AcDbEntity
  8
ref_line
  6
ByLayer
 62
  256
370
   -1
100
AcDbLine
 10
-191.3926489886086
 20
-50.20922221950214
 11
-175.5184183242262
 21
-56.34323217184054
  0
LINE
  5
260
100
AcDbEntity
  8
associate
  6
ByLayer
 62
  256
370
   -1
100
AcDbLine
 10
-191.1936710397778
 20
-69.81109062017745
 11
-192.6199999999999
 21
-79.16700000000067
  0
LINE
  5
261
100
AcDbEntity
  8
associate
  6
ByLayer
 62
  256
370
   -1
100
AcDbLine
 10
-193.4242757393551
 20
-70.00694325447873
 11
-190.3893953004227
 21
-78.97114736569917
  0
LINE
  5
262
100
AcDbEntity
  8
associate
  6
ByLayer
 62
  256
370
   -1
100
AcDbLine
 10
-192.62
 20
-79.167
 11
-192.984
 21
-71.87899999999999
  0
LINE
  5
263
100
AcDbEntity
  8
associate
  6
ByLayer
 62
  256
370
   -1
100
AcDbLine
 10
-192.984
 20
-71.87899999999999
 11
-195.747
 21
-72.09399999999999
  0
LINE
  5
264
100
AcDbEntity
  8
associate
  6
ByLayer
 62
  256
370
   -1
100
AcDbLine
 10
-195.747
 20
-72.09399999999999
 11
-195.286
 21
-79.396
  0
LINE
  5
265
100
AcDbEntity
  8
associate
  6
ByLayer
 62
  256
370
   -1
100
AcDbLine
 10
-195.286
 20
-79.396
 11
-194.972
 21
-86.90299999999998
  0
LINE
  5
266
100
AcDbEntity
  8
associate
  6
ByLayer
 62
  256
370
   -1
100
AcDbLine
 10
-194.972
 20
-86.90299999999998
 11
-191.951
 21
-86.73799999999999
  0
LINE
  5
267
100
AcDbEntity
  8
associate
  6
ByLayer
 62
  256
370
   -1
100
AcDbLine
 10
-191.951
 20
-86.73799999999999
 11
-192.62
 21
-79.167
  0
ARC
  5
268
100
AcDbEntity
  8
board
  6
ByLayer
 62
  256
370
   -1
100
AcDbCircle
 10
-171.9141202391862
 20
-47.01535810020398
 40
14.7281781919001
100
AcDbArc
 50
248.8734276859797
 51
94.9982637837099
  0
LINE
  5
269
100
AcDbEntity
  8
board
  6
ByLayer
 62
  256
370
   -1
100
AcDbLine
 10
-193.0968670470419
 20
-54.61957544230111
 11
-177.2226363826595
 21
-60.75358539463951
  0
ARC
  5
26A
100
AcDbEntity
  8
board
  6
ByLayer
 62
  256
370
   -1
100
AcDbCircle
 10
-187.8628472801523
 20
-41.07444458501347
 40
14.52120975887467
100
AcDbArc
 50
184.9830783514591
 51
248.8728341539369
  0
LINE
  5
26B
100
AcDbEntity
  8
board
  6
ByLayer
 62
  256
370
   -1
100
AcDbLine
 10
-205.5102366487652
 20
-10.2660863908143
 11
-202.3291726033185
 21
-42.335778999655
  0
LINE
  5
26C
100
AcDbEntity
  8
collusion
  6
ByLayer
 62
  256
370
   -1
100
AcDbLine
 10
-181.8762018560848
 20
-47.8839523475266
 11
-161.9517939540577
 21
-46.14672186378615
  0
LINE
  5
26D
100
AcDbEntity
  8
collusion
  6
ByLayer
 62
  256
370
   -1
100
AcDbLine
 10
-171.0434393986567
 20
-56.97737143037688
 11
-172.7845564114858
 21
-37.05330278093589
  0
CIRCLE
  5
26E
100
AcDbEntity
  8
collusion
  6
ByLayer
 62
  256
370
   -1
100
AcDbCircle
 10
-171.9139979050712
 20
-47.0153371056564
 40
12.37941840314011
  0
CIRCLE
  5
26F
100
AcDbEntity
  8
collusion
  6
ByLayer
 62
  256
370
   -1
100
AcDbCircle
 10
-171.9139979050712
 20
-47.0153371056564
 40
14.60246184109528
  0
CIRCLE
  5
270
100
AcDbEntity
  8
collusion
  6
ByLayer
 62
  256
370
   -1
100
AcDbCircle
 10
-171.9139979050712
 20
-47.01533710565637
 40
9.999999999999982
  0
LINE
  5
271
100
AcDbEntity
  8
collusion
  6
ByLayer
 62
  256
370
   -1
100
AcDbLine
 10
-163.8187255192374
 20
-36.26980012516278
 11
-181.7503873037343
 21
-37.836805436709
  0
LINE
  5
272
100
AcDbEntity
  8
collusion
  6
ByLayer
 62
  256
370
   -1
100
AcDbLine
 10
-181.8809710796964
 20
-36.34250028800093
 11
-181.6198035277721
 21
-39.33111058541708
  0
LINE
  5
273
100
AcDbEntity
  8
collusion
  6
ByLayer
 62
  256
370
   -1
100
AcDbLine
 10
-163.9493092951995
 20
-34.77549497645471
 11
-163.6881417432752
 21
-37.76410527387085
  0
LINE
  5
274
100
AcDbEntity
  8
collusion
  6
ByLayer
 62
  256
370
   -1
100
AcDbLine
 10
-181.8809025372215
 20
-36.34328463791284
 11
-163.9492407527246
 21
-34.77627932636663
  0
LINE
  5
275
100
AcDbEntity
  8
collusion
  6
ByLayer
 62
  256
370
   -1
100
AcDbLine
 10
-181.6198035277721
 20
-39.33111058541708
 11
-163.6881417432752
 21
-37.76410527387085
  0
CIRCLE
  5
276
100
AcDbEntity
  8
collusion
  6
ByLayer
 62
  256
370
   -1
100
AcDbCircle
 10
-171.9139979050712
 20
-47.01533710565637
 40
8.499999999999993
  0
ARC
  5
277
100
AcDbEntity
  8
ref_line
  6
ByLayer
 62
  256
370
   -1
100
AcDbCircle
 10
-174.5383433247267
 20
-56.44226630936497
 40
20.00000000000023
100
AcDbArc
 50
165.7559115236288
 51
185.017843540773
  0
ARC
  5
278
100
AcDbEntity
  8
ref_line
  6
ByLayer
 62
  256
370
   -1
100
AcDbCircle
 10
-213.308595386709
 20
-46.60013467793642
 40
19.99999999999966
100
AcDbArc
 50
345.7559115236288
 51
5.017843540987531
  0
LINE
  5
279
100
AcDbEntity
  8
ref_line
  6
ByLayer
 62
  256
370
   -1
100
AcDbLine
 10
-194.7824979487717
 20
-28.93722544230079
 11
-193.3852449628083
 21
-44.85081827246466
  0
LINE
  5
27A
100
AcDbEntity
  8
ref_line
  6
ByLayer
 62
  256
370
   -1
100
AcDbLine
 10
-194.4616934646754
 20
-58.19158594882943
 11
-192.6200000000065
 21
-79.16699999992612
  0
ARC
  5
27B
100
AcDbEntity
  8
board
  6
ByLayer
 62
  256
370
   -1
100
AcDbCircle
 10
-174.5383433247267
 20
-56.44226630936497
 40
17.97536665230669
100
AcDbArc
 50
165.7559115236288
 51
185.017843540773
  0
ARC
  5
27C
100
AcDbEntity
  8
board
  6
ByLayer
 62
  256
370
   -1
100
AcDbCircle
 10
-213.308595386709
 20
-46.60013467793642
 40
21.99880577513601
100
AcDbArc
 50
345.7559115236288
 51
5.017843540987531
  0
ARC
  5
27D
100
AcDbEntity
  8
board
  6
ByLayer
 62
  256
370
   -1
100
AcDbCircle
 10
-213.308595386709
 20
-46.60013467793642
 40
18.07896303793795
100
AcDbArc
 50
345.7559115236288
 51
5.017843540987531
  0
ARC
  5
27E
100
AcDbEntity
  8
board
  6
ByLayer
 62
  256
370
   -1
100
AcDbCircle
 10
-174.5383433247267
 20
-56.44226630936497
 40
21.9210369620621
100
AcDbArc
 50
165.7559115236288
 51
185.017843540773
  0
LINE
  5
27F
100
AcDbEntity
  8
board
  6
ByLayer
 62
  256
370
   -1
100
AcDbLine
 10
-196.3753680660218
 20
-58.35961133313016
 11
-194.533674601353
 21
-79.33502538422685
  0
LINE
  5
280
100
AcDbEntity
  8
board
  6
ByLayer
 62
  256
370
   -1
100
AcDbLine
 10
-192.4448195101203
 20
-58.01449940493016
 11
-190.6031260454515
 21
-78.98991345602685
  0
LINE
  5
281
100
AcDbEntity
  8
board
  6
ByLayer
 62
  256
370
   -1
100
AcDbLine
 10
-194.0364419098327
 20
-14.4054085785456
 11
-191.3940998807784
 21
-44.67598752849391
  0
LINE
  5
282
100
AcDbEntity
  8
associate
  6
ByLayer
 62
  256
370
   -1
100
AcDbLine
 10
-217.5435407806769
 20
-43.65935328566127
 11
-177.6942091965609
 21
-40.1908129155381
  0
ARC
  5
283
100
AcDbEntity
  8
associate
  6
ByLayer
 62
  256
370
   -1
100
AcDbCircle
 10
-187.8628472801523
 20
-41.07444458501347
 40
7.755834808437694
100
AcDbArc
 50
184.9830783514591
 51
248.8728341539369
  0
ARC
  5
284
100
AcDbEntity
  8
board
  6
ByLayer
 62
  256
370
   -1
100
AcDbCircle
 10
-187.8628472801523
 20
-41.07444458501347
 40
7.755834808436638
100
AcDbArc
 50
184.9830783514591
 51
248.8728341539369
  0
LINE
  5
285
100
AcDbEntity
  8
board
  6
ByLayer
 62
  256
370
   -1
100
AcDbLine
 10
-190.6583594432585
 20
-48.30895115572793
 11
-174.7841287788761
 21
-54.44296110806633
  0
ARC
  5
286
100
AcDbEntity
  8
board
  6
ByLayer
 62
  256
370
   -1
100
AcDbCircle
 10
-171.9141202391862
 20
-47.01535810020398
 40
7.962803241340235
100
AcDbArc
 50
248.8734276859797
 51
94.9982637837099
  0
LINE
  5
287
100
AcDbEntity
  8
board
  6
ByLayer
 62
  256
370
   -1
100
AcDbLine
 10
-172.6175779046688
 20
-39.08359477500839
 11
-183.8994359060739
 21
-39.96816442477687
  0
LINE
  5
288
100
AcDbEntity
  8
board
  6
ByLayer
 62
  256
370
   -1
100
AcDbLine
 10
-198.439762462729
 20
-9.648348767030834
 11
-195.587207670301
 21
-41.77246330887239
  0
LINE
  5
289
100
AcDbEntity
  8
board
  6
ByLayer
 62
  256
370
   -1
100
AcDbLine
 10
-195.2989198481137
 20
-45.01884042269816
 11
-195.587207670301
 21
-41.77246330887239
  0
LINE
  5
28A
100
AcDbEntity
  8
associate
  6
ByLayer
 62
  256
370
   -1
100
AcDbLine
 10
-472.2816162341481
 20
555.1858307874626
 11
-432.6933021827287
 21
560.9099368806611
  0
LINE
  5
28B
100
AcDbEntity
  8
associate
  6
ByLayer
 62
  256
370
   -1
100
AcDbLine
 10
-449.1353312727733
 20
523.2743965890687
 11
-452.5061318069568
 21
563.1321148348333
  0
LINE
  5
28C
100
AcDbEntity
  8
associate
  6
ByLayer
 62
  256
370
   -1
100
AcDbLine
 10
-463.9058960716376
 20
562.1632082787779
 11
-460.4466091461891
 21
522.3130723446633
  0
LINE
  5
28D
100
AcDbEntity
  8
associate
  6
ByLayer
 62
  256
370
   -1
100
AcDbLine
 10
-465.6355395343619
 20
582.0882762458352
 11
-462.1762526089134
 21
542.2381403117206
  0
LINE
  5
28E
100
AcDbEntity
  8
board
  6
ByLayer
 62
  256
370
   -1
100
AcDbLine
 10
-463.9652870775212
 20
562.8473780827662
 11
-418.2187245692118
 21
35.85821130867387
  0
LINE
  5
28F
100
AcDbEntity
  8
associate
  6
ByLayer
 62
  256
370
   -1
100
AcDbLine
 10
-384.5621563883649
 20
573.1665509471931
 11
-347.4145173991292
 21
558.3323702308402
  0
LINE
  5
290
100
AcDbEntity
  8
board
  6
ByLayer
 62
  256
370
   -1
100
AcDbLine
 10
-353.6830098939049
 20
578.760249954021
 11
-463.9652870775212
 21
562.8473780827662
  0
LINE
  5
291
100
AcDbEntity
  8
associate
  6
ByLayer
 62
  256
370
   -1
100
AcDbLine
 10
-444.1702937352036
 20
565.7036411269559
 11
-483.7602804198388
 21
559.9911150385766
  0
LINE
  5
292
100
AcDbEntity
  8
board
  6
ByLayer
 62
  256
370
   -1
100
AcDbLine
 10
-468.7952854120065
 20
562.1504470200618
 11
-463.9652870775212
 21
562.8473780827662
  0
ARC
  5
293
100
AcDbEntity
  8
ref_line
  6
ByLayer
 62
  256
370
   -1
100
AcDbCircle
 10
-450.6250671726723
 20
548.0395284188108
 40
10.17186118243363
100
AcDbArc
 50
98.22990142748577
 51
184.9830783437507
  0
LINE
  5
294
100
AcDbEntity
  8
ref_line
  6
ByLayer
 62
  256
370
   -1
100
AcDbLine
 10
-452.1066024638134
 20
444.8526292778478
 11
-460.7584827387525
 21
547.1559850526859
  0
LINE
  5
295
100
AcDbEntity
  8
ref_line
  6
ByLayer
 62
  256
370
   -1
100
AcDbLine
 10
-452.0811228907409
 20
558.1066363282642
 11
-374.8428434737648
 21
569.2853340478972
  0
LINE
  5
296
100
AcDbEntity
  8
ref_line
  6
ByLayer
 62
  256
370
   -1
100
AcDbLine
 10
-374.8428434737648
 20
569.2853340478972
 11
-356.2875859494113
 21
561.8756560483212
  0
ENDSEC
  0
SECTION
  2
OBJECTS
  0
DICTIONARY
  5
C
330
0
100
AcDbDictionary
281
    1
  3
ACAD_GROUP
350
D
  0
DICTIONARY
  5
D
330
C
100
AcDbDictionary
281
    1
  0
ENDSEC
  0
EOF
