999
dxfrw 0.6.3
  0
SECTION
  2
HEADER
  9
$ACADVER
  1
AC1021
  9
$DWGCODEPAGE
  3
ANSI_936
  9
$INSBASE
 10
0
 20
0
 30
0
  9
$EXTMIN
 10
-50.20311010136022
 20
0
 30
0
  9
$EXTMAX
 10
69.74100000000003
 20
126.7476829246113
 30
0
  9
$LIMMIN
 10
0
 20
0
  9
$LIMMAX
 10
420
 20
297
  9
$ORTHOMODE
 70
    0
  9
$REGENMODE
 70
    1
  9
$FILLMODE
 70
    1
  9
$QTEXTMODE
 70
    0
  9
$MIRRTEXT
 70
    0
  9
$LTSCALE
 40
0.5
  9
$ATTMODE
 70
    1
  9
$TEXTSIZE
 40
2.5
  9
$TRACEWID
 40
1
  9
$TEXTSTYLE
  7
Standard
  9
$CLAYER
  8
ref_line_e
  9
$CELTYPE
  6
ACAD_ISO02W100
  9
$CECOLOR
 62
    7
  9
$CELTSCALE
 40
1
  9
$DISPSILH
 70
    0
  9
$DIMSCALE
 40
1
  9
$DIMASZ
 40
2.5
  9
$DIMEXO
 40
0.625
  9
$DIMDLI
 40
3.75
  9
$DIMRND
 40
0
  9
$DIMDLE
 40
0
  9
$DIMEXE
 40
1.25
  9
$DIMTP
 40
0
  9
$DIMTM
 40
0
  9
$DIMTXT
 40
2.5
  9
$DIMCEN
 40
2.5
  9
$DIMTSZ
 40
0
  9
$DIMTOL
 70
    0
  9
$DIMLIM
 70
    0
  9
$DIMTIH
 70
    0
  9
$DIMTOH
 70
    0
  9
$DIMSE1
 70
    0
  9
$DIMSE2
 70
    0
  9
$DIMTAD
 70
    1
  9
$DIMZIN
 70
    8
  9
$DIMBLK
  1

  9
$DIMASO
 70
    1
  9
$DIMSHO
 70
    1
  9
$DIMPOST
  1

  9
$DIMAPOST
  1

  9
$DIMALT
 70
    0
  9
$DIMALTD
 70
    3
  9
$DIMALTF
 40
0.03937007874016
  9
$DIMLFAC
 40
1
  9
$DIMTOFL
 70
    1
  9
$DIMTVP
 40
0
  9
$DIMTIX
 70
    0
  9
$DIMSOXD
 70
    0
  9
$DIMSAH
 70
    0
  9
$DIMBLK1
  1

  9
$DIMBLK2
  1

  9
$DIMSTYLE
  2
ISO-25
  9
$DIMCLRD
 70
    0
  9
$DIMCLRE
 70
    0
  9
$DIMCLRT
 70
    0
  9
$DIMTFAC
 40
1
  9
$DIMGAP
 40
0.625
  9
$DIMJUST
 70
    0
  9
$DIMSD1
 70
    0
  9
$DIMSD2
 70
    0
  9
$DIMTOLJ
 70
    0
  9
$DIMTZIN
 70
    8
  9
$DIMALTZ
 70
    0
  9
$DIMALTTZ
 70
    0
  9
$DIMUPT
 70
    0
  9
$DIMDEC
 70
    2
  9
$DIMTDEC
 70
    2
  9
$DIMALTU
 70
    2
  9
$DIMALTTD
 70
    3
  9
$DIMTXSTY
  7
Standard
  9
$DIMAUNIT
 70
    0
  9
$DIMADEC
 70
    3
  9
$DIMALTRND
 40
0
  9
$DIMAZIN
 70
    0
  9
$DIMDSEP
 70
   46
  9
$DIMATFIT
 70
    3
  9
$DIMFRAC
 70
    0
  9
$DIMLDRBLK
  1

  9
$DIMLUNIT
 70
    2
  9
$DIMLWD
 70
   -2
  9
$DIMLWE
 70
   -2
  9
$DIMTMOVE
 70
    0
  9
$DIMFXL
 40
1
  9
$DIMFXLON
 70
    0
  9
$DIMJOGANG
 40
1.570796326794896
  9
$DIMTFILL
 70
    0
  9
$DIMTFILLCLR
 70
    0
  9
$DIMARCSYM
 70
    0
  9
$DIMLTYPE
  6

  9
$DIMLTEX1
  6

  9
$DIMLTEX2
  6

  9
$LUNITS
 70
    2
  9
$LUPREC
 70
    4
  9
$SKETCHINC
 40
1
  9
$FILLETRAD
 40
8
  9
$AUNITS
 70
    0
  9
$AUPREC
 70
    0
  9
$MENU
  1
.
  9
$ELEVATION
 40
0
  9
$PELEVATION
 40
0
  9
$THICKNESS
 40
0
  9
$LIMCHECK
 70
    0
  9
$CHAMFERA
 40
0
  9
$CHAMFERB
 40
0
  9
$CHAMFERC
 40
0
  9
$CHAMFERD
 40
0
  9
$SKPOLY
 70
    0
  9
$USRTIMER
 70
    1
  9
$ANGBASE
 50
0
  9
$ANGDIR
 70
    0
  9
$PDMODE
 70
    0
  9
$PDSIZE
 40
0
  9
$PLINEWID
 40
0
  9
$SPLFRAME
 70
    0
  9
$SPLINETYPE
 70
    6
  9
$SPLINESEGS
 70
    8
  9
$HANDSEED
  5
20000
  9
$SURFTAB1
 70
    6
  9
$SURFTAB2
 70
    6
  9
$SURFTYPE
 70
    6
  9
$SURFU
 70
    6
  9
$SURFV
 70
    6
  9
$UCSBASE
  2

  9
$UCSNAME
  2

  9
$UCSORG
 10
0
 20
0
 30
0
  9
$UCSXDIR
 10
1
 20
0
 30
0
  9
$UCSYDIR
 10
0
 20
1
 30
0
  9
$UCSORTHOREF
  2

  9
$UCSORTHOVIEW
 70
    0
  9
$UCSORGTOP
 10
0
 20
0
 30
0
  9
$UCSORGBOTTOM
 10
0
 20
0
 30
0
  9
$UCSORGLEFT
 10
0
 20
0
 30
0
  9
$UCSORGRIGHT
 10
0
 20
0
 30
0
  9
$UCSORGFRONT
 10
0
 20
0
 30
0
  9
$UCSORGBACK
 10
0
 20
0
 30
0
  9
$PUCSBASE
  2

  9
$PUCSNAME
  2

  9
$PUCSORG
 10
0
 20
0
 30
0
  9
$PUCSXDIR
 10
1
 20
0
 30
0
  9
$PUCSYDIR
 10
0
 20
1
 30
0
  9
$PUCSORTHOREF
  2

  9
$PUCSORTHOVIEW
 70
    0
  9
$PUCSORGTOP
 10
0
 20
0
 30
0
  9
$PUCSORGBOTTOM
 10
0
 20
0
 30
0
  9
$PUCSORGLEFT
 10
0
 20
0
 30
0
  9
$PUCSORGRIGHT
 10
0
 20
0
 30
0
  9
$PUCSORGFRONT
 10
0
 20
0
 30
0
  9
$PUCSORGBACK
 10
0
 20
0
 30
0
  9
$USERI1
 70
    0
  9
$USERI2
 70
    0
  9
$USERI3
 70
    0
  9
$USERI4
 70
    0
  9
$USERI5
 70
    0
  9
$USERR1
 40
0
  9
$USERR2
 40
0
  9
$USERR3
 40
0
  9
$USERR4
 40
0
  9
$USERR5
 40
0
  9
$WORLDVIEW
 70
    1
  9
$SHADEDGE
 70
    3
  9
$SHADEDIF
 70
   70
  9
$TILEMODE
 70
    1
  9
$MAXACTVP
 70
   64
  9
$PINSBASE
 10
0
 20
0
 30
0
  9
$PLIMCHECK
 70
    0
  9
$PEXTMIN
 10
1e+20
 20
1e+20
 30
1e+20
  9
$PEXTMAX
 10
-1e+20
 20
-1e+20
 30
-1e+20
  9
$GRIDMODE
 70
    0
  9
$SNAPSTYLE
 70
    0
  9
$PLIMMIN
 10
0
 20
0
  9
$PLIMMAX
 10
420
 20
297
  9
$UNITMODE
 70
    0
  9
$VISRETAIN
 70
    1
  9
$PLINEGEN
 70
    0
  9
$PSLTSCALE
 70
    1
  9
$TREEDEPTH
 70
 3020
  9
$CMLSTYLE
  2
Standard
  9
$CMLJUST
 70
    0
  9
$CMLSCALE
 40
20
  9
$PROXYGRAPHICS
 70
    1
  9
$MEASUREMENT
 70
    1
  9
$CELWEIGHT
370
   -1
  9
$ENDCAPS
280
    0
  9
$JOINSTYLE
280
    0
  9
$LWDISPLAY
290
    0
  9
$INSUNITS
 70
    4
  9
$HYPERLINKBASE
  1

  9
$STYLESHEET
  1

  9
$XEDIT
290
    1
  9
$CEPSNTYPE
380
    0
  9
$PSTYLEMODE
290
    1
  9
$EXTNAMES
290
    1
  9
$PSVPSCALE
 40
0
  9
$OLESTARTUP
290
    0
  9
$SORTENTS
280
  127
  9
$INDEXCTL
280
    0
  9
$HIDETEXT
280
    1
  9
$XCLIPFRAME
290
    2
  9
$HALOGAP
280
    0
  9
$OBSCOLOR
 70
  257
  9
$OBSLTYPE
280
    0
  9
$INTERSECTIONDISPLAY
280
    0
  9
$INTERSECTIONCOLOR
 70
  257
  9
$DIMASSOC
280
    2
  9
$PROJECTNAME
  1

  9
$CAMERADISPLAY
290
    0
  9
$LENSLENGTH
 40
50
  9
$CAMERAHEIGHT
 40
0
  9
$STEPSPERSEC
 40
2
  9
$STEPSIZE
 40
6
  9
$3DDWFPREC
 40
2
  9
$PSOLWIDTH
 40
0.25
  9
$PSOLHEIGHT
 40
4
  9
$LOFTANG1
 40
1.570796326794896
  9
$LOFTANG2
 40
1.570796326794896
  9
$LOFTMAG1
 40
0
  9
$LOFTMAG2
 40
0
  9
$LOFTPARAM
 70
    7
  9
$LOFTNORMALS
280
    1
  9
$LATITUDE
 40
37.795
  9
$LONGITUDE
 40
-122.394
  9
$NORTHDIRECTION
 40
0
  9
$TIMEZONE
 70
-8000
  9
$LIGHTGLYPHDISPLAY
280
    1
  9
$TILEMODELIGHTSYNCH
280
    1
  9
$SOLIDHIST
280
    0
  9
$SHOWHIST
280
    1
  9
$DWFFRAME
280
    2
  9
$DGNFRAME
280
    0
  9
$REALWORLDSCALE
290
    1
  9
$INTERFERECOLOR
 62
    1
  9
$CSHADOW
280
    0
  9
$SHADOWPLANELOCATION
 40
0
  0
ENDSEC
  0
SECTION
  2
CLASSES
  0
ENDSEC
  0
SECTION
  2
TABLES
  0
TABLE
  2
VPORT
  5
8
330
0
100
AcDbSymbolTable
 70
    1
  0
VPORT
  5
31
330
2
100
AcDbSymbolTableRecord
100
AcDbViewportTableRecord
  2
*ACTIVE
 70
    0
 10
0
 20
0
 11
1
 21
1
 12
64.21473050379329
 22
62.69007908121718
 13
0
 23
0
 14
10
 24
10
 15
10
 25
10
 16
0
 26
0
 36
1
 17
0
 27
0
 37
0
 40
144.9315705225279
 41
1.928217821782178
 42
50
 43
0
 44
0
 50
0
 51
0
 71
    0
 72
  100
 73
    1
 74
    3
 75
    0
 76
    0
 77
    0
 78
    0
281
    0
 65
    1
110
0
120
0
130
0
111
1
121
0
131
0
112
0
122
1
132
0
 79
    0
146
0
348
10020
 60
    7
 61
    5
292
1
282
    1
141
0
142
0
 63
  250
421
3358443
  0
ENDTAB
  0
TABLE
  2
LTYPE
  5
5
330
0
100
AcDbSymbolTable
 70
    4
  0
LTYPE
  5
14
330
5
100
AcDbSymbolTableRecord
100
AcDbLinetypeTableRecord
  2
ByBlock
 70
    0
  3

 72
   65
 73
    0
 40
0
  0
LTYPE
  5
15
330
5
100
AcDbSymbolTableRecord
100
AcDbLinetypeTableRecord
  2
ByLayer
 70
    0
  3

 72
   65
 73
    0
 40
0
  0
LTYPE
  5
16
330
5
100
AcDbSymbolTableRecord
100
AcDbLinetypeTableRecord
  2
Continuous
 70
    0
  3
Solid line
 72
   65
 73
    0
 40
0
  0
LTYPE
  5
32
330
5
100
AcDbSymbolTableRecord
100
AcDbLinetypeTableRecord
  2
DOT
 70
    0
  3
Dot . . . . . . . . . . . . . . . . . . . . . .
 72
   65
 73
    2
 40
6.35
 49
0
 74
    0
 49
-6.35
 74
    0
  0
LTYPE
  5
33
330
5
100
AcDbSymbolTableRecord
100
AcDbLinetypeTableRecord
  2
DOTTINY
 70
    0
  3
Dot (.15x) .....................................
 72
   65
 73
    2
 40
0.9525
 49
0
 74
    0
 49
-0.9525
 74
    0
  0
LTYPE
  5
34
330
5
100
AcDbSymbolTableRecord
100
AcDbLinetypeTableRecord
  2
DOT2
 70
    0
  3
Dot (.5x) .....................................
 72
   65
 73
    2
 40
3.175
 49
0
 74
    0
 49
-3.175
 74
    0
  0
LTYPE
  5
35
330
5
100
AcDbSymbolTableRecord
100
AcDbLinetypeTableRecord
  2
DOTX2
 70
    0
  3
Dot (2x) .  .  .  .  .  .  .  .  .  .  .  .  .
 72
   65
 73
    2
 40
12.7
 49
0
 74
    0
 49
-12.7
 74
    0
  0
LTYPE
  5
36
330
5
100
AcDbSymbolTableRecord
100
AcDbLinetypeTableRecord
  2
DASHED
 70
    0
  3
Dashed _ _ _ _ _ _ _ _ _ _ _ _ _ _ _ _ _
 72
   65
 73
    2
 40
19.05
 49
12.7
 74
    0
 49
-6.35
 74
    0
  0
LTYPE
  5
37
330
5
100
AcDbSymbolTableRecord
100
AcDbLinetypeTableRecord
  2
DASHEDTINY
 70
    0
  3
Dashed (.15x) _ _ _ _ _ _ _ _ _ _ _ _ _ _ _ _ _
 72
   65
 73
    2
 40
2.8575
 49
1.905
 74
    0
 49
-0.9525
 74
    0
  0
LTYPE
  5
38
330
5
100
AcDbSymbolTableRecord
100
AcDbLinetypeTableRecord
  2
DASHED2
 70
    0
  3
Dashed (.5x) _ _ _ _ _ _ _ _ _ _ _ _ _ _ _ _ _
 72
   65
 73
    2
 40
9.524999999999999
 49
6.35
 74
    0
 49
-3.175
 74
    0
  0
LTYPE
  5
39
330
5
100
AcDbSymbolTableRecord
100
AcDbLinetypeTableRecord
  2
DASHEDX2
 70
    0
  3
Dashed (2x) ____  ____  ____  ____  ____  ___
 72
   65
 73
    2
 40
38.09999999999999
 49
25.4
 74
    0
 49
-12.7
 74
    0
  0
LTYPE
  5
3A
330
5
100
AcDbSymbolTableRecord
100
AcDbLinetypeTableRecord
  2
DASHDOT
 70
    0
  3
Dash dot __ . __ . __ . __ . __ . __ . __ . __
 72
   65
 73
    4
 40
25.4
 49
12.7
 74
    0
 49
-6.35
 74
    0
 49
0
 74
    0
 49
-6.35
 74
    0
  0
LTYPE
  5
3B
330
5
100
AcDbSymbolTableRecord
100
AcDbLinetypeTableRecord
  2
DASHDOTTINY
 70
    0
  3
Dash dot (.15x) _._._._._._._._._._._._._._._.
 72
   65
 73
    4
 40
3.81
 49
1.905
 74
    0
 49
-0.9525
 74
    0
 49
0
 74
    0
 49
-0.9525
 74
    0
  0
LTYPE
  5
3C
330
5
100
AcDbSymbolTableRecord
100
AcDbLinetypeTableRecord
  2
DASHDOT2
 70
    0
  3
Dash dot (.5x) _._._._._._._._._._._._._._._.
 72
   65
 73
    4
 40
12.7
 49
6.35
 74
    0
 49
-3.175
 74
    0
 49
0
 74
    0
 49
-3.175
 74
    0
  0
LTYPE
  5
3D
330
5
100
AcDbSymbolTableRecord
100
AcDbLinetypeTableRecord
  2
DASHDOTX2
 70
    0
  3
Dash dot (2x) ____  .  ____  .  ____  .  ___
 72
   65
 73
    4
 40
50.8
 49
25.4
 74
    0
 49
-12.7
 74
    0
 49
0
 74
    0
 49
-12.7
 74
    0
  0
LTYPE
  5
3E
330
5
100
AcDbSymbolTableRecord
100
AcDbLinetypeTableRecord
  2
DIVIDE
 70
    0
  3
Divide ____ . . ____ . . ____ . . ____ . . ____
 72
   65
 73
    6
 40
31.75
 49
12.7
 74
    0
 49
-6.35
 74
    0
 49
0
 74
    0
 49
-6.35
 74
    0
 49
0
 74
    0
 49
-6.35
 74
    0
  0
LTYPE
  5
3F
330
5
100
AcDbSymbolTableRecord
100
AcDbLinetypeTableRecord
  2
DIVIDETINY
 70
    0
  3
Divide (.15x) __..__..__..__..__..__..__..__.._
 72
   65
 73
    6
 40
4.7625
 49
1.905
 74
    0
 49
-0.9525
 74
    0
 49
0
 74
    0
 49
-0.9525
 74
    0
 49
0
 74
    0
 49
-0.9525
 74
    0
  0
LTYPE
  5
40
330
5
100
AcDbSymbolTableRecord
100
AcDbLinetypeTableRecord
  2
DIVIDE2
 70
    0
  3
Divide (.5x) __..__..__..__..__..__..__..__.._
 72
   65
 73
    6
 40
15.875
 49
6.35
 74
    0
 49
-3.175
 74
    0
 49
0
 74
    0
 49
-3.175
 74
    0
 49
0
 74
    0
 49
-3.175
 74
    0
  0
LTYPE
  5
41
330
5
100
AcDbSymbolTableRecord
100
AcDbLinetypeTableRecord
  2
DIVIDEX2
 70
    0
  3
Divide (2x) ________  .  .  ________  .  .  _
 72
   65
 73
    6
 40
63.5
 49
25.4
 74
    0
 49
-12.7
 74
    0
 49
0
 74
    0
 49
-12.7
 74
    0
 49
0
 74
    0
 49
-12.7
 74
    0
  0
LTYPE
  5
42
330
5
100
AcDbSymbolTableRecord
100
AcDbLinetypeTableRecord
  2
BORDER
 70
    0
  3
Border __ __ . __ __ . __ __ . __ __ . __ __ .
 72
   65
 73
    6
 40
44.45
 49
12.7
 74
    0
 49
-6.35
 74
    0
 49
12.7
 74
    0
 49
-6.35
 74
    0
 49
0
 74
    0
 49
-6.35
 74
    0
  0
LTYPE
  5
43
330
5
100
AcDbSymbolTableRecord
100
AcDbLinetypeTableRecord
  2
BORDERTINY
 70
    0
  3
Border (.15x) __.__.__.__.__.__.__.__.__.__.__.
 72
   65
 73
    6
 40
6.6675
 49
1.905
 74
    0
 49
-0.9525
 74
    0
 49
1.905
 74
    0
 49
-0.9525
 74
    0
 49
0
 74
    0
 49
-0.9525
 74
    0
  0
LTYPE
  5
44
330
5
100
AcDbSymbolTableRecord
100
AcDbLinetypeTableRecord
  2
BORDER2
 70
    0
  3
Border (.5x) __.__.__.__.__.__.__.__.__.__.__.
 72
   65
 73
    6
 40
22.225
 49
6.35
 74
    0
 49
-3.175
 74
    0
 49
6.35
 74
    0
 49
-3.175
 74
    0
 49
0
 74
    0
 49
-3.175
 74
    0
  0
LTYPE
  5
45
330
5
100
AcDbSymbolTableRecord
100
AcDbLinetypeTableRecord
  2
BORDERX2
 70
    0
  3
Border (2x) ____  ____  .  ____  ____  .  ___
 72
   65
 73
    6
 40
88.89999999999999
 49
25.4
 74
    0
 49
-12.7
 74
    0
 49
25.4
 74
    0
 49
-12.7
 74
    0
 49
0
 74
    0
 49
-12.7
 74
    0
  0
LTYPE
  5
46
330
5
100
AcDbSymbolTableRecord
100
AcDbLinetypeTableRecord
  2
CENTER
 70
    0
  3
Center ____ _ ____ _ ____ _ ____ _ ____ _ ____
 72
   65
 73
    4
 40
50.8
 49
31.75
 74
    0
 49
-6.35
 74
    0
 49
6.35
 74
    0
 49
-6.35
 74
    0
  0
LTYPE
  5
47
330
5
100
AcDbSymbolTableRecord
100
AcDbLinetypeTableRecord
  2
CENTERTINY
 70
    0
  3
Center (.15x) ___ _ ___ _ ___ _ ___ _ ___ _ ___
 72
   65
 73
    4
 40
7.619999999999999
 49
4.7625
 74
    0
 49
-0.9525
 74
    0
 49
0.9525
 74
    0
 49
-0.9525
 74
    0
  0
LTYPE
  5
48
330
5
100
AcDbSymbolTableRecord
100
AcDbLinetypeTableRecord
  2
CENTER2
 70
    0
  3
Center (.5x) ___ _ ___ _ ___ _ ___ _ ___ _ ___
 72
   65
 73
    4
 40
28.575
 49
19.05
 74
    0
 49
-3.175
 74
    0
 49
3.175
 74
    0
 49
-3.175
 74
    0
  0
LTYPE
  5
49
330
5
100
AcDbSymbolTableRecord
100
AcDbLinetypeTableRecord
  2
CENTERX2
 70
    0
  3
Center (2x) ________  __  ________  __  _____
 72
   65
 73
    4
 40
101.6
 49
63.5
 74
    0
 49
-12.7
 74
    0
 49
12.7
 74
    0
 49
-12.7
 74
    0
  0
ENDTAB
  0
TABLE
  2
LAYER
  5
2
330
0
100
AcDbSymbolTable
 70
    1
  0
LAYER
  5
10
330
2
100
AcDbSymbolTableRecord
100
AcDbLayerTableRecord
  2
0
 70
    0
 62
   56
420
8421376
  6
CONTINUOUS
370
   -3
390
F
  0
LAYER
  5
4A
330
2
100
AcDbSymbolTableRecord
100
AcDbLayerTableRecord
  2
appendix
 70
    0
 62
   20
420
16733440
  6
CONTINUOUS
370
   -3
390
F
  0
LAYER
  5
4B
330
2
100
AcDbSymbolTableRecord
100
AcDbLayerTableRecord
  2
board_white
 70
    0
 62
    6
  6
DASHED2
370
   -3
390
F
  0
LAYER
  5
4C
330
2
100
AcDbSymbolTableRecord
100
AcDbLayerTableRecord
  2
board_yellow
 70
    0
 62
    2
  6
CONTINUOUS
370
   18
390
F
  0
LAYER
  5
4D
330
2
100
AcDbSymbolTableRecord
100
AcDbLayerTableRecord
  2
ref_line_bi
 70
    0
 62
    6
  6
DASHED2
370
    5
390
F
  0
LAYER
  5
4E
330
2
100
AcDbSymbolTableRecord
100
AcDbLayerTableRecord
  2
ref_line_e
 70
    0
 62
    3
  6
CONTINUOUS
290
0
370
   -3
390
F
  0
LAYER
  5
4F
330
2
100
AcDbSymbolTableRecord
100
AcDbLayerTableRecord
  2
ref_line_w
 70
    0
 62
    4
  6
DASHDOT2
370
    0
390
F
  0
LAYER
  5
50
330
2
100
AcDbSymbolTableRecord
100
AcDbLayerTableRecord
  2
virtual
 70
    0
 62
    1
  6
CONTINUOUS
370
    0
390
F
  0
ENDTAB
  0
TABLE
  2
STYLE
  5
3
330
0
100
AcDbSymbolTable
 70
    3
  0
STYLE
  5
51
330
2
100
AcDbSymbolTableRecord
100
AcDbTextStyleTableRecord
  2
Standard
 70
    0
 40
0
 41
1
 50
0
 71
    0
 42
1
  3
txt
  4

  0
ENDTAB
  0
TABLE
  2
VIEW
  5
6
330
0
100
AcDbSymbolTable
 70
    0
  0
ENDTAB
  0
TABLE
  2
UCS
  5
7
330
0
100
AcDbSymbolTable
 70
    0
  0
ENDTAB
  0
TABLE
  2
APPID
  5
9
330
0
100
AcDbSymbolTable
 70
    1
  0
APPID
  5
12
330
9
100
AcDbSymbolTableRecord
100
AcDbRegAppTableRecord
  2
ACAD
 70
    0
  0
APPID
  5
52
330
9
100
AcDbSymbolTableRecord
100
AcDbRegAppTableRecord
  2
LibreCad
 70
    0
  0
ENDTAB
  0
TABLE
  2
DIMSTYLE
  5
A
330
0
100
AcDbSymbolTable
 70
    1
100
AcDbDimStyleTable
 71
    1
  0
DIMSTYLE
105
53
330
A
100
AcDbSymbolTableRecord
100
AcDbDimStyleTableRecord
  2
Standard
 70
    0
 40
1
 41
2.5
 42
0.625
 43
0.38
 44
1.25
 45
0
 46
0
 47
0
 48
0
 49
1
140
2.5
141
0.09
142
0
143
25.4
144
1
145
0
146
1
147
0.625
148
0
 71
    0
 72
    0
 73
    0
 74
    1
 75
    0
 76
    0
 77
    0
 78
    8
 79
    0
170
    0
171
    2
172
    0
173
    0
174
    0
175
    0
176
    0
177
    0
178
    0
179
    3
271
    2
272
    4
273
    2
274
    2
275
    0
276
    0
277
    2
278
   46
279
    0
280
    0
281
    0
282
    0
283
    1
284
    0
285
    0
286
    0
288
    0
289
    3
340
Standard
341

371
   -2
372
   -2
  0
ENDTAB
  0
TABLE
  2
BLOCK_RECORD
  5
1
330
0
100
AcDbSymbolTable
 70
    2
  0
BLOCK_RECORD
  5
1F
330
1
100
AcDbSymbolTableRecord
100
AcDbBlockTableRecord
  2
*Model_Space
 70
    0
280
    1
281
    0
  0
BLOCK_RECORD
  5
1E
330
1
100
AcDbSymbolTableRecord
100
AcDbBlockTableRecord
  2
*Paper_Space
 70
    0
280
    1
281
    0
  0
BLOCK_RECORD
  5
54
330
1
100
AcDbSymbolTableRecord
100
AcDbBlockTableRecord
  2
_Oblique
 70
    0
280
    1
281
    0
  0
BLOCK_RECORD
  5
57
330
1
100
AcDbSymbolTableRecord
100
AcDbBlockTableRecord
  2
_ArchTick
 70
    0
280
    1
281
    0
  0
BLOCK_RECORD
  5
5A
330
1
100
AcDbSymbolTableRecord
100
AcDbBlockTableRecord
  2
A$C703876F9
 70
    0
280
    1
281
    0
  0
BLOCK_RECORD
  5
5D
330
1
100
AcDbSymbolTableRecord
100
AcDbBlockTableRecord
  2
arrow
 70
    0
280
    1
281
    0
  0
BLOCK_RECORD
  5
60
330
1
100
AcDbSymbolTableRecord
100
AcDbBlockTableRecord
  2
arrow-0
 70
    0
280
    1
281
    0
  0
BLOCK_RECORD
  5
63
330
1
100
AcDbSymbolTableRecord
100
AcDbBlockTableRecord
  2
arrow-1
 70
    0
280
    1
281
    0
  0
BLOCK_RECORD
  5
66
330
1
100
AcDbSymbolTableRecord
100
AcDbBlockTableRecord
  2
arrow-2
 70
    0
280
    1
281
    0
  0
BLOCK_RECORD
  5
69
330
1
100
AcDbSymbolTableRecord
100
AcDbBlockTableRecord
  2
arrow-3
 70
    0
280
    1
281
    0
  0
BLOCK_RECORD
  5
6C
330
1
100
AcDbSymbolTableRecord
100
AcDbBlockTableRecord
  2
arrow-4
 70
    0
280
    1
281
    0
  0
ENDTAB
  0
ENDSEC
  0
SECTION
  2
BLOCKS
  0
BLOCK
  5
20
330
1F
100
AcDbEntity
  8
0
100
AcDbBlockBegin
  2
*Model_Space
 70
    0
 10
0
 20
0
 30
0
  3
*Model_Space
  1

  0
ENDBLK
  5
21
330
1F
100
AcDbEntity
  8
0
100
AcDbBlockEnd
  0
BLOCK
  5
1C
330
1B
100
AcDbEntity
  8
0
100
AcDbBlockBegin
  2
*Paper_Space
 70
    0
 10
0
 20
0
 30
0
  3
*Paper_Space
  1

  0
ENDBLK
  5
1D
330
1F
100
AcDbEntity
  8
0
100
AcDbBlockEnd
  0
BLOCK
  5
55
330
54
100
AcDbEntity
  8
0
100
AcDbBlockBegin
  2
_Oblique
 70
    0
 10
0
 20
0
  3
_Oblique
  1

  0
LINE
  5
6F
100
AcDbEntity
  8
0
  6
ByBlock
 62
    0
370
   -2
100
AcDbLine
 10
-0.5
 20
-0.5
 11
0.5
 21
0.5
  0
ENDBLK
  5
56
330
54
100
AcDbEntity
  8
0
100
AcDbBlockEnd
  0
BLOCK
  5
58
330
57
100
AcDbEntity
  8
0
100
AcDbBlockBegin
  2
_ArchTick
 70
    0
 10
0
 20
0
  3
_ArchTick
  1

  0
LWPOLYLINE
  5
70
100
AcDbEntity
  8
0
  6
ByBlock
 62
    0
370
   -1
100
AcDbPolyline
 90
    2
 70
    0
 43
0
 10
-0.5
 20
-0.5
 10
0.5
 20
0.5
  0
ENDBLK
  5
59
330
57
100
AcDbEntity
  8
0
100
AcDbBlockEnd
  0
BLOCK
  5
5B
330
5A
100
AcDbEntity
  8
0
100
AcDbBlockBegin
  2
A$C703876F9
 70
    0
 10
0
 20
0
  3
A$C703876F9
  1

  0
LINE
  5
71
100
AcDbEntity
  8
ref_line_e
  6
ByLayer
 62
  256
370
   -1
100
AcDbLine
 10
-3.237810873e-07
 20
1.579999985673325
 11
7.833999676218915
 21
10.95199998567332
  0
LINE
  5
72
100
AcDbEntity
  8
ref_line_e
  6
ByLayer
 62
  256
370
   -1
100
AcDbLine
 10
7.833999676218915
 20
10.95199998567332
 11
9.715999676218907
 21
9.378999985673317
  0
LINE
  5
73
100
AcDbEntity
  8
ref_line_e
  6
ByLayer
 62
  256
370
   -1
100
AcDbLine
 10
9.715999676218907
 20
9.378999985673317
 11
1.87599967621891
 21
-1.43266732e-08
  0
LINE
  5
74
100
AcDbEntity
  8
ref_line_e
  6
ByLayer
 62
  256
370
   -1
100
AcDbLine
 10
1.87599967621891
 20
-1.43266732e-08
 11
-3.237810873e-07
 21
1.579999985673325
  0
ENDBLK
  5
5C
330
5A
100
AcDbEntity
  8
0
100
AcDbBlockEnd
  0
BLOCK
  5
5E
330
5D
100
AcDbEntity
  8
0
100
AcDbBlockBegin
  2
arrow
 70
    0
 10
0
 20
0
  3
arrow
  1

  0
LINE
  5
75
100
AcDbEntity
  8
0
  6
ByLayer
 62
  256
370
   -1
100
AcDbLine
 10
180
 20
179
 11
190
 21
179
  0
LINE
  5
76
100
AcDbEntity
  8
0
  6
ByLayer
 62
  256
370
   -1
100
AcDbLine
 10
180
 20
179
 11
183
 21
180
  0
LINE
  5
77
100
AcDbEntity
  8
0
  6
ByLayer
 62
  256
370
   -1
100
AcDbLine
 10
183
 20
180
 11
183
 21
178
  0
LINE
  5
78
100
AcDbEntity
  8
0
  6
ByLayer
 62
  256
370
   -1
100
AcDbLine
 10
183
 20
178
 11
180
 21
179
  0
ENDBLK
  5
5F
330
5D
100
AcDbEntity
  8
0
100
AcDbBlockEnd
  0
BLOCK
  5
61
330
60
100
AcDbEntity
  8
0
100
AcDbBlockBegin
  2
arrow-0
 70
    0
 10
0
 20
0
  3
arrow-0
  1

  0
LINE
  5
79
100
AcDbEntity
  8
0
  6
ByLayer
 62
  256
370
   -1
100
AcDbLine
 10
180
 20
179
 11
190
 21
179
  0
LINE
  5
7A
100
AcDbEntity
  8
0
  6
ByLayer
 62
  256
370
   -1
100
AcDbLine
 10
180
 20
179
 11
183
 21
180
  0
LINE
  5
7B
100
AcDbEntity
  8
0
  6
ByLayer
 62
  256
370
   -1
100
AcDbLine
 10
183
 20
180
 11
183
 21
178
  0
LINE
  5
7C
100
AcDbEntity
  8
0
  6
ByLayer
 62
  256
370
   -1
100
AcDbLine
 10
183
 20
178
 11
180
 21
179
  0
ENDBLK
  5
62
330
60
100
AcDbEntity
  8
0
100
AcDbBlockEnd
  0
BLOCK
  5
64
330
63
100
AcDbEntity
  8
0
100
AcDbBlockBegin
  2
arrow-1
 70
    0
 10
0
 20
0
  3
arrow-1
  1

  0
LINE
  5
7D
100
AcDbEntity
  8
0
  6
ByLayer
 62
  256
370
   -1
100
AcDbLine
 10
180
 20
179
 11
190
 21
179
  0
LINE
  5
7E
100
AcDbEntity
  8
0
  6
ByLayer
 62
  256
370
   -1
100
AcDbLine
 10
180
 20
179
 11
183
 21
180
  0
LINE
  5
7F
100
AcDbEntity
  8
0
  6
ByLayer
 62
  256
370
   -1
100
AcDbLine
 10
183
 20
180
 11
183
 21
178
  0
LINE
  5
80
100
AcDbEntity
  8
0
  6
ByLayer
 62
  256
370
   -1
100
AcDbLine
 10
183
 20
178
 11
180
 21
179
  0
ENDBLK
  5
65
330
63
100
AcDbEntity
  8
0
100
AcDbBlockEnd
  0
BLOCK
  5
67
330
66
100
AcDbEntity
  8
0
100
AcDbBlockBegin
  2
arrow-2
 70
    0
 10
0
 20
0
  3
arrow-2
  1

  0
LINE
  5
81
100
AcDbEntity
  8
0
  6
ByLayer
 62
  256
370
   -1
100
AcDbLine
 10
180
 20
179
 11
190
 21
179
  0
LINE
  5
82
100
AcDbEntity
  8
0
  6
ByLayer
 62
  256
370
   -1
100
AcDbLine
 10
180
 20
179
 11
183
 21
180
  0
LINE
  5
83
100
AcDbEntity
  8
0
  6
ByLayer
 62
  256
370
   -1
100
AcDbLine
 10
183
 20
180
 11
183
 21
178
  0
LINE
  5
84
100
AcDbEntity
  8
0
  6
ByLayer
 62
  256
370
   -1
100
AcDbLine
 10
183
 20
178
 11
180
 21
179
  0
ENDBLK
  5
68
330
66
100
AcDbEntity
  8
0
100
AcDbBlockEnd
  0
BLOCK
  5
6A
330
69
100
AcDbEntity
  8
0
100
AcDbBlockBegin
  2
arrow-3
 70
    0
 10
0
 20
0
  3
arrow-3
  1

  0
LINE
  5
85
100
AcDbEntity
  8
0
  6
ByLayer
 62
  256
370
   -1
100
AcDbLine
 10
180
 20
179
 11
190
 21
179
  0
LINE
  5
86
100
AcDbEntity
  8
0
  6
ByLayer
 62
  256
370
   -1
100
AcDbLine
 10
180
 20
179
 11
183
 21
180
  0
LINE
  5
87
100
AcDbEntity
  8
0
  6
ByLayer
 62
  256
370
   -1
100
AcDbLine
 10
183
 20
180
 11
183
 21
178
  0
LINE
  5
88
100
AcDbEntity
  8
0
  6
ByLayer
 62
  256
370
   -1
100
AcDbLine
 10
183
 20
178
 11
180
 21
179
  0
ENDBLK
  5
6B
330
69
100
AcDbEntity
  8
0
100
AcDbBlockEnd
  0
BLOCK
  5
6D
330
6C
100
AcDbEntity
  8
0
100
AcDbBlockBegin
  2
arrow-4
 70
    0
 10
0
 20
0
  3
arrow-4
  1

  0
LINE
  5
89
100
AcDbEntity
  8
0
  6
ByLayer
 62
  256
370
   -1
100
AcDbLine
 10
180
 20
179
 11
190
 21
179
  0
LINE
  5
8A
100
AcDbEntity
  8
0
  6
ByLayer
 62
  256
370
   -1
100
AcDbLine
 10
180
 20
179
 11
183
 21
180
  0
LINE
  5
8B
100
AcDbEntity
  8
0
  6
ByLayer
 62
  256
370
   -1
100
AcDbLine
 10
183
 20
180
 11
183
 21
178
  0
LINE
  5
8C
100
AcDbEntity
  8
0
  6
ByLayer
 62
  256
370
   -1
100
AcDbLine
 10
183
 20
178
 11
180
 21
179
  0
ENDBLK
  5
6E
330
6C
100
AcDbEntity
  8
0
100
AcDbBlockEnd
  0
ENDSEC
  0
SECTION
  2
ENTITIES
  0
ARC
  5
8D
100
AcDbEntity
  8
ref_line_e
  6
ByLayer
 62
  256
370
   -1
100
AcDbCircle
 10
17.71496193629843
 20
109.560866175426
 40
10
100
AcDbArc
 50
50.37282416841641
 51
140.853321243773
  0
ARC
  5
8E
100
AcDbEntity
  8
ref_line_e
  6
ByLayer
 62
  256
370
   -1
100
AcDbCircle
 10
19.05731792567096
 20
108.4681459634186
 40
9.984680652050846
100
AcDbArc
 50
320.853321243773
 51
50.3728241684165
  0
LINE
  5
8F
100
AcDbEntity
  8
ref_line_e
  6
ByLayer
 62
  256
370
   -1
100
AcDbLine
 10
24.09285572058243
 20
117.2629743852859
 11
25.42544119254845
 21
116.1584550457176
  0
LINE
  5
90
100
AcDbEntity
  8
ref_line_e
  6
ByLayer
 62
  256
370
   -1
100
AcDbLine
 10
25.42544188488934
 20
116.1584544724102
 11
28.49745009603511
 21
113.6146130307703
  0
LINE
  5
91
100
AcDbEntity
  8
ref_line_e
  6
ByLayer
 62
  256
370
   -1
100
AcDbLine
 10
28.49745009603511
 20
113.6146130307703
 11
28.52315628811753
 21
113.5933240796145
  0
LINE
  5
92
100
AcDbEntity
  8
ref_line_e
  6
ByLayer
 62
  256
370
   -1
100
AcDbLine
 10
28.52315628811753
 20
113.5933240796145
 11
37.68118397310305
 21
106.0089722843916
  0
ARC
  5
93
100
AcDbEntity
  8
ref_line_e
  6
ByLayer
 62
  256
370
   -1
100
AcDbCircle
 10
49.39510093992018
 20
83.32387185717538
 40
10.00000000000001
100
AcDbArc
 50
320.7310091349039
 51
50.36965824126749
  0
ARC
  5
94
100
AcDbEntity
  8
ref_line_e
  6
ByLayer
 62
  256
370
   -1
100
AcDbCircle
 10
-1.780131965142216
 20
19.46235786347838
 40
9.197080056377393
100
AcDbArc
 50
229.7210690724917
 51
320.731009134904
  0
ARC
  5
95
100
AcDbEntity
  8
ref_line_e
  6
ByLayer
 62
  256
370
   -1
100
AcDbCircle
 10
-31.80420626675161
 20
45.70410425147332
 40
9.806226167041299
100
AcDbArc
 50
229.7210690724917
 51
320.8533212437724
  0
ARC
  5
96
100
AcDbEntity
  8
ref_line_e
  6
ByLayer
 62
  256
370
   -1
100
AcDbCircle
 10
-33.16023065025058
 20
47.06305682898732
 40
9.967232178716582
100
AcDbArc
 50
140.7495262135357
 51
229.7455846761741
  0
LINE
  5
97
100
AcDbEntity
  8
ref_line_e
  6
ByLayer
 62
  256
370
   -1
100
AcDbLine
 10
-24.39364256123963
 20
73.60940248617739
 11
9.959638543608742
 21
115.8739445904942
  0
LINE
  5
98
100
AcDbEntity
  8
ref_line_e
  6
ByLayer
 62
  256
370
   -1
100
AcDbLine
 10
-28.16364435353994
 20
68.99525456583468
 11
-24.42455248165266
 21
73.63456413856638
  0
LINE
  5
99
100
AcDbEntity
  8
ref_line_e
  6
ByLayer
 62
  256
370
   -1
100
AcDbLine
 10
-38.14402252293648
 20
38.22287430734117
 11
-39.60088458692258
 21
39.45623790301867
  0
LINE
  5
9A
100
AcDbEntity
  8
ref_line_e
  6
ByLayer
 62
  256
370
   -1
100
AcDbLine
 10
-22.88292070590139
 20
25.29016376249034
 11
-22.88292037028944
 21
25.29016347808282
  0
LWPOLYLINE
  5
9B
100
AcDbEntity
  8
appendix
  6
ByLayer
 62
  256
370
   -1
100
AcDbPolyline
 90
    5
 70
    0
 43
0
 10
-15.83640233740563
 20
63.94064176378329
 10
-13.94817563004306
 20
62.37943632061967
 10
-6.225615860560353
 20
71.84641512310353
 10
-8.113842567922916
 20
73.40762056626717
 10
-15.83640233740563
 20
63.94064176378329
  0
LWPOLYLINE
  5
9C
100
AcDbEntity
  8
appendix
  6
ByLayer
 62
  256
370
   -1
100
AcDbPolyline
 90
    5
 70
    0
 43
0
 10
-10.02419789431524
 20
75.53337544426425
 10
-8.135971186952673
 20
73.97217000110062
 10
0.227554090122337
 20
84.2248995202677
 10
-1.660672617240207
 20
85.78610496343131
 10
-10.02419789431523
 20
75.53337544426427
  0
LWPOLYLINE
  5
9D
100
AcDbEntity
  8
appendix
  6
ByLayer
 62
  256
370
   -1
100
AcDbPolyline
 90
    5
 70
    0
 43
0
 10
0.7829905743038311
 20
84.31192258406149
 10
2.6712172816664
 20
82.75071714089789
 10
10.39377705114909
 20
92.2176959433817
 10
8.505550343786538
 20
93.77890138654536
 10
0.7829905743038262
 20
84.31192258406151
  0
LWPOLYLINE
  5
9E
100
AcDbEntity
  8
appendix
  6
ByLayer
 62
  256
370
   -1
100
AcDbPolyline
 90
    5
 70
    0
 43
0
 10
8.769142667914764
 20
94.10203555701568
 10
10.65736937527733
 20
92.54083011385205
 10
18.37992914476004
 20
102.0078089163359
 10
16.49170243739746
 20
103.5690143594996
 10
8.769142667914764
 20
94.10203555701568
  0
LWPOLYLINE
  5
9F
100
AcDbEntity
  8
appendix
  6
ByLayer
 62
  256
370
   -1
100
AcDbPolyline
 90
    5
 70
    0
 43
0
 10
20.8187342965163
 20
84.29328704078779
 10
22.70696100387887
 20
82.73208159762417
 10
30.42952077336159
 20
92.19906040010804
 10
28.54129406599899
 20
93.76026584327167
 10
20.8187342965163
 20
84.29328704078779
  0
LWPOLYLINE
  5
A0
100
AcDbEntity
  8
appendix
  6
ByLayer
 62
  256
370
   -1
100
AcDbPolyline
 90
    5
 70
    0
 43
0
 10
30.38067084224389
 20
96.0151322956239
 10
28.83205465605836
 20
94.11670521374663
 10
38.24350002703266
 20
86.33524518405413
 10
39.79256821966786
 20
88.23340867306956
 10
30.38067084224391
 20
96.01513229562391
  0
LWPOLYLINE
  5
A1
100
AcDbEntity
  8
appendix
  6
ByLayer
 62
  256
370
   -1
100
AcDbPolyline
 90
    5
 70
    0
 43
0
 10
5.050939774937791
 20
65.09153313103339
 10
6.939166482300365
 20
63.53032768786971
 10
14.66172625178289
 20
72.99730649035342
 10
12.7734995444205
 20
74.5585119335172
 10
5.050939774937791
 20
65.09153313103339
  0
LWPOLYLINE
  5
A2
100
AcDbEntity
  8
appendix
  6
ByLayer
 62
  256
370
   -1
100
AcDbPolyline
 90
    5
 70
    0
 43
0
 10
3.935749060678651
 20
63.59887205003928
 10
5.823975768041215
 20
62.03766660687565
 10
-1.8985840014415
 20
52.57068780439177
 10
-3.786810708804074
 20
54.13189324755538
 10
3.935749060678639
 20
63.59887205003928
  0
LWPOLYLINE
  5
A3
100
AcDbEntity
  8
appendix
  6
ByLayer
 62
  256
370
   -1
100
AcDbPolyline
 90
    5
 70
    0
 43
0
 10
-1.413089232695839
 20
51.96865085334954
 10
-2.96023700696675
 20
50.06895406828946
 10
6.4969472611194
 20
42.34270269396492
 10
8.044095035390306
 20
44.24239947902501
 10
-1.413089232695839
 20
51.96865085334954
  0
LWPOLYLINE
  5
A4
100
AcDbEntity
  8
appendix
  6
ByLayer
 62
  256
370
   -1
100
AcDbPolyline
 90
    5
 70
    0
 43
0
 10
8.35153871000791
 20
43.9912267148908
 10
6.804390935736997
 20
42.09152992983073
 10
16.26157520382314
 20
34.36527855550618
 10
17.80872297809406
 20
36.26497534056625
 10
8.35153871000791
 20
43.9912267148908
  0
LWPOLYLINE
  5
A5
100
AcDbEntity
  8
appendix
  6
ByLayer
 62
  256
370
   -1
100
AcDbPolyline
 90
    5
 70
    0
 43
0
 10
-16.52645439216722
 20
33.41922190350866
 10
-14.9793066178963
 20
35.31891868856874
 10
-5.522122349810148
 20
27.5926673142442
 10
-7.069270124081076
 20
25.6929705291841
 10
-16.52645439216722
 20
33.41922190350866
  0
LWPOLYLINE
  5
A6
100
AcDbEntity
  8
appendix
  6
ByLayer
 62
  256
370
   -1
100
AcDbPolyline
 90
    5
 70
    0
 43
0
 10
-5.214678675192552
 20
27.34149455010998
 10
-6.761826449463468
 20
25.44179776504991
 10
2.695357818622666
 20
17.71554639072536
 10
4.242505592893582
 20
19.61524317578544
 10
-5.214678675192552
 20
27.34149455010998
  0
LINE
  5
A7
100
AcDbEntity
  8
ref_line_e
  6
ByLayer
 62
  256
370
   -1
100
AcDbLine
 10
-24.19916020611808
 20
39.51335744233889
 11
-21.56768378485322
 21
42.74600391136361
  0
LINE
  5
A8
100
AcDbEntity
  8
ref_line_e
  6
ByLayer
 62
  256
370
   -1
100
AcDbLine
 10
18.8364209056348
 20
30.1643834615802
 11
57.13692905979825
 21
76.9942512238148
  0
LINE
  5
A9
100
AcDbEntity
  8
ref_line_e
  6
ByLayer
 62
  256
370
   -1
100
AcDbLine
 10
-25.92948565470322
 20
27.87191330530265
 11
-7.726129605582877
 21
12.44584921435032
  0
LINE
  5
AA
100
AcDbEntity
  8
ref_line_e
  6
ByLayer
 62
  256
370
   -1
100
AcDbLine
 10
37.68118397310305
 20
106.0089722843916
 11
55.77342019394028
 21
91.02562772800098
  0
POINT
  5
AB
100
AcDbEntity
  8
appendix
  6
ByLayer
 62
  256
370
   -1
100
AcDbPoint
 10
-8.115116310064433
 20
65.51492838384266
  0
POINT
  5
AC
100
AcDbEntity
  8
appendix
  6
ByLayer
 62
  256
370
   -1
100
AcDbPoint
 10
-1.955597337662269
 20
60.49038418573396
  0
POINT
  5
AD
100
AcDbEntity
  8
appendix
  6
ByLayer
 62
  256
370
   -1
100
AcDbPoint
 10
6.354914777946375
 20
70.69946203618123
  0
POINT
  5
AE
100
AcDbEntity
  8
appendix
  6
ByLayer
 62
  256
370
   -1
100
AcDbPoint
 10
0.2058465275093242
 20
75.71548119935601
  0
POINT
  5
AF
100
AcDbEntity
  8
appendix
  6
ByLayer
 62
  256
370
   -1
100
AcDbPoint
 10
8.471592842320346
 20
85.84834484623289
  0
POINT
  5
B0
100
AcDbEntity
  8
appendix
  6
ByLayer
 62
  256
370
   -1
100
AcDbPoint
 10
14.64184512868339
 20
80.87957078459529
  0
POINT
  5
B1
100
AcDbEntity
  8
appendix
  6
ByLayer
 62
  256
370
   -1
100
AcDbPoint
 10
16.46780688188546
 20
95.65079261903371
  0
POINT
  5
B2
100
AcDbEntity
  8
appendix
  6
ByLayer
 62
  256
370
   -1
100
AcDbPoint
 10
22.58640159759102
 20
90.63908913317209
  0
LINE
  5
B3
100
AcDbEntity
  8
board_yellow
  6
ByLayer
 62
  256
370
   -1
100
AcDbLine
 10
-16.92999999999998
 20
38.92700000000002
 11
-23.77599999999997
 21
30.52100000000002
  0
LINE
  5
B4
100
AcDbEntity
  8
board_yellow
  6
ByLayer
 62
  256
370
   -1
100
AcDbLine
 10
-23.77599999999997
 20
30.52100000000002
 11
-0.4690000000000036
 21
10.732
  0
LINE
  5
B5
100
AcDbEntity
  8
board_yellow
  6
ByLayer
 62
  256
370
   -1
100
AcDbLine
 10
-26.19199999999997
 20
46.55400000000003
 11
-32.89399999999998
 21
38.32500000000002
  0
LINE
  5
B6
100
AcDbEntity
  8
board_yellow
  6
ByLayer
 62
  256
370
   -1
100
AcDbLine
 10
-6.801999999999961
 20
51.29100000000001
 11
16.73500000000001
 21
31.896
  0
LINE
  5
B7
100
AcDbEntity
  8
board_yellow
  6
ByLayer
 62
  256
370
   -1
100
AcDbLine
 10
16.73500000000001
 20
31.896
 11
38.24400000000005
 21
58.36899999999997
  0
LINE
  5
B8
100
AcDbEntity
  8
board_yellow
  6
ByLayer
 62
  256
370
   -1
100
AcDbLine
 10
48.26800000000001
 20
70.71199999999995
 11
59.20167496671483
 21
83.88893105955322
  0
LINE
  5
B9
100
AcDbEntity
  8
board_yellow
  6
ByLayer
 62
  256
370
   -1
100
AcDbLine
 10
-35.79799999999996
 20
54.33700000000002
 11
-37.43518407108526
 21
52.32679592346148
  0
ARC
  5
BA
100
AcDbEntity
  8
board_yellow
  6
ByLayer
 62
  256
370
   -1
100
AcDbCircle
 10
-31.23215593474465
 20
47.27482185981404
 40
7.999999999999999
100
AcDbArc
 50
140.8393628462066
 51
230.9848208988585
  0
ARC
  5
BB
100
AcDbEntity
  8
board_yellow
  6
ByLayer
 62
  256
370
   -1
100
AcDbCircle
 10
17.9395652168809
 20
107.6743380755335
 40
7.999999999999999
100
AcDbArc
 50
50.85332124377325
 51
140.8533212437724
  0
LINE
  5
BC
100
AcDbEntity
  8
board_yellow
  6
ByLayer
 62
  256
370
   -1
100
AcDbLine
 10
-6.839863364581671
 20
51.32226385373563
 11
35.60561283178139
 21
103.4645584391808
  0
LINE
  5
BD
100
AcDbEntity
  8
board_yellow
  6
ByLayer
 62
  256
370
   -1
100
AcDbLine
 10
59.20167496671481
 20
83.88893105955323
 11
35.68100000000009
 21
103.402
  0
LINE
  5
BE
100
AcDbEntity
  8
board_yellow
  6
ByLayer
 62
  256
370
   -1
100
AcDbLine
 10
26.45500000000009
 20
111.058
 11
-16.06199999999997
 21
58.93700000000002
  0
LINE
  5
BF
100
AcDbEntity
  8
board_yellow
  6
ByLayer
 62
  256
370
   -1
100
AcDbLine
 10
6.733000000000014
 20
19.59499999999999
 11
-16.92999999999998
 21
38.92700000000002
  0
LINE
  5
C0
100
AcDbEntity
  8
board_yellow
  6
ByLayer
 62
  256
370
   -1
100
AcDbLine
 10
-0.4689999999999805
 20
10.73199999999999
 11
6.733000000000014
 21
19.59499999999999
  0
LINE
  5
C1
100
AcDbEntity
  8
board_yellow
  6
ByLayer
 62
  256
370
   -1
100
AcDbLine
 10
-36.26836597141631
 20
41.05898816942882
 11
-32.89399999999998
 21
38.32500000000002
  0
LINE
  5
C2
100
AcDbEntity
  8
board_yellow
  6
ByLayer
 62
  256
370
   -1
100
AcDbLine
 10
-35.79799999999996
 20
54.33700000000002
 11
-26.19199999999997
 21
46.55400000000003
  0
LINE
  5
C3
100
AcDbEntity
  8
board_yellow
  6
ByLayer
 62
  256
370
   -1
100
AcDbLine
 10
-25.61799999999996
 20
66.83800000000002
 11
-16.06199999999997
 21
58.93700000000002
  0
LINE
  5
C4
100
AcDbEntity
  8
board_yellow
  6
ByLayer
 62
  256
370
   -1
100
AcDbLine
 10
-25.61799999999996
 20
66.83800000000002
 11
11.73530650272924
 21
112.724800807588
  0
ARC
  5
C5
100
AcDbEntity
  8
board_yellow
  6
ByLayer
 62
  256
370
   -1
100
AcDbCircle
 10
16.81198147720746
 20
118.7476829246113
 40
8
100
AcDbArc
 50
50.36965824126751
 51
140.8533212437726
  0
ARC
  5
C6
100
AcDbEntity
  8
board_yellow
  6
ByLayer
 62
  256
370
   -1
100
AcDbCircle
 10
-42.20311010136022
 20
46.25038601973244
 40
8
100
AcDbArc
 50
140.8533212437725
 51
229.7210690724918
  0
LINE
  5
C7
100
AcDbEntity
  8
board_yellow
  6
ByLayer
 62
  256
370
   -1
100
AcDbLine
 10
26.45500000000009
 20
111.058
 11
22.99002794893556
 21
113.8785967896851
  0
LINE
  5
C8
100
AcDbEntity
  8
board_yellow
  6
ByLayer
 62
  256
370
   -1
100
AcDbLine
 10
6.733000000000014
 20
19.59499999999999
 11
16.73500000000001
 21
31.896
  0
LINE
  5
C9
100
AcDbEntity
  8
board_yellow
  6
ByLayer
 62
  256
370
   -1
100
AcDbLine
 10
-35.79799999999996
 20
54.337
 11
-30.47357245983892
 21
60.87315492650799
  0
LINE
  5
CA
100
AcDbEntity
  8
board_yellow
  6
ByLayer
 62
  256
370
   -1
100
AcDbLine
 10
-30.47357245983892
 20
60.87315492650799
 11
-25.61799999999996
 21
66.83800000000002
  0
LINE
  5
CB
100
AcDbEntity
  8
board_yellow
  6
ByLayer
 62
  256
370
   -1
100
AcDbLine
 10
26.45500000000009
 20
111.058
 11
31.36769380853165
 21
117.0804031327346
  0
LINE
  5
CC
100
AcDbEntity
  8
board_yellow
  6
ByLayer
 62
  256
370
   -1
100
AcDbLine
 10
35.6056128317794
 20
103.4645584391784
 11
40.52572149351722
 21
109.4960513375117
  0
LINE
  5
CD
100
AcDbEntity
  8
board_yellow
  6
ByLayer
 62
  256
370
   -1
100
AcDbLine
 10
-37.92374866966644
 20
32.13770998978578
 11
-32.88273146410276
 21
38.33886186550577
  0
LINE
  5
CE
100
AcDbEntity
  8
board_yellow
  6
ByLayer
 62
  256
370
   -1
100
AcDbLine
 10
-28.76862054530958
 20
24.37938274363856
 11
-23.76473146410275
 21
30.53486186550577
  0
LINE
  5
CF
100
AcDbEntity
  8
board_yellow
  6
ByLayer
 62
  256
370
   -1
100
AcDbLine
 10
16.73500000000001
 20
31.896
 11
22.31706709294812
 21
27.2962552887909
  0
LINE
  5
D0
100
AcDbEntity
  8
board_yellow
  6
ByLayer
 62
  256
370
   -1
100
AcDbLine
 10
6.733000000081698
 20
19.59499999993325
 11
9.459908363807447
 21
17.2841369329539
  0
LINE
  5
D1
100
AcDbEntity
  8
board_yellow
  6
ByLayer
 62
  256
370
   -1
100
AcDbLine
 10
9.459908363807447
 20
17.2841369329539
 11
12.21938866054501
 21
14.94567144338552
  0
LINE
  5
D2
100
AcDbEntity
  8
board_yellow
  6
ByLayer
 62
  256
370
   -1
100
AcDbLine
 10
-35.79800000000009
 20
54.33700000000012
 11
-41.79731262155449
 21
59.42099554192269
  0
LINE
  5
D3
100
AcDbEntity
  8
board_yellow
  6
ByLayer
 62
  256
370
   -1
100
AcDbLine
 10
-25.61799999999964
 20
66.83799999999977
 11
-31.61955591740645
 21
71.92389657739628
  0
LINE
  5
D4
100
AcDbEntity
  8
board_white
  6
ByLayer
 62
  256
370
   -1
100
AcDbLine
 10
38.24400000000005
 20
58.36899999999997
 11
48.26800000000001
 21
70.71199999999995
  0
LINE
  5
D5
100
AcDbEntity
  8
board_yellow
  6
ByLayer
 62
  256
370
   -1
100
AcDbLine
 10
-47.37518437188273
 20
40.14713707018116
 11
-37.92374866966644
 21
32.13770998978578
  0
LINE
  5
D6
100
AcDbEntity
  8
board_yellow
  6
ByLayer
 62
  256
370
   -1
100
AcDbLine
 10
-28.76862054530958
 20
24.37938274363856
 11
0
 21
0
  0
LINE
  5
D7
100
AcDbEntity
  8
board_yellow
  6
ByLayer
 62
  256
370
   -1
100
AcDbLine
 10
21.91463696609022
 20
124.9090875503257
 11
31.36769380853165
 21
117.0804031327346
  0
LINE
  5
D8
100
AcDbEntity
  8
board_yellow
  6
ByLayer
 62
  256
370
   -1
100
AcDbLine
 10
40.52572149351722
 20
109.4960513375117
 11
69.74100000000003
 21
85.30099999999995
  0
LINE
  5
D9
100
AcDbEntity
  8
board_yellow
  6
ByLayer
 62
  256
370
   -1
100
AcDbLine
 10
-26.19199999999996
 20
46.55400000000004
 11
-21.02694770929338
 21
52.86780478932084
  0
LINE
  5
DA
100
AcDbEntity
  8
board_yellow
  6
ByLayer
 62
  256
370
   -1
100
AcDbLine
 10
-21.02694770929338
 20
52.86780478932084
 11
-16.06199999999997
 21
58.93700000000002
  0
LINE
  5
DB
100
AcDbEntity
  8
board_yellow
  6
ByLayer
 62
  256
370
   -1
100
AcDbLine
 10
-6.839863364581671
 20
51.32226385373563
 11
-11.88687919230246
 21
45.12223950134137
  0
LINE
  5
DC
100
AcDbEntity
  8
board_yellow
  6
ByLayer
 62
  256
370
   -1
100
AcDbLine
 10
-11.88687919230246
 20
45.12223950134137
 11
-16.92999999999998
 21
38.92700000000002
  0
LINE
  5
DD
100
AcDbEntity
  8
board_yellow
  6
ByLayer
 62
  256
370
   -1
100
AcDbLine
 10
22.31706709294812
 20
27.2962552887909
 11
69.74100000000003
 21
85.30099999999995
  0
LINE
  5
DE
100
AcDbEntity
  8
board_yellow
  6
ByLayer
 62
  256
370
   -1
100
AcDbLine
 10
22.31706709294812
 20
27.2962552887909
 11
16.92743443611196
 21
20.70413508316178
  0
LINE
  5
DF
100
AcDbEntity
  8
board_yellow
  6
ByLayer
 62
  256
370
   -1
100
AcDbLine
 10
16.92743443611196
 20
20.70413508316178
 11
12.21938866054501
 21
14.94567144338552
  0
LINE
  5
E0
100
AcDbEntity
  8
board_yellow
  6
ByLayer
 62
  256
370
   -1
100
AcDbLine
 10
12.21938866054501
 20
14.94567144338552
 11
0
 21
0
  0
LINE
  5
E1
100
AcDbEntity
  8
board_yellow
  6
ByLayer
 62
  256
370
   -1
100
AcDbLine
 10
10.60772276305575
 20
123.798145656666
 11
-31.61955591740645
 21
71.92389657739628
  0
LINE
  5
E2
100
AcDbEntity
  8
board_yellow
  6
ByLayer
 62
  256
370
   -1
100
AcDbLine
 10
-31.61955591740645
 20
71.92389657739628
 11
-36.47512837724542
 21
65.95905150390425
  0
LINE
  5
E3
100
AcDbEntity
  8
board_yellow
  6
ByLayer
 62
  256
370
   -1
100
AcDbLine
 10
-36.47512837724542
 20
65.95905150390425
 11
-41.79731262155449
 21
59.42099554192269
  0
LINE
  5
E4
100
AcDbEntity
  8
board_yellow
  6
ByLayer
 62
  256
370
   -1
100
AcDbLine
 10
-41.79731262155449
 20
59.42099554192269
 11
-48.40736881551192
 21
51.30084875178706
  0
LINE
  5
E5
100
AcDbEntity
  8
board_yellow
  6
ByLayer
 62
  256
370
   -1
100
AcDbLine
 10
26.45500000000009
 20
111.058
 11
35.60561283179391
 21
103.4645584391962
  0
LINE
  5
E6
100
AcDbEntity
  8
board_yellow
  6
ByLayer
 62
  256
370
   -1
100
AcDbLine
 10
31.36769380853165
 20
117.0804031327346
 11
40.5257214935172
 21
109.4960513375117
  0
LINE
  5
E7
100
AcDbEntity
  8
board_yellow
  6
ByLayer
 62
  256
370
   -1
100
AcDbLine
 10
-16.0620000000001
 20
58.93699999999986
 11
-6.801999999999961
 21
51.29100000000001
  0
LINE
  5
E8
100
AcDbEntity
  8
board_yellow
  6
ByLayer
 62
  256
370
   -1
100
AcDbLine
 10
-26.19199999999996
 20
46.55400000000004
 11
-16.93000000001111
 21
38.92699999998635
  0
LINE
  5
E9
100
AcDbEntity
  8
board_yellow
  6
ByLayer
 62
  256
370
   -1
100
AcDbLine
 10
-32.88273146410276
 20
38.33886186550577
 11
-23.77600000000438
 21
30.5209999999946
  0
LINE
  5
EA
100
AcDbEntity
  8
board_yellow
  6
ByLayer
 62
  256
370
   -1
100
AcDbLine
 10
-37.92374866966644
 20
32.13770998978578
 11
-28.76862054530958
 21
24.37938274363856
  0
LINE
  5
EB
100
AcDbEntity
  8
ref_line_e
  6
ByLayer
 62
  256
370
   -1
100
AcDbLine
 10
-38.14402252293648
 20
38.22287430734116
 11
-25.92948565525985
 21
27.87191330577435
  0
LINE
  5
EC
100
AcDbEntity
  8
virtual
  6
ByLayer
 62
  256
370
   -1
100
AcDbLine
 10
66.22071080218645
 20
53.03163109265644
 11
73.94327057166915
 21
62.49860989514031
  0
LINE
  5
ED
100
AcDbEntity
  8
virtual
  6
ByLayer
 62
  256
370
   -1
100
AcDbLine
 10
73.94327057166915
 20
62.49860989514031
 11
75.83149727903172
 21
60.93740445197667
  0
LINE
  5
EE
100
AcDbEntity
  8
virtual
  6
ByLayer
 62
  256
370
   -1
100
AcDbLine
 10
75.83149727903172
 20
60.93740445197667
 11
68.10893750954902
 21
51.47042564949281
  0
LINE
  5
EF
100
AcDbEntity
  8
virtual
  6
ByLayer
 62
  256
370
   -1
100
AcDbLine
 10
68.10893750954902
 20
51.47042564949281
 11
66.22071080218645
 21
53.03163109265644
  0
LINE
  5
F0
100
AcDbEntity
  8
virtual
  6
ByLayer
 62
  256
370
   -1
100
AcDbLine
 10
73.94327057166915
 20
62.49860989514031
 11
68.10893750954902
 21
51.47042564949281
  0
LINE
  5
F1
100
AcDbEntity
  8
virtual
  6
ByLayer
 62
  256
370
   -1
100
AcDbLine
 10
66.22071080218645
 20
53.03163109265643
 11
75.83149727903172
 21
60.93740445197667
  0
LINE
  5
F2
100
AcDbEntity
  8
virtual
  6
ByLayer
 62
  256
370
   -1
100
AcDbLine
 10
82.2846672297144
 20
73.31588884914083
 11
80.39644052235187
 21
74.87709429230446
  0
LINE
  5
F3
100
AcDbEntity
  8
virtual
  6
ByLayer
 62
  256
370
   -1
100
AcDbLine
 10
80.39644052235187
 20
74.87709429230446
 11
72.03291524527683
 21
64.62436477313739
  0
LINE
  5
F4
100
AcDbEntity
  8
virtual
  6
ByLayer
 62
  256
370
   -1
100
AcDbLine
 10
72.03291524527683
 20
64.62436477313739
 11
82.28466722971416
 21
73.31588884914055
  0
LINE
  5
F5
100
AcDbEntity
  8
virtual
  6
ByLayer
 62
  256
370
   -1
100
AcDbLine
 10
72.09554762595263
 20
64.70114493902875
 11
73.9211419526394
 21
63.06315932997376
  0
LINE
  5
F6
100
AcDbEntity
  8
virtual
  6
ByLayer
 62
  256
370
   -1
100
AcDbLine
 10
73.9211419526394
 20
63.06315932997376
 11
82.28466722971415
 21
73.31588884914052
  0
LINE
  5
F7
100
AcDbEntity
  8
virtual
  6
ByLayer
 62
  256
370
   -1
100
AcDbLine
 10
80.39644052235187
 20
74.87709429230446
 11
73.92114195263942
 21
63.06315932997376
  0
LINE
  5
F8
100
AcDbEntity
  8
virtual
  6
ByLayer
 62
  256
370
   -1
100
AcDbLine
 10
82.84010371389591
 20
73.40291191293463
 11
84.72833042125848
 21
71.84170646977103
  0
LINE
  5
F9
100
AcDbEntity
  8
virtual
  6
ByLayer
 62
  256
370
   -1
100
AcDbLine
 10
84.72833042125848
 20
71.84170646977103
 11
92.45089019074116
 21
81.30868527225485
  0
LINE
  5
FA
100
AcDbEntity
  8
virtual
  6
ByLayer
 62
  256
370
   -1
100
AcDbLine
 10
92.45089019074116
 20
81.30868527225485
 11
90.56266348337861
 21
82.86989071541851
  0
LINE
  5
FB
100
AcDbEntity
  8
virtual
  6
ByLayer
 62
  256
370
   -1
100
AcDbLine
 10
90.56266348337861
 20
82.86989071541851
 11
82.8401037138959
 21
73.40291191293466
  0
LINE
  5
FC
100
AcDbEntity
  8
virtual
  6
ByLayer
 62
  256
370
   -1
100
AcDbLine
 10
82.8401037138959
 20
73.40291191293466
 11
92.45089019074116
 21
81.30868527225485
  0
LINE
  5
FD
100
AcDbEntity
  8
virtual
  6
ByLayer
 62
  256
370
   -1
100
AcDbLine
 10
90.56266348337861
 20
82.86989071541851
 11
84.72833042125848
 21
71.84170646977103
  0
LINE
  5
FE
100
AcDbEntity
  8
virtual
  6
ByLayer
 62
  256
370
   -1
100
AcDbLine
 10
90.82625580750684
 20
83.19302488588883
 11
92.7144825148694
 21
81.6318194427252
  0
LINE
  5
FF
100
AcDbEntity
  8
virtual
  6
ByLayer
 62
  256
370
   -1
100
AcDbLine
 10
92.7144825148694
 20
81.6318194427252
 11
100.4370422843521
 21
91.09879824520905
  0
LINE
  5
100
100
AcDbEntity
  8
virtual
  6
ByLayer
 62
  256
370
   -1
100
AcDbLine
 10
100.4370422843521
 20
91.09879824520905
 11
98.54881557698954
 21
92.66000368837274
  0
LINE
  5
101
100
AcDbEntity
  8
virtual
  6
ByLayer
 62
  256
370
   -1
100
AcDbLine
 10
98.54881557698954
 20
92.66000368837274
 11
90.82625580750684
 21
83.19302488588883
  0
LINE
  5
102
100
AcDbEntity
  8
virtual
  6
ByLayer
 62
  256
370
   -1
100
AcDbLine
 10
90.82625580750684
 20
83.19302488588883
 11
100.4370422843521
 21
91.09879824520905
  0
LINE
  5
103
100
AcDbEntity
  8
virtual
  6
ByLayer
 62
  256
370
   -1
100
AcDbLine
 10
98.54881557698954
 20
92.66000368837274
 11
92.71448251486939
 21
81.6318194427252
  0
LINE
  5
104
100
AcDbEntity
  8
virtual
  6
ByLayer
 62
  256
370
   -1
100
AcDbLine
 10
112.437783981836
 20
85.10612162449706
 11
121.8496813592599
 21
77.32439800194271
  0
LINE
  5
105
100
AcDbEntity
  8
virtual
  6
ByLayer
 62
  256
370
   -1
100
AcDbLine
 10
121.8496813592599
 20
77.32439800194271
 11
120.3006131666247
 21
75.42623451292727
  0
LINE
  5
106
100
AcDbEntity
  8
virtual
  6
ByLayer
 62
  256
370
   -1
100
AcDbLine
 10
112.437783981836
 20
85.10612162449704
 11
120.3006131666247
 21
75.42623451292729
  0
LINE
  5
107
100
AcDbEntity
  8
virtual
  6
ByLayer
 62
  256
370
   -1
100
AcDbLine
 10
102.8758474361084
 20
73.38427636966094
 11
104.7640741434709
 21
71.82307092649731
  0
LINE
  5
108
100
AcDbEntity
  8
virtual
  6
ByLayer
 62
  256
370
   -1
100
AcDbLine
 10
104.7640741434709
 20
71.82307092649731
 11
112.4866339129537
 21
81.29004972898116
  0
LINE
  5
109
100
AcDbEntity
  8
virtual
  6
ByLayer
 62
  256
370
   -1
100
AcDbLine
 10
112.4866339129537
 20
81.29004972898116
 11
110.5984072055911
 21
82.85125517214482
  0
LINE
  5
10A
100
AcDbEntity
  8
virtual
  6
ByLayer
 62
  256
370
   -1
100
AcDbLine
 10
110.5984072055911
 20
82.85125517214482
 11
102.8758474361084
 21
73.38427636966094
  0
LINE
  5
10B
100
AcDbEntity
  8
virtual
  6
ByLayer
 62
  256
370
   -1
100
AcDbLine
 10
96.71883939137497
 20
62.08829581922657
 11
88.99627962189244
 21
52.62131701674285
  0
LINE
  5
10C
100
AcDbEntity
  8
virtual
  6
ByLayer
 62
  256
370
   -1
100
AcDbLine
 10
88.99627962189244
 20
52.62131701674285
 11
87.10805291452986
 21
54.18252245990653
  0
LINE
  5
10D
100
AcDbEntity
  8
virtual
  6
ByLayer
 62
  256
370
   -1
100
AcDbLine
 10
87.10805291452986
 20
54.18252245990653
 11
94.83061268401258
 21
63.64950126239034
  0
LINE
  5
10E
100
AcDbEntity
  8
virtual
  6
ByLayer
 62
  256
370
   -1
100
AcDbLine
 10
94.83061268401258
 20
63.64950126239034
 11
96.71883939137497
 21
62.08829581922657
  0
LINE
  5
10F
100
AcDbEntity
  8
virtual
  6
ByLayer
 62
  256
370
   -1
100
AcDbLine
 10
87.8810889076333
 20
51.1286559357488
 11
80.15852913815058
 21
41.66167713326491
  0
LINE
  5
110
100
AcDbEntity
  8
virtual
  6
ByLayer
 62
  256
370
   -1
100
AcDbLine
 10
80.15852913815058
 20
41.66167713326491
 11
78.27030243078801
 21
43.22288257642852
  0
LINE
  5
111
100
AcDbEntity
  8
virtual
  6
ByLayer
 62
  256
370
   -1
100
AcDbLine
 10
78.27030243078801
 20
43.22288257642852
 11
85.99286220027072
 21
52.68986137891243
  0
LINE
  5
112
100
AcDbEntity
  8
virtual
  6
ByLayer
 62
  256
370
   -1
100
AcDbLine
 10
85.99286220027072
 20
52.68986137891243
 11
87.88108890763328
 21
51.1286559357488
  0
LINE
  5
113
100
AcDbEntity
  8
virtual
  6
ByLayer
 62
  256
370
   -1
100
AcDbLine
 10
87.88108890763328
 20
51.1286559357488
 11
80.15852913815058
 21
41.66167713326491
  0
LINE
  5
114
100
AcDbEntity
  8
virtual
  6
ByLayer
 62
  256
370
   -1
100
AcDbLine
 10
78.27030243078801
 20
43.22288257642852
 11
87.88108890763328
 21
51.1286559357488
  0
LINE
  5
115
100
AcDbEntity
  8
virtual
  6
ByLayer
 62
  256
370
   -1
100
AcDbLine
 10
85.99286220027071
 20
52.68986137891243
 11
80.15852913815057
 21
41.66167713326491
  0
LINE
  5
116
100
AcDbEntity
  8
virtual
  6
ByLayer
 62
  256
370
   -1
100
AcDbLine
 10
87.10805291452986
 20
54.18252245990653
 11
96.71883939137497
 21
62.08829581922657
  0
LINE
  5
117
100
AcDbEntity
  8
virtual
  6
ByLayer
 62
  256
370
   -1
100
AcDbLine
 10
94.83061268401258
 20
63.64950126239034
 11
88.99627962189244
 21
52.62131701674285
  0
LINE
  5
118
100
AcDbEntity
  8
virtual
  6
ByLayer
 62
  256
370
   -1
100
AcDbLine
 10
102.8758474361084
 20
73.38427636966094
 11
112.4866339129537
 21
81.29004972898116
  0
LINE
  5
119
100
AcDbEntity
  8
virtual
  6
ByLayer
 62
  256
370
   -1
100
AcDbLine
 10
110.5984072055911
 20
82.85125517214482
 11
104.764074143471
 21
71.82307092649734
  0
LINE
  5
11A
100
AcDbEntity
  8
virtual
  6
ByLayer
 62
  256
370
   -1
100
AcDbLine
 10
112.437783981836
 20
85.10612162449706
 11
110.8891677956505
 21
83.20769454261978
  0
LINE
  5
11B
100
AcDbEntity
  8
virtual
  6
ByLayer
 62
  256
370
   -1
100
AcDbLine
 10
110.8891677956505
 20
83.20769454261978
 11
120.3006131666247
 21
75.42623451292729
  0
LINE
  5
11C
100
AcDbEntity
  8
virtual
  6
ByLayer
 62
  256
370
   -1
100
AcDbLine
 10
121.8496813592599
 20
77.32439800194271
 11
110.8891677956505
 21
83.20769454261978
  0
LINE
  5
11D
100
AcDbEntity
  8
virtual
  6
ByLayer
 62
  256
370
   -1
100
AcDbLine
 10
80.64402390689624
 20
41.05964018222268
 11
79.09687613262533
 21
39.1599433971626
  0
LINE
  5
11E
100
AcDbEntity
  8
virtual
  6
ByLayer
 62
  256
370
   -1
100
AcDbLine
 10
79.09687613262533
 20
39.1599433971626
 11
88.55406040071148
 21
31.43369202283806
  0
LINE
  5
11F
100
AcDbEntity
  8
virtual
  6
ByLayer
 62
  256
370
   -1
100
AcDbLine
 10
88.55406040071148
 20
31.43369202283806
 11
90.10120817498239
 21
33.33338880789815
  0
LINE
  5
120
100
AcDbEntity
  8
virtual
  6
ByLayer
 62
  256
370
   -1
100
AcDbLine
 10
90.10120817498239
 20
33.33338880789815
 11
80.64402390689624
 21
41.05964018222268
  0
LINE
  5
121
100
AcDbEntity
  8
virtual
  6
ByLayer
 62
  256
370
   -1
100
AcDbLine
 10
90.40865184959999
 20
33.08221604376394
 11
88.86150407532908
 21
31.18251925870386
  0
LINE
  5
122
100
AcDbEntity
  8
virtual
  6
ByLayer
 62
  256
370
   -1
100
AcDbLine
 10
88.86150407532908
 20
31.18251925870386
 11
98.3186883434152
 21
23.45626788437932
  0
LINE
  5
123
100
AcDbEntity
  8
virtual
  6
ByLayer
 62
  256
370
   -1
100
AcDbLine
 10
98.3186883434152
 20
23.45626788437932
 11
99.86583611768614
 21
25.35596466943939
  0
LINE
  5
124
100
AcDbEntity
  8
virtual
  6
ByLayer
 62
  256
370
   -1
100
AcDbLine
 10
99.86583611768614
 20
25.35596466943939
 11
90.40865184959999
 21
33.08221604376394
  0
LINE
  5
125
100
AcDbEntity
  8
virtual
  6
ByLayer
 62
  256
370
   -1
100
AcDbLine
 10
67.07780652169578
 20
24.40990801744189
 11
65.53065874742485
 21
22.5102112323818
  0
LINE
  5
126
100
AcDbEntity
  8
virtual
  6
ByLayer
 62
  256
370
   -1
100
AcDbLine
 10
65.53065874742485
 20
22.5102112323818
 11
74.987843015511
 21
14.78395985805724
  0
LINE
  5
127
100
AcDbEntity
  8
virtual
  6
ByLayer
 62
  256
370
   -1
100
AcDbLine
 10
74.987843015511
 20
14.78395985805724
 11
76.53499078978193
 21
16.68365664311734
  0
LINE
  5
128
100
AcDbEntity
  8
virtual
  6
ByLayer
 62
  256
370
   -1
100
AcDbLine
 10
76.53499078978193
 20
16.68365664311734
 11
67.07780652169578
 21
24.40990801744189
  0
LINE
  5
129
100
AcDbEntity
  8
virtual
  6
ByLayer
 62
  256
370
   -1
100
AcDbLine
 10
76.84243446439953
 20
16.43248387898312
 11
75.29528669012861
 21
14.53278709392305
  0
LINE
  5
12A
100
AcDbEntity
  8
virtual
  6
ByLayer
 62
  256
370
   -1
100
AcDbLine
 10
75.29528669012861
 20
14.53278709392305
 11
84.75247095821474
 21
6.806535719598504
  0
LINE
  5
12B
100
AcDbEntity
  8
virtual
  6
ByLayer
 62
  256
370
   -1
100
AcDbLine
 10
84.75247095821474
 20
6.806535719598504
 11
86.29961873248565
 21
8.706232504658583
  0
LINE
  5
12C
100
AcDbEntity
  8
virtual
  6
ByLayer
 62
  256
370
   -1
100
AcDbLine
 10
86.29961873248565
 20
8.706232504658583
 11
76.84243446439953
 21
16.43248387898312
  0
LINE
  5
12D
100
AcDbEntity
  8
virtual
  6
ByLayer
 62
  256
370
   -1
100
AcDbLine
 10
65.99511313983308
 20
48.02798932867393
 11
56.43911313959244
 21
55.92898932887291
  0
LINE
  5
12E
100
AcDbEntity
  8
virtual
  6
ByLayer
 62
  256
370
   -1
100
AcDbLine
 10
56.43911313959244
 20
55.92898932887291
 11
93.79241964232132
 21
101.8157901364611
  0
LINE
  5
12F
100
AcDbEntity
  8
virtual
  6
ByLayer
 62
  256
370
   -1
100
AcDbLine
 10
93.79241964232132
 20
101.8157901364611
 11
105.04714014586
 21
102.9695868859195
  0
LINE
  5
130
100
AcDbEntity
  8
virtual
  6
ByLayer
 62
  256
370
   -1
100
AcDbLine
 10
105.04714014586
 20
102.9695868859195
 11
108.5121131395922
 21
100.1489893288731
  0
LINE
  5
131
100
AcDbEntity
  8
virtual
  6
ByLayer
 62
  256
370
   -1
100
AcDbLine
 10
108.5121131395922
 20
100.1489893288731
 11
65.99511313959212
 21
48.02798932887317
  0
LINE
  5
132
100
AcDbEntity
  8
virtual
  6
ByLayer
 62
  256
370
   -1
100
AcDbLine
 10
65.99511313959212
 20
48.02798932887317
 11
75.25511313959211
 21
40.38198932887315
  0
LINE
  5
133
100
AcDbEntity
  8
virtual
  6
ByLayer
 62
  256
370
   -1
100
AcDbLine
 10
75.25511313959211
 20
40.38198932887315
 11
98.79211313959209
 21
20.98698932887314
  0
LINE
  5
134
100
AcDbEntity
  8
virtual
  6
ByLayer
 62
  256
370
   -1
100
AcDbLine
 10
98.79211313959209
 20
20.98698932887314
 11
120.3011131395921
 21
47.45998932887311
  0
LINE
  5
135
100
AcDbEntity
  8
virtual
  6
ByLayer
 62
  256
370
   -1
100
AcDbLine
 10
120.3011131395921
 20
47.45998932887311
 11
130.3251131395921
 21
59.80298932887309
  0
LINE
  5
136
100
AcDbEntity
  8
virtual
  6
ByLayer
 62
  256
370
   -1
100
AcDbLine
 10
130.3251131395921
 20
59.80298932887309
 11
141.2587881063069
 21
72.97992038842636
  0
LINE
  5
137
100
AcDbEntity
  8
virtual
  6
ByLayer
 62
  256
370
   -1
100
AcDbLine
 10
141.2587881063069
 20
72.97992038842636
 11
117.7381131395922
 21
92.49298932887314
  0
LINE
  5
138
100
AcDbEntity
  8
virtual
  6
ByLayer
 62
  256
370
   -1
100
AcDbLine
 10
117.7381131395922
 20
92.49298932887314
 11
75.25511313959211
 21
40.38198932887315
  0
LINE
  5
139
100
AcDbEntity
  8
virtual
  6
ByLayer
 62
  256
370
   -1
100
AcDbLine
 10
108.5121131395926
 20
100.1489893288728
 11
117.7381131395922
 21
92.49298932887314
  0
LINE
  5
13A
100
AcDbEntity
  8
virtual
  6
ByLayer
 62
  256
370
   -1
100
AcDbLine
 10
117.7381131395922
 20
92.49298932887314
 11
122.5828346331093
 21
98.58704066638484
  0
LINE
  5
13B
100
AcDbEntity
  8
virtual
  6
ByLayer
 62
  256
370
   -1
100
AcDbLine
 10
122.5828346331093
 20
98.58704066638484
 11
113.4248069481237
 21
106.1713924616078
  0
LINE
  5
13C
100
AcDbEntity
  8
virtual
  6
ByLayer
 62
  256
370
   -1
100
AcDbLine
 10
113.4248069481237
 20
106.1713924616078
 11
108.5121131395926
 21
100.1489893288728
  0
LINE
  5
13D
100
AcDbEntity
  8
virtual
  6
ByLayer
 62
  256
370
   -1
100
AcDbLine
 10
122.5828346331093
 20
98.58704066638484
 11
151.7981131395921
 21
74.39198932887308
  0
LINE
  5
13E
100
AcDbEntity
  8
virtual
  6
ByLayer
 62
  256
370
   -1
100
AcDbLine
 10
151.7981131395921
 20
74.39198932887308
 11
104.3741802325402
 21
16.38724461766404
  0
LINE
  5
13F
100
AcDbEntity
  8
virtual
  6
ByLayer
 62
  256
370
   -1
100
AcDbLine
 10
104.3741802325402
 20
16.38724461766404
 11
94.27650180013708
 21
4.036660772258662
  0
LINE
  5
140
100
AcDbEntity
  8
virtual
  6
ByLayer
 62
  256
370
   -1
100
AcDbLine
 10
94.27650180013708
 20
4.036660772258662
 11
82.05711313959208
 21
-10.90901067112686
  0
LINE
  5
141
100
AcDbEntity
  8
virtual
  6
ByLayer
 62
  256
370
   -1
100
AcDbLine
 10
82.05711313959208
 20
-10.90901067112686
 11
53.2884925942825
 21
13.4703720725117
  0
LINE
  5
142
100
AcDbEntity
  8
virtual
  6
ByLayer
 62
  256
370
   -1
100
AcDbLine
 10
53.2884925942825
 20
13.4703720725117
 11
44.13336446992564
 21
21.22869931865893
  0
LINE
  5
143
100
AcDbEntity
  8
virtual
  6
ByLayer
 62
  256
370
   -1
100
AcDbLine
 10
44.13336446992564
 20
21.22869931865893
 11
34.68192876770935
 21
29.23812639905428
  0
LINE
  5
144
100
AcDbEntity
  8
virtual
  6
ByLayer
 62
  256
370
   -1
100
AcDbLine
 10
34.68192876770935
 20
29.23812639905428
 11
33.64974471530766
 21
40.391838561265
  0
LINE
  5
145
100
AcDbEntity
  8
virtual
  6
ByLayer
 62
  256
370
   -1
100
AcDbLine
 10
33.64974471530766
 20
40.391838561265
 11
40.25980051803759
 21
48.51198487079584
  0
LINE
  5
146
100
AcDbEntity
  8
virtual
  6
ByLayer
 62
  256
370
   -1
100
AcDbLine
 10
40.25980051803759
 20
48.51198487079584
 11
50.43755722218562
 21
61.01488590626942
  0
LINE
  5
147
100
AcDbEntity
  8
virtual
  6
ByLayer
 62
  256
370
   -1
100
AcDbLine
 10
50.43755722218562
 20
61.01488590626942
 11
92.66483590264782
 21
112.889134985539
  0
LINE
  5
148
100
AcDbEntity
  8
virtual
  6
ByLayer
 62
  256
370
   -1
100
AcDbLine
 10
92.66483590264782
 20
112.889134985539
 11
103.9717506082362
 21
114.0000764630016
  0
LINE
  5
149
100
AcDbEntity
  8
virtual
  6
ByLayer
 62
  256
370
   -1
100
AcDbLine
 10
103.9717506082362
 20
114.0000764630016
 11
113.4248069481237
 21
106.1713924616078
  0
LINE
  5
14A
100
AcDbEntity
  8
virtual
  6
ByLayer
 62
  256
370
   -1
100
AcDbLine
 10
50.43755722218563
 20
61.01488590626942
 11
56.43911313959265
 21
55.92898932887272
  0
LINE
  5
14B
100
AcDbEntity
  8
virtual
  6
ByLayer
 62
  256
370
   -1
100
AcDbLine
 10
56.43911313959265
 20
55.92898932887272
 11
46.25911313959213
 21
43.42798932887315
  0
LINE
  5
14C
100
AcDbEntity
  8
virtual
  6
ByLayer
 62
  256
370
   -1
100
AcDbLine
 10
46.25911313959213
 20
43.42798932887315
 11
40.25980051803759
 21
48.51198487079584
  0
LINE
  5
14D
100
AcDbEntity
  8
virtual
  6
ByLayer
 62
  256
370
   -1
100
AcDbLine
 10
46.25911313959218
 20
43.42798932887311
 11
44.62192896209967
 21
41.41778512168342
  0
LINE
  5
14E
100
AcDbEntity
  8
virtual
  6
ByLayer
 62
  256
370
   -1
100
AcDbLine
 10
44.62192896209967
 20
41.41778512168342
 11
45.78874716817575
 21
30.14997749830201
  0
LINE
  5
14F
100
AcDbEntity
  8
virtual
  6
ByLayer
 62
  256
370
   -1
100
AcDbLine
 10
45.78874716817575
 20
30.14997749830201
 11
49.1631131395887
 21
27.41598932886899
  0
LINE
  5
150
100
AcDbEntity
  8
virtual
  6
ByLayer
 62
  256
370
   -1
100
AcDbLine
 10
49.1631131395887
 20
27.41598932886899
 11
55.86511313959318
 21
35.6449893288723
  0
LINE
  5
151
100
AcDbEntity
  8
virtual
  6
ByLayer
 62
  256
370
   -1
100
AcDbLine
 10
55.86511313959318
 20
35.6449893288723
 11
46.25911313959219
 21
43.4279893288731
  0
LINE
  5
152
100
AcDbEntity
  8
virtual
  6
ByLayer
 62
  256
370
   -1
100
AcDbLine
 10
55.86511313959318
 20
35.6449893288723
 11
65.1271131395921
 21
28.01798932887316
  0
LINE
  5
153
100
AcDbEntity
  8
virtual
  6
ByLayer
 62
  256
370
   -1
100
AcDbLine
 10
65.1271131395921
 20
28.01798932887316
 11
58.2811131395877
 21
19.61198932886774
  0
LINE
  5
154
100
AcDbEntity
  8
virtual
  6
ByLayer
 62
  256
370
   -1
100
AcDbLine
 10
58.2811131395877
 20
19.61198932886774
 11
49.17439407964366
 21
27.42984054577622
  0
LINE
  5
155
100
AcDbEntity
  8
virtual
  6
ByLayer
 62
  256
370
   -1
100
AcDbLine
 10
49.17439407964366
 20
27.42984054577622
 11
44.13336446992564
 21
21.22869931865893
  0
LINE
  5
156
100
AcDbEntity
  8
virtual
  6
ByLayer
 62
  256
370
   -1
100
AcDbLine
 10
53.28849259428249
 20
13.4703720725117
 11
58.28111313861406
 21
19.61198932970358
  0
LINE
  5
157
100
AcDbEntity
  8
virtual
  6
ByLayer
 62
  256
370
   -1
100
AcDbLine
 10
58.28111313861406
 20
19.61198932970358
 11
81.5881131395921
 21
-0.1770106711268742
  0
LINE
  5
158
100
AcDbEntity
  8
virtual
  6
ByLayer
 62
  256
370
   -1
100
AcDbLine
 10
81.5881131395921
 20
-0.1770106711268742
 11
88.79011313959208
 21
8.685989328873138
  0
LINE
  5
159
100
AcDbEntity
  8
virtual
  6
ByLayer
 62
  256
370
   -1
100
AcDbLine
 10
88.79011313959208
 20
8.685989328873138
 11
65.1271131395921
 21
28.01798932887316
  0
LINE
  5
15A
100
AcDbEntity
  8
virtual
  6
ByLayer
 62
  256
370
   -1
100
AcDbLine
 10
65.1271131395921
 20
28.01798932887316
 11
75.25511313959211
 21
40.38198932887315
  0
LINE
  5
15B
100
AcDbEntity
  8
virtual
  6
ByLayer
 62
  256
370
   -1
100
AcDbLine
 10
104.3741802325402
 20
16.38724461766404
 11
98.79211313959685
 21
20.98698932887901
  0
LINE
  5
15C
100
AcDbEntity
  8
virtual
  6
ByLayer
 62
  256
370
   -1
100
AcDbLine
 10
98.79211313959685
 20
20.98698932887901
 11
88.79011313967378
 21
8.685989328806393
  0
LINE
  5
15D
100
AcDbEntity
  8
virtual
  6
ByLayer
 62
  256
370
   -1
100
AcDbLine
 10
88.79011313967378
 20
8.685989328806393
 11
94.27650180013708
 21
4.036660772258662
  0
LINE
  5
15E
100
AcDbEntity
  8
virtual
  6
ByLayer
 62
  256
370
   -1
100
AcDbLine
 10
55.86540686998418
 20
35.64474745004568
 11
65.99511313983308
 21
48.02798932867393
  0
LINE
  5
15F
100
AcDbEntity
  8
board_yellow
  6
ByLayer
 62
  256
370
   -1
100
AcDbLine
 10
-30.51884608180998
 20
60.91058762716413
 11
-20.96284608180999
 21
53.00958762716412
  0
LINE
  5
160
100
AcDbEntity
  8
board_yellow
  6
ByLayer
 62
  256
370
   -1
100
AcDbLine
 10
-11.88587482032268
 20
45.12141187698194
 11
11.65112517967729
 21
25.72641187698193
  0
LINE
  5
161
100
AcDbEntity
  8
ref_line_e
  6
ByLayer
 62
  256
370
   -1
100
AcDbLine
 10
-11.41905693563299
 20
39.68599240741704
 11
-14.31466542222096
 21
42.13981696459652
  0
LINE
  5
162
100
AcDbEntity
  8
ref_line_e
  6
ByLayer
 62
  256
370
   -1
100
AcDbLine
 10
-14.31466542222096
 20
42.13981696459652
 11
-23.46182413486232
 21
49.89139069476795
  0
ARC
  5
163
100
AcDbEntity
  8
ref_line_e
  6
ByLayer
 62
  256
370
   -1
100
AcDbCircle
 10
-1.780131965141214
 20
19.46235786347954
 40
9.197080056377354
100
AcDbArc
 50
320.731009134904
 51
49.7210690724917
  0
LINE
  5
164
100
AcDbEntity
  8
ref_line_e
  6
ByLayer
 62
  256
370
   -1
100
AcDbLine
 10
-11.41905693563295
 20
39.68599240741709
 11
4.165865675299424
 21
26.47886651260757
  0
ARC
  5
165
100
AcDbEntity
  8
ref_line_e
  6
ByLayer
 62
  256
370
   -1
100
AcDbCircle
 10
-34.36802929748776
 20
48.11191067085853
 40
8.401317792427736
100
AcDbArc
 50
49.72106907249168
 51
141.0783782061437
  0
ARC
  5
166
100
AcDbEntity
  8
ref_line_e
  6
ByLayer
 62
  256
370
   -1
100
AcDbCircle
 10
-4.953964097479788
 20
47.3150535943562
 40
10.00000000000009
100
AcDbArc
 50
140.8533279417427
 51
229.7210690724916
  0
LINE
  5
167
100
AcDbEntity
  8
ref_line_e
  6
ByLayer
 62
  256
370
   -1
100
AcDbLine
 10
-23.46182413486233
 20
49.89139069476796
 11
-28.93649934840045
 21
54.52132741979368
  0
LINE
  5
168
100
AcDbEntity
  8
ref_line_e
  6
ByLayer
 62
  256
370
   -1
100
AcDbLine
 10
5.340090046860998
 20
13.64095596503504
 11
18.8364209056348
 21
30.1643834615802
  0
LINE
  5
169
100
AcDbEntity
  8
ref_line_e
  6
ByLayer
 62
  256
370
   -1
100
AcDbLine
 10
-40.90430593724697
 20
53.39009486032187
 11
-28.16364435353995
 21
68.99525456583468
  0
LINE
  5
16A
100
AcDbEntity
  8
board_yellow
  6
ByLayer
 62
  256
370
   -1
100
AcDbLine
 10
-20.96284608180999
 20
53.00958762716412
 11
-11.88687919230246
 21
45.12223950134137
  0
LINE
  5
16B
100
AcDbEntity
  8
board_yellow
  6
ByLayer
 62
  256
370
   -1
100
AcDbLine
 10
-30.58998071889884
 20
60.97086922951583
 11
-36.59153663630565
 21
66.05676580691234
  0
LINE
  5
16C
100
AcDbEntity
  8
board_yellow
  6
ByLayer
 62
  256
370
   -1
100
AcDbLine
 10
11.65112517967729
 20
25.72641187698193
 11
17.2331922726254
 21
21.12666716577283
  0
LINE
  5
16D
100
AcDbEntity
  8
virtual
  6
ByLayer
 62
  256
370
   -1
100
AcDbLine
 10
-12.70928822817862
 20
53.62813110281452
 11
-7.853715819510142
 21
59.59297611344596
  0
LINE
  5
16E
100
AcDbEntity
  8
ref_line_e
  6
ByLayer
 62
  256
370
   -1
100
AcDbLine
 10
-21.56768378485322
 20
42.74600391136361
 11
-12.70928822817862
 21
53.62813110281452
  0
LINE
  5
16F
100
AcDbEntity
  8
virtual
  6
ByLayer
 62
  256
370
   -1
100
AcDbLine
 10
-12.70928844096464
 20
53.62813084141678
 11
-11.47251315618837
 21
55.14745179181592
  0
LINE
  5
170
100
AcDbEntity
  8
ref_line_e
  6
ByLayer
 62
  256
370
   -1
100
AcDbLine
 10
-12.70928858805318
 20
53.62813066072534
 11
-11.47251315618837
 21
55.14745179181592
  0
LINE
  5
171
100
AcDbEntity
  8
ref_line_e
  6
ByLayer
 62
  256
370
   -1
100
AcDbLine
 10
-11.47251315618837
 20
55.14745179181592
 11
26.80093157784287
 21
102.1645996473184
  0
ENDSEC
  0
SECTION
  2
OBJECTS
  0
DICTIONARY
  5
C
330
0
100
AcDbDictionary
281
    1
  3
ACAD_GROUP
350
D
  0
DICTIONARY
  5
D
330
C
100
AcDbDictionary
281
    1
  0
ENDSEC
  0
EOF
