999
dxfrw 0.6.3
  0
SECTION
  2
HEADER
  9
$ACADVER
  1
AC1021
  9
$DWGCODEPAGE
  3
ANSI_936
  9
$INSBASE
 10
0
 20
0
 30
0
  9
$EXTMIN
 10
0
 20
-950.0000000000072
 30
0
  9
$EXTMAX
 10
132750
 20
113055.042081269
 30
0
  9
$LIMMIN
 10
0
 20
0
  9
$LIMMAX
 10
50000
 20
32000
  9
$ORTHOMODE
 70
    1
  9
$REGENMODE
 70
    1
  9
$FILLMODE
 70
    1
  9
$QTEXTMODE
 70
    0
  9
$MIRRTEXT
 70
    0
  9
$LTSCALE
 40
1000
  9
$ATTMODE
 70
    1
  9
$TEXTSIZE
 40
350
  9
$TRACEWID
 40
0.05
  9
$TEXTSTYLE
  7
YQ_DIM
  9
$CLAYER
  8
board
  9
$CELTYPE
  6
DASH
  9
$CECOLOR
 62
  256
  9
$CELTSCALE
 40
1
  9
$DISPSILH
 70
    0
  9
$DIMSCALE
 40
500
  9
$DIMASZ
 40
1
  9
$DIMEXO
 40
3
  9
$DIMDLI
 40
6
  9
$DIMRND
 40
0
  9
$DIMDLE
 40
0
  9
$DIMEXE
 40
1.5
  9
$DIMTP
 40
0
  9
$DIMTM
 40
0
  9
$DIMTXT
 40
3
  9
$DIMCEN
 40
0
  9
$DIMTSZ
 40
0
  9
$DIMTOL
 70
    0
  9
$DIMLIM
 70
    0
  9
$DIMTIH
 70
    0
  9
$DIMTOH
 70
    0
  9
$DIMSE1
 70
    0
  9
$DIMSE2
 70
    0
  9
$DIMTAD
 70
    1
  9
$DIMZIN
 70
    0
  9
$DIMBLK
  1
YQTICK
  9
$DIMASO
 70
    1
  9
$DIMSHO
 70
    1
  9
$DIMPOST
  1

  9
$DIMAPOST
  1

  9
$DIMALT
 70
    0
  9
$DIMALTD
 70
    2
  9
$DIMALTF
 40
25.4
  9
$DIMLFAC
 40
1
  9
$DIMTOFL
 70
    1
  9
$DIMTVP
 40
0
  9
$DIMTIX
 70
    1
  9
$DIMSOXD
 70
    0
  9
$DIMSAH
 70
    0
  9
$DIMBLK1
  1

  9
$DIMBLK2
  1

  9
$DIMSTYLE
  2
yq500
  9
$DIMCLRD
 70
  256
  9
$DIMCLRE
 70
  256
  9
$DIMCLRT
 70
    7
  9
$DIMTFAC
 40
1
  9
$DIMGAP
 40
0.5
  9
$DIMJUST
 70
    0
  9
$DIMSD1
 70
    0
  9
$DIMSD2
 70
    0
  9
$DIMTOLJ
 70
    1
  9
$DIMTZIN
 70
    0
  9
$DIMALTZ
 70
    0
  9
$DIMALTTZ
 70
    0
  9
$DIMUPT
 70
    0
  9
$DIMDEC
 70
    0
  9
$DIMTDEC
 70
    4
  9
$DIMALTU
 70
    2
  9
$DIMALTTD
 70
    2
  9
$DIMTXSTY
  7
YQ_DIM
  9
$DIMAUNIT
 70
    0
  9
$DIMADEC
 70
    1
  9
$DIMALTRND
 40
0
  9
$DIMAZIN
 70
    2
  9
$DIMDSEP
 70
   46
  9
$DIMATFIT
 70
    2
  9
$DIMFRAC
 70
    0
  9
$DIMLDRBLK
  1

  9
$DIMLUNIT
 70
    2
  9
$DIMLWD
 70
   -2
  9
$DIMLWE
 70
   -2
  9
$DIMTMOVE
 70
    2
  9
$DIMFXL
 40
1
  9
$DIMFXLON
 70
    0
  9
$DIMJOGANG
 40
0.7853981633974483
  9
$DIMTFILL
 70
    0
  9
$DIMTFILLCLR
 70
    0
  9
$DIMARCSYM
 70
    0
  9
$DIMLTYPE
  6

  9
$DIMLTEX1
  6

  9
$DIMLTEX2
  6

  9
$LUNITS
 70
    2
  9
$LUPREC
 70
    0
  9
$SKETCHINC
 40
0.1
  9
$FILLETRAD
 40
1000
  9
$AUNITS
 70
    0
  9
$AUPREC
 70
    0
  9
$MENU
  1
.
  9
$ELEVATION
 40
0
  9
$PELEVATION
 40
0
  9
$THICKNESS
 40
0
  9
$LIMCHECK
 70
    0
  9
$CHAMFERA
 40
0
  9
$CHAMFERB
 40
0
  9
$CHAMFERC
 40
0
  9
$CHAMFERD
 40
0
  9
$SKPOLY
 70
    0
  9
$USRTIMER
 70
    1
  9
$ANGBASE
 50
0
  9
$ANGDIR
 70
    0
  9
$PDMODE
 70
    0
  9
$PDSIZE
 40
0
  9
$PLINEWID
 40
100
  9
$SPLFRAME
 70
    0
  9
$SPLINETYPE
 70
    6
  9
$SPLINESEGS
 70
    8
  9
$HANDSEED
  5
20000
  9
$SURFTAB1
 70
    6
  9
$SURFTAB2
 70
    6
  9
$SURFTYPE
 70
    6
  9
$SURFU
 70
    6
  9
$SURFV
 70
    6
  9
$UCSBASE
  2

  9
$UCSNAME
  2

  9
$UCSORG
 10
0
 20
0
 30
0
  9
$UCSXDIR
 10
1
 20
0
 30
0
  9
$UCSYDIR
 10
0
 20
1
 30
0
  9
$UCSORTHOREF
  2

  9
$UCSORTHOVIEW
 70
    0
  9
$UCSORGTOP
 10
0
 20
0
 30
0
  9
$UCSORGBOTTOM
 10
0
 20
0
 30
0
  9
$UCSORGLEFT
 10
0
 20
0
 30
0
  9
$UCSORGRIGHT
 10
0
 20
0
 30
0
  9
$UCSORGFRONT
 10
0
 20
0
 30
0
  9
$UCSORGBACK
 10
0
 20
0
 30
0
  9
$PUCSBASE
  2

  9
$PUCSNAME
  2

  9
$PUCSORG
 10
0
 20
0
 30
0
  9
$PUCSXDIR
 10
1
 20
0
 30
0
  9
$PUCSYDIR
 10
0
 20
1
 30
0
  9
$PUCSORTHOREF
  2

  9
$PUCSORTHOVIEW
 70
    0
  9
$PUCSORGTOP
 10
0
 20
0
 30
0
  9
$PUCSORGBOTTOM
 10
0
 20
0
 30
0
  9
$PUCSORGLEFT
 10
0
 20
0
 30
0
  9
$PUCSORGRIGHT
 10
0
 20
0
 30
0
  9
$PUCSORGFRONT
 10
0
 20
0
 30
0
  9
$PUCSORGBACK
 10
0
 20
0
 30
0
  9
$USERI1
 70
    0
  9
$USERI2
 70
    0
  9
$USERI3
 70
    0
  9
$USERI4
 70
    0
  9
$USERI5
 70
    0
  9
$USERR1
 40
0
  9
$USERR2
 40
0
  9
$USERR3
 40
0
  9
$USERR4
 40
0
  9
$USERR5
 40
0
  9
$WORLDVIEW
 70
    1
  9
$SHADEDGE
 70
    3
  9
$SHADEDIF
 70
   70
  9
$TILEMODE
 70
    1
  9
$MAXACTVP
 70
   64
  9
$PINSBASE
 10
0
 20
0
 30
0
  9
$PLIMCHECK
 70
    0
  9
$PEXTMIN
 10
0
 20
0
 30
0
  9
$PEXTMAX
 10
0
 20
0
 30
0
  9
$GRIDMODE
 70
    0
  9
$SNAPSTYLE
 70
    0
  9
$PLIMMIN
 10
0
 20
0
  9
$PLIMMAX
 10
12
 20
9
  9
$UNITMODE
 70
    0
  9
$VISRETAIN
 70
    1
  9
$PLINEGEN
 70
    0
  9
$PSLTSCALE
 70
    1
  9
$TREEDEPTH
 70
 3020
  9
$CMLSTYLE
  2
Standard
  9
$CMLJUST
 70
    0
  9
$CMLSCALE
 40
1
  9
$PROXYGRAPHICS
 70
    1
  9
$MEASUREMENT
 70
    0
  9
$CELWEIGHT
370
   -1
  9
$ENDCAPS
280
    0
  9
$JOINSTYLE
280
    0
  9
$LWDISPLAY
290
    1
  9
$INSUNITS
 70
    0
  9
$HYPERLINKBASE
  1

  9
$STYLESHEET
  1

  9
$XEDIT
290
    1
  9
$CEPSNTYPE
380
    0
  9
$PSTYLEMODE
290
    1
  9
$EXTNAMES
290
    1
  9
$PSVPSCALE
 40
0
  9
$OLESTARTUP
290
    0
  9
$SORTENTS
280
  127
  9
$INDEXCTL
280
    0
  9
$HIDETEXT
280
    1
  9
$XCLIPFRAME
290
    0
  9
$HALOGAP
280
    0
  9
$OBSCOLOR
 70
  257
  9
$OBSLTYPE
280
    0
  9
$INTERSECTIONDISPLAY
280
    0
  9
$INTERSECTIONCOLOR
 70
  257
  9
$DIMASSOC
280
    2
  9
$PROJECTNAME
  1

  9
$CAMERADISPLAY
290
    0
  9
$LENSLENGTH
 40
50
  9
$CAMERAHEIGHT
 40
0
  9
$STEPSPERSEC
 40
2
  9
$STEPSIZE
 40
6
  9
$3DDWFPREC
 40
2
  9
$PSOLWIDTH
 40
0.25
  9
$PSOLHEIGHT
 40
4
  9
$LOFTANG1
 40
1.570796326794896
  9
$LOFTANG2
 40
1.570796326794896
  9
$LOFTMAG1
 40
0
  9
$LOFTMAG2
 40
0
  9
$LOFTPARAM
 70
    7
  9
$LOFTNORMALS
280
    1
  9
$LATITUDE
 40
37.795
  9
$LONGITUDE
 40
-122.394
  9
$NORTHDIRECTION
 40
0
  9
$TIMEZONE
 70
-8000
  9
$LIGHTGLYPHDISPLAY
280
    1
  9
$TILEMODELIGHTSYNCH
280
    1
  9
$SOLIDHIST
280
    0
  9
$SHOWHIST
280
    1
  9
$DWFFRAME
280
    2
  9
$DGNFRAME
280
    0
  9
$REALWORLDSCALE
290
    1
  9
$INTERFERECOLOR
 62
    1
  9
$CSHADOW
280
    0
  9
$SHADOWPLANELOCATION
 40
0
  0
ENDSEC
  0
SECTION
  2
CLASSES
  0
ENDSEC
  0
SECTION
  2
TABLES
  0
TABLE
  2
VPORT
  5
8
330
0
100
AcDbSymbolTable
 70
    1
  0
VPORT
  5
31
330
2
100
AcDbSymbolTableRecord
100
AcDbViewportTableRecord
  2
*ACTIVE
 70
    0
 10
0
 20
0
 11
1
 21
1
 12
98202.97564959442
 22
56215.13093722366
 13
0
 23
0
 14
10
 24
10
 15
10
 25
10
 16
0
 26
0
 36
1
 17
0
 27
0
 37
0
 40
113401.8814215104
 41
1.903304773561812
 42
50
 43
0
 44
0
 50
0
 51
0
 71
    0
 72
  100
 73
    1
 74
    3
 75
    0
 76
    0
 77
    0
 78
    0
281
    0
 65
    1
110
0
120
0
130
0
111
1
121
0
131
0
112
0
122
1
132
0
 79
    0
146
0
348
10020
 60
    7
 61
    5
292
1
282
    1
141
0
142
0
 63
  250
421
3358443
  0
ENDTAB
  0
TABLE
  2
LTYPE
  5
5
330
0
100
AcDbSymbolTable
 70
    4
  0
LTYPE
  5
14
330
5
100
AcDbSymbolTableRecord
100
AcDbLinetypeTableRecord
  2
ByBlock
 70
    0
  3

 72
   65
 73
    0
 40
0
  0
LTYPE
  5
15
330
5
100
AcDbSymbolTableRecord
100
AcDbLinetypeTableRecord
  2
ByLayer
 70
    0
  3

 72
   65
 73
    0
 40
0
  0
LTYPE
  5
16
330
5
100
AcDbSymbolTableRecord
100
AcDbLinetypeTableRecord
  2
Continuous
 70
    0
  3
Solid line
 72
   65
 73
    0
 40
0
  0
LTYPE
  5
32
330
5
100
AcDbSymbolTableRecord
100
AcDbLinetypeTableRecord
  2
DOT
 70
    0
  3
Dot . . . . . . . . . . . . . . . . . . . . . .
 72
   65
 73
    2
 40
6.35
 49
0
 74
    0
 49
-6.35
 74
    0
  0
LTYPE
  5
33
330
5
100
AcDbSymbolTableRecord
100
AcDbLinetypeTableRecord
  2
DOTTINY
 70
    0
  3
Dot (.15x) .....................................
 72
   65
 73
    2
 40
0.9525
 49
0
 74
    0
 49
-0.9525
 74
    0
  0
LTYPE
  5
34
330
5
100
AcDbSymbolTableRecord
100
AcDbLinetypeTableRecord
  2
DOT2
 70
    0
  3
Dot (.5x) .....................................
 72
   65
 73
    2
 40
3.175
 49
0
 74
    0
 49
-3.175
 74
    0
  0
LTYPE
  5
35
330
5
100
AcDbSymbolTableRecord
100
AcDbLinetypeTableRecord
  2
DOTX2
 70
    0
  3
Dot (2x) .  .  .  .  .  .  .  .  .  .  .  .  .
 72
   65
 73
    2
 40
12.7
 49
0
 74
    0
 49
-12.7
 74
    0
  0
LTYPE
  5
36
330
5
100
AcDbSymbolTableRecord
100
AcDbLinetypeTableRecord
  2
DASHED
 70
    0
  3
Dashed _ _ _ _ _ _ _ _ _ _ _ _ _ _ _ _ _
 72
   65
 73
    2
 40
19.05
 49
12.7
 74
    0
 49
-6.35
 74
    0
  0
LTYPE
  5
37
330
5
100
AcDbSymbolTableRecord
100
AcDbLinetypeTableRecord
  2
DASHEDTINY
 70
    0
  3
Dashed (.15x) _ _ _ _ _ _ _ _ _ _ _ _ _ _ _ _ _
 72
   65
 73
    2
 40
2.8575
 49
1.905
 74
    0
 49
-0.9525
 74
    0
  0
LTYPE
  5
38
330
5
100
AcDbSymbolTableRecord
100
AcDbLinetypeTableRecord
  2
DASHED2
 70
    0
  3
Dashed (.5x) _ _ _ _ _ _ _ _ _ _ _ _ _ _ _ _ _
 72
   65
 73
    2
 40
9.524999999999999
 49
6.35
 74
    0
 49
-3.175
 74
    0
  0
LTYPE
  5
39
330
5
100
AcDbSymbolTableRecord
100
AcDbLinetypeTableRecord
  2
DASHEDX2
 70
    0
  3
Dashed (2x) ____  ____  ____  ____  ____  ___
 72
   65
 73
    2
 40
38.09999999999999
 49
25.4
 74
    0
 49
-12.7
 74
    0
  0
LTYPE
  5
3A
330
5
100
AcDbSymbolTableRecord
100
AcDbLinetypeTableRecord
  2
DASHDOT
 70
    0
  3
Dash dot __ . __ . __ . __ . __ . __ . __ . __
 72
   65
 73
    4
 40
25.4
 49
12.7
 74
    0
 49
-6.35
 74
    0
 49
0
 74
    0
 49
-6.35
 74
    0
  0
LTYPE
  5
3B
330
5
100
AcDbSymbolTableRecord
100
AcDbLinetypeTableRecord
  2
DASHDOTTINY
 70
    0
  3
Dash dot (.15x) _._._._._._._._._._._._._._._.
 72
   65
 73
    4
 40
3.81
 49
1.905
 74
    0
 49
-0.9525
 74
    0
 49
0
 74
    0
 49
-0.9525
 74
    0
  0
LTYPE
  5
3C
330
5
100
AcDbSymbolTableRecord
100
AcDbLinetypeTableRecord
  2
DASHDOT2
 70
    0
  3
Dash dot (.5x) _._._._._._._._._._._._._._._.
 72
   65
 73
    4
 40
12.7
 49
6.35
 74
    0
 49
-3.175
 74
    0
 49
0
 74
    0
 49
-3.175
 74
    0
  0
LTYPE
  5
3D
330
5
100
AcDbSymbolTableRecord
100
AcDbLinetypeTableRecord
  2
DASHDOTX2
 70
    0
  3
Dash dot (2x) ____  .  ____  .  ____  .  ___
 72
   65
 73
    4
 40
50.8
 49
25.4
 74
    0
 49
-12.7
 74
    0
 49
0
 74
    0
 49
-12.7
 74
    0
  0
LTYPE
  5
3E
330
5
100
AcDbSymbolTableRecord
100
AcDbLinetypeTableRecord
  2
DIVIDE
 70
    0
  3
Divide ____ . . ____ . . ____ . . ____ . . ____
 72
   65
 73
    6
 40
31.75
 49
12.7
 74
    0
 49
-6.35
 74
    0
 49
0
 74
    0
 49
-6.35
 74
    0
 49
0
 74
    0
 49
-6.35
 74
    0
  0
LTYPE
  5
3F
330
5
100
AcDbSymbolTableRecord
100
AcDbLinetypeTableRecord
  2
DIVIDETINY
 70
    0
  3
Divide (.15x) __..__..__..__..__..__..__..__.._
 72
   65
 73
    6
 40
4.7625
 49
1.905
 74
    0
 49
-0.9525
 74
    0
 49
0
 74
    0
 49
-0.9525
 74
    0
 49
0
 74
    0
 49
-0.9525
 74
    0
  0
LTYPE
  5
40
330
5
100
AcDbSymbolTableRecord
100
AcDbLinetypeTableRecord
  2
DIVIDE2
 70
    0
  3
Divide (.5x) __..__..__..__..__..__..__..__.._
 72
   65
 73
    6
 40
15.875
 49
6.35
 74
    0
 49
-3.175
 74
    0
 49
0
 74
    0
 49
-3.175
 74
    0
 49
0
 74
    0
 49
-3.175
 74
    0
  0
LTYPE
  5
41
330
5
100
AcDbSymbolTableRecord
100
AcDbLinetypeTableRecord
  2
DIVIDEX2
 70
    0
  3
Divide (2x) ________  .  .  ________  .  .  _
 72
   65
 73
    6
 40
63.5
 49
25.4
 74
    0
 49
-12.7
 74
    0
 49
0
 74
    0
 49
-12.7
 74
    0
 49
0
 74
    0
 49
-12.7
 74
    0
  0
LTYPE
  5
42
330
5
100
AcDbSymbolTableRecord
100
AcDbLinetypeTableRecord
  2
BORDER
 70
    0
  3
Border __ __ . __ __ . __ __ . __ __ . __ __ .
 72
   65
 73
    6
 40
44.45
 49
12.7
 74
    0
 49
-6.35
 74
    0
 49
12.7
 74
    0
 49
-6.35
 74
    0
 49
0
 74
    0
 49
-6.35
 74
    0
  0
LTYPE
  5
43
330
5
100
AcDbSymbolTableRecord
100
AcDbLinetypeTableRecord
  2
BORDERTINY
 70
    0
  3
Border (.15x) __.__.__.__.__.__.__.__.__.__.__.
 72
   65
 73
    6
 40
6.6675
 49
1.905
 74
    0
 49
-0.9525
 74
    0
 49
1.905
 74
    0
 49
-0.9525
 74
    0
 49
0
 74
    0
 49
-0.9525
 74
    0
  0
LTYPE
  5
44
330
5
100
AcDbSymbolTableRecord
100
AcDbLinetypeTableRecord
  2
BORDER2
 70
    0
  3
Border (.5x) __.__.__.__.__.__.__.__.__.__.__.
 72
   65
 73
    6
 40
22.225
 49
6.35
 74
    0
 49
-3.175
 74
    0
 49
6.35
 74
    0
 49
-3.175
 74
    0
 49
0
 74
    0
 49
-3.175
 74
    0
  0
LTYPE
  5
45
330
5
100
AcDbSymbolTableRecord
100
AcDbLinetypeTableRecord
  2
BORDERX2
 70
    0
  3
Border (2x) ____  ____  .  ____  ____  .  ___
 72
   65
 73
    6
 40
88.89999999999999
 49
25.4
 74
    0
 49
-12.7
 74
    0
 49
25.4
 74
    0
 49
-12.7
 74
    0
 49
0
 74
    0
 49
-12.7
 74
    0
  0
LTYPE
  5
46
330
5
100
AcDbSymbolTableRecord
100
AcDbLinetypeTableRecord
  2
CENTER
 70
    0
  3
Center ____ _ ____ _ ____ _ ____ _ ____ _ ____
 72
   65
 73
    4
 40
50.8
 49
31.75
 74
    0
 49
-6.35
 74
    0
 49
6.35
 74
    0
 49
-6.35
 74
    0
  0
LTYPE
  5
47
330
5
100
AcDbSymbolTableRecord
100
AcDbLinetypeTableRecord
  2
CENTERTINY
 70
    0
  3
Center (.15x) ___ _ ___ _ ___ _ ___ _ ___ _ ___
 72
   65
 73
    4
 40
7.619999999999999
 49
4.7625
 74
    0
 49
-0.9525
 74
    0
 49
0.9525
 74
    0
 49
-0.9525
 74
    0
  0
LTYPE
  5
48
330
5
100
AcDbSymbolTableRecord
100
AcDbLinetypeTableRecord
  2
CENTER2
 70
    0
  3
Center (.5x) ___ _ ___ _ ___ _ ___ _ ___ _ ___
 72
   65
 73
    4
 40
28.575
 49
19.05
 74
    0
 49
-3.175
 74
    0
 49
3.175
 74
    0
 49
-3.175
 74
    0
  0
LTYPE
  5
49
330
5
100
AcDbSymbolTableRecord
100
AcDbLinetypeTableRecord
  2
CENTERX2
 70
    0
  3
Center (2x) ________  __  ________  __  _____
 72
   65
 73
    4
 40
101.6
 49
63.5
 74
    0
 49
-12.7
 74
    0
 49
12.7
 74
    0
 49
-12.7
 74
    0
  0
ENDTAB
  0
TABLE
  2
LAYER
  5
2
330
0
100
AcDbSymbolTable
 70
    1
  0
LAYER
  5
10
330
2
100
AcDbSymbolTableRecord
100
AcDbLayerTableRecord
  2
0
 70
    5
 62
    7
  6
CONTINUOUS
370
   -3
390
F
  0
LAYER
  5
4A
330
2
100
AcDbSymbolTableRecord
100
AcDbLayerTableRecord
  2
ASHADE
 70
    5
 62
    7
  6
CONTINUOUS
370
   -3
390
F
  0
LAYER
  5
4B
330
2
100
AcDbSymbolTableRecord
100
AcDbLayerTableRecord
  2
Defpoints
 70
    5
 62
    7
  6
CONTINUOUS
290
0
370
   -3
390
F
1001
LibreCad
1070
    1
  0
LAYER
  5
4C
330
2
100
AcDbSymbolTableRecord
100
AcDbLayerTableRecord
  2
PUB_DIM
 70
    5
 62
    3
  6
CONTINUOUS
370
   -3
390
F
  0
LAYER
  5
4D
330
2
100
AcDbSymbolTableRecord
100
AcDbLayerTableRecord
  2
YQ_DIM
 70
    5
 62
    3
  6
CONTINUOUS
370
   -3
390
F
  0
LAYER
  5
4E
330
2
100
AcDbSymbolTableRecord
100
AcDbLayerTableRecord
  2
append
 70
    5
 62
    2
  6
CONTINUOUS
370
    0
390
F
  0
LAYER
  5
4F
330
2
100
AcDbSymbolTableRecord
100
AcDbLayerTableRecord
  2
ass
 70
    5
 62
    7
  6
CONTINUOUS
370
    0
390
F
  0
LAYER
  5
50
330
2
100
AcDbSymbolTableRecord
100
AcDbLayerTableRecord
  2
board
 70
    0
 62
    3
  6
CONTINUOUS
370
    0
390
F
  0
LAYER
  5
51
330
2
100
AcDbSymbolTableRecord
100
AcDbLayerTableRecord
  2
ref_line
 70
    5
 62
    6
  6
CONTINUOUS
290
0
370
    0
390
F
1001
LibreCad
1070
    1
  0
ENDTAB
  0
TABLE
  2
STYLE
  5
3
330
0
100
AcDbSymbolTable
 70
    3
  0
STYLE
  5
52
330
2
100
AcDbSymbolTableRecord
100
AcDbTextStyleTableRecord
  2
Standard
 70
    0
 40
0
 41
1
 50
0
 71
    0
 42
1
  3
txt
  4

  0
ENDTAB
  0
TABLE
  2
VIEW
  5
6
330
0
100
AcDbSymbolTable
 70
    0
  0
ENDTAB
  0
TABLE
  2
UCS
  5
7
330
0
100
AcDbSymbolTable
 70
    0
  0
ENDTAB
  0
TABLE
  2
APPID
  5
9
330
0
100
AcDbSymbolTable
 70
    1
  0
APPID
  5
12
330
9
100
AcDbSymbolTableRecord
100
AcDbRegAppTableRecord
  2
ACAD
 70
    0
  0
APPID
  5
53
330
9
100
AcDbSymbolTableRecord
100
AcDbRegAppTableRecord
  2
LibreCad
 70
    0
  0
ENDTAB
  0
TABLE
  2
DIMSTYLE
  5
A
330
0
100
AcDbSymbolTable
 70
    1
100
AcDbDimStyleTable
 71
    1
  0
DIMSTYLE
105
54
330
A
100
AcDbSymbolTableRecord
100
AcDbDimStyleTableRecord
  2
Standard
 70
    0
 40
500
 41
1
 42
3
 43
0.38
 44
1.5
 45
0
 46
0
 47
0
 48
0
 49
1
140
3
141
0.09
142
0
143
25.4
144
1
145
0
146
1
147
0.5
148
0
 71
    0
 72
    0
 73
    0
 74
    1
 75
    0
 76
    0
 77
    0
 78
    0
 79
    2
170
    0
171
    2
172
    0
173
    0
174
    0
175
    0
176
  256
177
  256
178
    7
179
    1
271
    0
272
    4
273
    2
274
    2
275
    0
276
    0
277
    2
278
   46
279
    0
280
    0
281
    0
282
    0
283
    1
284
    0
285
    0
286
    0
288
    0
289
    3
340
YQ_DIM
341

371
   -2
372
   -2
  0
ENDTAB
  0
TABLE
  2
BLOCK_RECORD
  5
1
330
0
100
AcDbSymbolTable
 70
    2
  0
BLOCK_RECORD
  5
1F
330
1
100
AcDbSymbolTableRecord
100
AcDbBlockTableRecord
  2
*Model_Space
 70
    0
280
    1
281
    0
  0
BLOCK_RECORD
  5
1E
330
1
100
AcDbSymbolTableRecord
100
AcDbBlockTableRecord
  2
*Paper_Space
 70
    0
280
    1
281
    0
  0
BLOCK_RECORD
  5
55
330
1
100
AcDbSymbolTableRecord
100
AcDbBlockTableRecord
  2
_DIMX
 70
    0
280
    1
281
    0
  0
BLOCK_RECORD
  5
58
330
1
100
AcDbSymbolTableRecord
100
AcDbBlockTableRecord
  2
_ArchTick
 70
    0
280
    1
281
    0
  0
BLOCK_RECORD
  5
5B
330
1
100
AcDbSymbolTableRecord
100
AcDbBlockTableRecord
  2
YQTICK
 70
    0
280
    1
281
    0
  0
ENDTAB
  0
ENDSEC
  0
SECTION
  2
BLOCKS
  0
BLOCK
  5
20
330
1F
100
AcDbEntity
  8
0
100
AcDbBlockBegin
  2
*Model_Space
 70
    0
 10
0
 20
0
 30
0
  3
*Model_Space
  1

  0
ENDBLK
  5
21
330
1F
100
AcDbEntity
  8
0
100
AcDbBlockEnd
  0
BLOCK
  5
1C
330
1B
100
AcDbEntity
  8
0
100
AcDbBlockBegin
  2
*Paper_Space
 70
    0
 10
0
 20
0
 30
0
  3
*Paper_Space
  1

  0
ENDBLK
  5
1D
330
1F
100
AcDbEntity
  8
0
100
AcDbBlockEnd
  0
BLOCK
  5
56
330
55
100
AcDbEntity
  8
0
100
AcDbBlockBegin
  2
_DIMX
 70
    0
 10
0
 20
0
  3
_DIMX
  1

  0
LINE
  5
5E
100
AcDbEntity
  8
0
  6
ByLayer
 62
  256
370
   -1
100
AcDbLine
 10
-150
 20
0
 11
150
 21
0
  0
LWPOLYLINE
  5
5F
100
AcDbEntity
  8
0
  6
ByLayer
 62
  256
370
   -1
100
AcDbPolyline
 90
    2
 70
    0
 43
0
 10
-70
 20
-70
 10
70
 20
70
  0
ENDBLK
  5
57
330
55
100
AcDbEntity
  8
0
100
AcDbBlockEnd
  0
BLOCK
  5
59
330
58
100
AcDbEntity
  8
0
100
AcDbBlockBegin
  2
_ArchTick
 70
    0
 10
0
 20
0
  3
_ArchTick
  1

  0
LWPOLYLINE
  5
60
100
AcDbEntity
  8
0
  6
ByBlock
 62
    0
370
   -1
100
AcDbPolyline
 90
    2
 70
    0
 43
0
 10
-0.5
 20
-0.5
 10
0.5
 20
0.5
  0
ENDBLK
  5
5A
330
58
100
AcDbEntity
  8
0
100
AcDbBlockEnd
  0
BLOCK
  5
5C
330
5B
100
AcDbEntity
  8
0
100
AcDbBlockBegin
  2
YQTICK
 70
    0
 10
0
 20
0
  3
YQTICK
  1

  0
LWPOLYLINE
  5
61
100
AcDbEntity
  8
0
  6
ByLayer
 62
  256
370
   -1
100
AcDbPolyline
 90
    2
 70
    0
 43
0
 10
0.5303300858899105
 20
0.5303300858899106
 10
-0.5303300858899106
 20
-0.5303300858899105
  0
LINE
  5
62
100
AcDbEntity
  8
0
  6
ByLayer
 62
  256
370
   -1
100
AcDbLine
 10
-1
 20
1e-16
 11
1
 21
1e-16
  0
ENDBLK
  5
5D
330
5B
100
AcDbEntity
  8
0
100
AcDbBlockEnd
  0
ENDSEC
  0
SECTION
  2
ENTITIES
  0
LINE
  5
63
100
AcDbEntity
  8
0
  6
ByLayer
 62
    2
370
  100
100
AcDbLine
 10
18750
 20
113050
 11
132750
 21
113050
  0
LINE
  5
64
100
AcDbEntity
  8
0
  6
ByLayer
 62
    2
370
  100
100
AcDbLine
 10
132750
 20
113050
 11
132750
 21
-950
  0
LINE
  5
65
100
AcDbEntity
  8
0
  6
ByLayer
 62
    2
370
  100
100
AcDbLine
 10
132750
 20
-950
 11
18750
 21
-950
  0
LINE
  5
66
100
AcDbEntity
  8
0
  6
ByLayer
 62
    2
370
  100
100
AcDbLine
 10
18750
 20
-950
 11
18750
 21
113050
  0
LINE
  5
67
100
AcDbEntity
  8
0
  6
ByLayer
 62
    2
370
  100
100
AcDbLine
 10
18750
 20
17050
 11
18750
 21
91050
  0
LINE
  5
68
100
AcDbEntity
  8
0
  6
ByLayer
 62
    2
370
  100
100
AcDbLine
 10
120750
 20
-950
 11
36750
 21
-950.0000000000072
  0
LINE
  5
69
100
AcDbEntity
  8
0
  6
ByLayer
 62
    2
370
  100
100
AcDbLine
 10
40750
 20
113050
 11
114750
 21
113050
  0
LINE
  5
6A
100
AcDbEntity
  8
0
  6
ByLayer
 62
    2
370
  100
100
AcDbLine
 10
132750
 20
95550
 11
132750
 21
11050
  0
LINE
  5
6B
100
AcDbEntity
  8
0
  6
ByLayer
 62
    2
370
  100
100
AcDbLine
 10
65750
 20
83050
 11
65750
 21
104050
  0
LINE
  5
6C
100
AcDbEntity
  8
0
  6
ByLayer
 62
    2
370
  100
100
AcDbLine
 10
78750.00000000003
 20
105050
 11
90750.00000000033
 21
105050
  0
LINE
  5
6D
100
AcDbEntity
  8
0
  6
ByLayer
 62
    2
370
  100
100
AcDbLine
 10
107750
 20
104050
 11
107750.0000000001
 21
83050
  0
LINE
  5
6E
100
AcDbEntity
  8
0
  6
ByLayer
 62
    2
370
  100
100
AcDbLine
 10
27750
 20
82050
 11
64750
 21
82050
  0
LINE
  5
6F
100
AcDbEntity
  8
0
  6
ByLayer
 62
    2
370
  100
100
AcDbLine
 10
90750.00000000033
 20
7050
 11
78750.00000000003
 21
7050
  0
LINE
  5
70
100
AcDbEntity
  8
0
  6
ByLayer
 62
    2
370
  100
100
AcDbLine
 10
124750.0000000002
 20
65050.00000000001
 11
124750
 21
13050
  0
LINE
  5
71
100
AcDbEntity
  8
0
  6
ByLayer
 62
    2
370
  100
100
AcDbLine
 10
26750
 20
83049.99999999999
 11
26750
 21
91050
  0
LINE
  5
72
100
AcDbEntity
  8
0
  6
ByLayer
 62
    2
370
  100
100
AcDbLine
 10
27750
 20
66049.99999999999
 11
64750
 21
66050
  0
LINE
  5
73
100
AcDbEntity
  8
0
  6
ByLayer
 62
    2
370
  100
100
AcDbLine
 10
77750.00000000003
 20
8050
 11
77750.00000000003
 21
65050
  0
LINE
  5
74
100
AcDbEntity
  8
0
  6
ByLayer
 62
    2
370
  100
100
AcDbLine
 10
91750.00000000016
 20
104050
 11
91750.00000000032
 21
83050
  0
LINE
  5
75
100
AcDbEntity
  8
0
  6
ByLayer
 62
    2
370
  100
100
AcDbLine
 10
77750.00000000003
 20
83050
 11
77750.00000000003
 21
104050
  0
LINE
  5
76
100
AcDbEntity
  8
0
  6
ByLayer
 62
    2
370
  100
100
AcDbLine
 10
91750.00000000033
 20
65050
 11
91750.00000000016
 21
8050
  0
LINE
  5
77
100
AcDbEntity
  8
0
  6
ByLayer
 62
    2
370
  100
100
AcDbLine
 10
107750.0000000001
 20
65050
 11
107750
 21
8050
  0
LINE
  5
78
100
AcDbEntity
  8
0
  6
ByLayer
 62
    2
370
  100
100
AcDbLine
 10
78750.00000000003
 20
66050
 11
90750.00000000033
 21
66050
  0
LINE
  5
79
100
AcDbEntity
  8
0
  6
ByLayer
 62
    2
370
  100
100
AcDbLine
 10
108750.0000000001
 20
66050
 11
123750.0000000002
 21
66050.00000000001
  0
LINE
  5
7A
100
AcDbEntity
  8
0
  6
ByLayer
 62
    2
370
  100
100
AcDbLine
 10
78750.00000000003
 20
82050
 11
90750.00000000033
 21
82050
  0
LINE
  5
7B
100
AcDbEntity
  8
0
  6
ByLayer
 62
    2
370
  100
100
AcDbLine
 10
108750.0000000001
 20
82050
 11
123750.0000000002
 21
82050
  0
ARC
  5
7C
100
AcDbEntity
  8
0
  6
ByLayer
 62
    2
370
  100
100
AcDbCircle
 10
40750
 20
91050
 40
13999.99999999999
100
AcDbArc
 50
90
 51
180
  0
LWPOLYLINE
  5
7D
100
AcDbEntity
  8
0
  6
ByLayer
 62
    2
370
  100
100
AcDbPolyline
 90
    2
 70
    0
 43
0
 10
27750
 20
74049.99999999999
 10
66750
 20
74050
  0
LWPOLYLINE
  5
7E
100
AcDbEntity
  8
0
  6
ByLayer
 62
    2
370
  100
100
AcDbPolyline
 90
    2
 70
    0
 43
0
 10
77750.00000000003
 20
74050
 10
90750.00000000033
 20
74050
  0
LWPOLYLINE
  5
7F
100
AcDbEntity
  8
0
  6
ByLayer
 62
    2
370
  100
100
AcDbPolyline
 90
    2
 70
    0
 43
0
 10
108750.0000000001
 20
74050
 10
120750.0000000002
 20
74050
  0
LWPOLYLINE
  5
80
100
AcDbEntity
  8
0
  6
ByLayer
 62
    2
370
  100
100
AcDbPolyline
 90
    2
 70
    0
 43
0
 10
99750.0000000001
 20
104050
 10
99750.0000000001
 20
82967.67049953679
  0
LWPOLYLINE
  5
81
100
AcDbEntity
  8
0
  6
ByLayer
 62
    2
370
  100
100
AcDbPolyline
 90
    2
 70
    0
 43
0
 10
69750.00000000003
 20
104050
 10
69750.00000000003
 20
83285.07082988974
  0
LWPOLYLINE
  5
82
100
AcDbEntity
  8
0
  6
ByLayer
 62
    2
370
  100
100
AcDbPolyline
 90
    2
 70
    0
 43
0
 10
73750.00000000003
 20
104050
 10
73750.00000000003
 20
83370.87897447951
  0
ARC
  5
83
100
AcDbEntity
  8
0
  6
ByLayer
 62
    2
370
  100
100
AcDbCircle
 10
78750.00000000003
 20
104050
 40
1000
100
AcDbArc
 50
90
 51
180
  0
ARC
  5
84
100
AcDbEntity
  8
0
  6
ByLayer
 62
    2
370
  100
100
AcDbCircle
 10
90750.00000000033
 20
104050
 40
1000
100
AcDbArc
 50
0
 51
90
  0
ARC
  5
85
100
AcDbEntity
  8
0
  6
ByLayer
 62
    2
370
  100
100
AcDbCircle
 10
90750.00000000033
 20
83050
 40
1000
100
AcDbArc
 50
270
 51
0
  0
ARC
  5
86
100
AcDbEntity
  8
0
  6
ByLayer
 62
    2
370
  100
100
AcDbCircle
 10
78750.00000000003
 20
83050
 40
1000
100
AcDbArc
 50
180
 51
270
  0
LINE
  5
87
100
AcDbEntity
  8
0
  6
ByLayer
 62
    2
370
  100
100
AcDbLine
 10
40750
 20
105050
 11
64750
 21
105050
  0
ARC
  5
88
100
AcDbEntity
  8
0
  6
ByLayer
 62
    2
370
  100
100
AcDbCircle
 10
64750
 20
104050
 40
1000
100
AcDbArc
 50
0
 51
90
  0
ARC
  5
89
100
AcDbEntity
  8
0
  6
ByLayer
 62
    2
370
  100
100
AcDbCircle
 10
64750
 20
83050
 40
1000
100
AcDbArc
 50
270
 51
0
  0
ARC
  5
8A
100
AcDbEntity
  8
0
  6
ByLayer
 62
    2
370
  100
100
AcDbCircle
 10
27750
 20
83049.99999999999
 40
1000
100
AcDbArc
 50
180
 51
270
  0
ARC
  5
8B
100
AcDbEntity
  8
0
  6
ByLayer
 62
    2
370
  100
100
AcDbCircle
 10
90750.00000000033
 20
65050
 40
1000
100
AcDbArc
 50
0
 51
90
  0
ARC
  5
8C
100
AcDbEntity
  8
0
  6
ByLayer
 62
    2
370
  100
100
AcDbCircle
 10
78750.00000000003
 20
8050
 40
1000
100
AcDbArc
 50
180
 51
270
  0
ARC
  5
8D
100
AcDbEntity
  8
0
  6
ByLayer
 62
    2
370
  100
100
AcDbCircle
 10
90750.00000000033
 20
8050
 40
1000
100
AcDbArc
 50
270
 51
0
  0
ARC
  5
8E
100
AcDbEntity
  8
0
  6
ByLayer
 62
    2
370
  100
100
AcDbCircle
 10
108750.0000000001
 20
65050
 40
1000
100
AcDbArc
 50
90
 51
180
  0
ARC
  5
8F
100
AcDbEntity
  8
0
  6
ByLayer
 62
    2
370
  100
100
AcDbCircle
 10
123750.0000000002
 20
65050.00000000001
 40
1000
100
AcDbArc
 50
0
 51
90
  0
LINE
  5
90
100
AcDbEntity
  8
0
  6
ByLayer
 62
    2
370
  100
100
AcDbLine
 10
118750
 20
7050
 11
108750.0000000001
 21
7050
  0
ARC
  5
91
100
AcDbEntity
  8
0
  6
ByLayer
 62
    2
370
  100
100
AcDbCircle
 10
108750.0000000001
 20
8050
 40
1000
100
AcDbArc
 50
180
 51
270
  0
LINE
  5
92
100
AcDbEntity
  8
0
  6
ByLayer
 62
    2
370
  100
100
AcDbLine
 10
26750
 20
17050
 11
26750
 21
65050
  0
LINE
  5
93
100
AcDbEntity
  8
0
  6
ByLayer
 62
    2
370
  100
100
AcDbLine
 10
36750
 20
7050
 11
64750
 21
7050
  0
LINE
  5
94
100
AcDbEntity
  8
0
  6
ByLayer
 62
    2
370
  100
100
AcDbLine
 10
65750
 20
65050
 11
65750
 21
8050
  0
ARC
  5
95
100
AcDbEntity
  8
0
  6
ByLayer
 62
    2
370
  100
100
AcDbCircle
 10
27750
 20
65050
 40
1000
100
AcDbArc
 50
90
 51
180
  0
ARC
  5
96
100
AcDbEntity
  8
0
  6
ByLayer
 62
    2
370
  100
100
AcDbCircle
 10
64750
 20
8050
 40
1000
100
AcDbArc
 50
270
 51
0
  0
LINE
  5
97
100
AcDbEntity
  8
0
  6
ByLayer
 62
    2
370
  100
100
AcDbLine
 10
124750
 20
95550
 11
124750
 21
83049.99936634675
  0
ARC
  5
98
100
AcDbEntity
  8
0
  6
ByLayer
 62
    2
370
  100
100
AcDbCircle
 10
123750.0000000002
 20
83050
 40
1000
100
AcDbArc
 50
270
 51
0
  0
ARC
  5
99
100
AcDbEntity
  8
0
  6
ByLayer
 62
    2
370
  100
100
AcDbCircle
 10
108750.0000000001
 20
83050
 40
1000
100
AcDbArc
 50
180
 51
270
  0
LWPOLYLINE
  5
9A
100
AcDbEntity
  8
0
  6
ByLayer
 62
    2
370
  100
100
AcDbPolyline
 90
    2
 70
    0
 43
0
 10
99750.0000000001
 20
8050
 10
99750.0000000001
 20
62783.87339808012
  0
LINE
  5
9B
100
AcDbEntity
  8
0
  6
ByLayer
 62
    2
370
  100
100
AcDbLine
 10
108750.0000000001
 20
105050
 11
114750
 21
105050
  0
ARC
  5
9C
100
AcDbEntity
  8
0
  6
ByLayer
 62
    2
370
  100
100
AcDbCircle
 10
115166.3995131776
 20
95475.15738229216
 40
9583.892722085762
100
AcDbArc
 50
0.4474392434377576
 51
92.49016218515663
  0
ARC
  5
9D
100
AcDbEntity
  8
0
  6
ByLayer
 62
    2
370
  100
100
AcDbCircle
 10
115171.0054523959
 20
95475.89132246427
 40
17579.15075880469
100
AcDbArc
 50
0.2415433535180535
 51
91.37231555636816
  0
ARC
  5
9E
100
AcDbEntity
  8
0
  6
ByLayer
 62
    2
370
  100
100
AcDbCircle
 10
40750
 20
91049.99999999999
 40
22000.00000000001
100
AcDbArc
 50
90
 51
180
  0
ARC
  5
9F
100
AcDbEntity
  8
0
  6
ByLayer
 62
    2
370
  100
100
AcDbCircle
 10
36750
 20
17050
 40
10000
100
AcDbArc
 50
180
 51
270
  0
ARC
  5
A0
100
AcDbEntity
  8
0
  6
ByLayer
 62
    2
370
  100
100
AcDbCircle
 10
36750
 20
17050
 40
18000
100
AcDbArc
 50
180
 51
270
  0
ARC
  5
A1
100
AcDbEntity
  8
0
  6
ByLayer
 62
    2
370
  100
100
AcDbCircle
 10
118750
 20
13050
 40
6000
100
AcDbArc
 50
270
 51
0
  0
ARC
  5
A2
100
AcDbEntity
  8
0
  6
ByLayer
 62
    2
370
  100
100
AcDbCircle
 10
120750
 20
11050
 40
12000
100
AcDbArc
 50
270
 51
0
  0
ARC
  5
A3
100
AcDbEntity
  8
0
  6
ByLayer
 62
    2
370
  100
100
AcDbCircle
 10
108750.0000000001
 20
104050
 40
1000
100
AcDbArc
 50
90
 51
180
  0
LINE
  5
A4
100
AcDbEntity
  8
0
  6
CONTINUOUS
 62
    2
370
  100
100
AcDbLine
 10
66750
 20
109050
 11
40750.0000000001
 21
109050
  0
LINE
  5
A5
100
AcDbEntity
  8
0
  6
CONTINUOUS
 62
    2
370
  100
100
AcDbLine
 10
22750
 20
83274.77192048715
 11
22750
 21
91050
  0
LINE
  5
A6
100
AcDbEntity
  8
0
  6
CONTINUOUS
 62
    2
370
  100
100
AcDbLine
 10
80750.00000000001
 20
109050
 11
93750.00000000033
 21
109050
  0
LINE
  5
A7
100
AcDbEntity
  8
0
  6
CONTINUOUS
 62
    2
370
  100
100
AcDbLine
 10
111750.0000000001
 20
109050
 11
115592.0109047908
 21
109050
  0
LINE
  5
A8
100
AcDbEntity
  8
0
  6
CONTINUOUS
 62
    2
370
  100
100
AcDbLine
 10
128750
 20
95550
 11
128750
 21
89050
  0
LINE
  5
A9
100
AcDbEntity
  8
0
  6
CONTINUOUS
 62
    2
370
  100
100
AcDbLine
 10
128750
 20
64677.95410908467
 11
128750
 21
13050
  0
LINE
  5
AA
100
AcDbEntity
  8
0
  6
CONTINUOUS
 62
    2
370
  100
100
AcDbLine
 10
95750.00000000025
 20
62510.83691248553
 11
95750.00000000025
 21
8050
  0
LINE
  5
AB
100
AcDbEntity
  8
0
  6
CONTINUOUS
 62
    2
370
  100
100
AcDbLine
 10
111750.0000000001
 20
3050
 11
118750
 21
3050
  0
LINE
  5
AC
100
AcDbEntity
  8
0
  6
CONTINUOUS
 62
    2
370
  100
100
AcDbLine
 10
93750.00000000023
 20
3050.000000000016
 11
80750.00000000015
 21
3050.000000000016
  0
LINE
  5
AD
100
AcDbEntity
  8
0
  6
CONTINUOUS
 62
    2
370
  100
100
AcDbLine
 10
66750
 20
3049.999999999994
 11
36750
 21
3050
  0
LINE
  5
AE
100
AcDbEntity
  8
0
  6
CONTINUOUS
 62
    2
370
  100
100
AcDbLine
 10
22750
 20
17050
 11
22750
 21
64534.91966383846
  0
LINE
  5
AF
100
AcDbEntity
  8
0
  6
CONTINUOUS
 62
    2
370
  100
100
AcDbLine
 10
27750
 20
78049.99999999999
 11
66750.00000000013
 21
78049.99999999999
  0
LINE
  5
B0
100
AcDbEntity
  8
0
  6
CONTINUOUS
 62
    2
370
  100
100
AcDbLine
 10
27750
 20
70050
 11
66750.00000000013
 21
70050
  0
LINE
  5
B1
100
AcDbEntity
  8
0
  6
CONTINUOUS
 62
    2
370
  100
100
AcDbLine
 10
77750.00000000003
 20
70050
 11
90750.00000000033
 21
70050
  0
LINE
  5
B2
100
AcDbEntity
  8
0
  6
CONTINUOUS
 62
    2
370
  100
100
AcDbLine
 10
108750.0000000001
 20
78050
 11
120750.0000000002
 21
78050
  0
LINE
  5
B3
100
AcDbEntity
  8
0
  6
CONTINUOUS
 62
    2
370
  100
100
AcDbLine
 10
108750.0000000001
 20
70050
 11
120750.0000000002
 21
70050
  0
LINE
  5
B4
100
AcDbEntity
  8
0
  6
CONTINUOUS
 62
    2
370
  100
100
AcDbLine
 10
103750.0000000003
 20
82849.49780405987
 11
103750.0000000003
 21
104050
  0
LINE
  5
B5
100
AcDbEntity
  8
0
  6
CONTINUOUS
 62
    2
370
  100
100
AcDbLine
 10
95750.00000000025
 20
104050
 11
95750.00000000025
 21
82967.67049953679
  0
ARC
  5
B6
100
AcDbEntity
  8
0
  6
CONTINUOUS
 62
    2
370
  100
100
AcDbCircle
 10
40750
 20
91050
 40
18000
100
AcDbArc
 50
90
 51
180
  0
ARC
  5
B7
100
AcDbEntity
  8
0
  6
CONTINUOUS
 62
    2
370
  100
100
AcDbCircle
 10
115166.3995131776
 20
95475.15738229216
 40
13583.80666834698
100
AcDbArc
 50
0.3156838080130274
 51
88.20419643877995
  0
ARC
  5
B8
100
AcDbEntity
  8
0
  6
CONTINUOUS
 62
    2
370
  100
100
AcDbCircle
 10
36750
 20
17050
 40
14000
100
AcDbArc
 50
180
 51
270
  0
ARC
  5
B9
100
AcDbEntity
  8
0
  6
CONTINUOUS
 62
    2
370
  100
100
AcDbCircle
 10
118750
 20
13050
 40
10000
100
AcDbArc
 50
270
 51
0
  0
LWPOLYLINE
  5
BA
100
AcDbEntity
  8
0
  6
ByLayer
 62
    2
370
  100
100
AcDbPolyline
 90
    2
 70
    0
 43
0
 10
69799.99919477018
 20
63686.20866912126
 10
69799.99919477018
 20
8049.999947115896
  0
ARC
  5
BB
100
AcDbEntity
  8
0
  6
ByLayer
 62
    2
370
  100
100
AcDbCircle
 10
64750
 20
65050
 40
1000
100
AcDbArc
 50
0
 51
90
  0
ARC
  5
BC
100
AcDbEntity
  8
0
  6
ByLayer
 62
    2
370
  100
100
AcDbCircle
 10
78750.00000000003
 20
65050
 40
1000
100
AcDbArc
 50
90
 51
180
  0
LWPOLYLINE
  5
BD
100
AcDbEntity
  8
0
  6
ByLayer
 62
    2
370
  100
100
AcDbPolyline
 90
    2
 70
    0
 43
0
 10
73849.99884371914
 20
63739.49215297669
 10
73849.99884371914
 20
8049.999841347688
  0
ARC
  5
BE
100
AcDbEntity
  8
0
  6
CONTINUOUS
 62
    2
370
  100
100
AcDbCircle
 10
40750
 20
91050
 40
16000
100
AcDbArc
 50
90
 51
180
  0
LINE
  5
BF
100
AcDbEntity
  8
0
  6
CONTINUOUS
 62
    2
370
  100
100
AcDbLine
 10
40750
 20
107050
 11
112156.4098187787
 21
107050
  0
ARC
  5
C0
100
AcDbEntity
  8
0
  6
CONTINUOUS
 62
    2
370
  100
100
AcDbCircle
 10
115166.3995131776
 20
95475.15738229216
 40
11583.80666834698
100
AcDbArc
 50
0.3156838080130274
 51
88.20419643877995
  0
LINE
  5
C1
100
AcDbEntity
  8
0
  6
CONTINUOUS
 62
    2
370
  100
100
AcDbLine
 10
112156.4098187787
 20
107050
 11
115529.4076739256
 21
107053.2747596929
  0
LINE
  5
C2
100
AcDbEntity
  8
0
  6
CONTINUOUS
 62
    2
370
  100
100
AcDbLine
 10
126750.0303569582
 20
95538.98061202657
 11
126750.0303569582
 21
82961.92801227212
  0
LINE
  5
C3
100
AcDbEntity
  8
0
  6
CONTINUOUS
 62
    2
370
  100
100
AcDbLine
 10
126750.0303569582
 20
82961.92801227212
 11
126750.0303569582
 21
20118.6393775983
  0
ARC
  5
C4
100
AcDbEntity
  8
0
  6
CONTINUOUS
 62
    2
370
  100
100
AcDbCircle
 10
118750
 20
13050
 40
8000
100
AcDbArc
 50
270
 51
0
  0
LINE
  5
C5
100
AcDbEntity
  8
0
  6
CONTINUOUS
 62
    2
370
  100
100
AcDbLine
 10
126750
 20
13050
 11
126750.0303569582
 21
20118.6393775983
  0
LINE
  5
C6
100
AcDbEntity
  8
0
  6
CONTINUOUS
 62
    2
370
  100
100
AcDbLine
 10
118750
 20
5050
 11
39394.896275735
 21
5050
  0
ARC
  5
C7
100
AcDbEntity
  8
0
  6
CONTINUOUS
 62
    2
370
  100
100
AcDbCircle
 10
36750
 20
17050
 40
12000
100
AcDbArc
 50
180
 51
270
  0
LINE
  5
C8
100
AcDbEntity
  8
0
  6
CONTINUOUS
 62
    2
370
  100
100
AcDbLine
 10
36750
 20
5050
 11
39394.896275735
 21
5050
  0
ARC
  5
C9
100
AcDbEntity
  8
0
  6
CONTINUOUS
 62
    2
370
  100
100
AcDbCircle
 10
40750
 20
91050
 40
20000
100
AcDbArc
 50
90
 51
180
  0
LINE
  5
CA
100
AcDbEntity
  8
0
  6
CONTINUOUS
 62
    2
370
  100
100
AcDbLine
 10
20750
 20
17050
 11
20750
 21
91050
  0
ARC
  5
CB
100
AcDbEntity
  8
0
  6
CONTINUOUS
 62
    2
370
  100
100
AcDbCircle
 10
36750
 20
17050
 40
16000
100
AcDbArc
 50
180
 51
270
  0
LINE
  5
CC
100
AcDbEntity
  8
0
  6
CONTINUOUS
 62
    2
370
  100
100
AcDbLine
 10
118750
 20
1050
 11
39394.896275735
 21
1050
  0
LINE
  5
CD
100
AcDbEntity
  8
0
  6
CONTINUOUS
 62
    2
370
  100
100
AcDbLine
 10
36750
 20
1050
 11
39394.896275735
 21
1050
  0
ARC
  5
CE
100
AcDbEntity
  8
0
  6
CONTINUOUS
 62
    2
370
  100
100
AcDbCircle
 10
118750
 20
13050
 40
12000
100
AcDbArc
 50
270
 51
0
  0
LINE
  5
CF
100
AcDbEntity
  8
0
  6
CONTINUOUS
 62
    2
370
  100
100
AcDbLine
 10
130750.0303569582
 20
82961.92801227212
 11
130750.0303569582
 21
20118.6393775983
  0
LINE
  5
D0
100
AcDbEntity
  8
0
  6
CONTINUOUS
 62
    2
370
  100
100
AcDbLine
 10
130749.9999999631
 20
13049.98282161156
 11
130750.0303569213
 21
20118.62219920986
  0
LINE
  5
D1
100
AcDbEntity
  8
0
  6
CONTINUOUS
 62
    2
370
  100
100
AcDbLine
 10
130750.0303569582
 20
95538.98061202657
 11
130750.0303569582
 21
82961.92801227212
  0
ARC
  5
D2
100
AcDbEntity
  8
0
  6
CONTINUOUS
 62
    2
370
  100
100
AcDbCircle
 10
115166.3995131776
 20
95475.15738229216
 40
15583.80666834698
100
AcDbArc
 50
0.3156838080130274
 51
88.20419643877995
  0
LINE
  5
D3
100
AcDbEntity
  8
0
  6
CONTINUOUS
 62
    2
370
  100
100
AcDbLine
 10
40750
 20
111050
 11
112156.4098187787
 21
111050
  0
LINE
  5
D4
100
AcDbEntity
  8
0
  6
CONTINUOUS
 62
    2
370
  100
100
AcDbLine
 10
112152.5263201343
 20
111049.9981148043
 11
115525.5241752811
 21
111053.2728744973
  0
LINE
  5
D5
100
AcDbEntity
  8
0
  6
CONTINUOUS
 62
    2
370
  100
100
AcDbLine
 10
27750
 20
74050
 11
66750.00000000013
 21
74050
  0
LINE
  5
D6
100
AcDbEntity
  8
0
  6
CONTINUOUS
 62
    2
370
  100
100
AcDbLine
 10
20801.41365536745
 20
76049.97878822591
 11
130684.1872884068
 21
76049.97878822591
  0
LINE
  5
D7
100
AcDbEntity
  8
0
  6
CONTINUOUS
 62
    2
370
  100
100
AcDbLine
 10
20801.41365536745
 20
80049.97878822591
 11
130684.1872884068
 21
80049.97878822591
  0
LINE
  5
D8
100
AcDbEntity
  8
0
  6
CONTINUOUS
 62
    2
370
  100
100
AcDbLine
 10
20801.41365536745
 20
72049.97878822591
 11
130684.1872884068
 21
72049.97878822591
  0
LINE
  5
D9
100
AcDbEntity
  8
0
  6
CONTINUOUS
 62
    2
370
  100
100
AcDbLine
 10
20801.41365536745
 20
68049.97878822591
 11
130684.1872884068
 21
68049.97878822591
  0
LINE
  5
DA
100
AcDbEntity
  8
0
  6
CONTINUOUS
 62
    2
370
  100
100
AcDbLine
 10
67750
 20
1064.168587386841
 11
67750
 21
111091.6235255817
  0
LINE
  5
DB
100
AcDbEntity
  8
0
  6
CONTINUOUS
 62
    2
370
  100
100
AcDbLine
 10
71750
 20
1064.168587386841
 11
71750
 21
111091.6235255817
  0
LINE
  5
DC
100
AcDbEntity
  8
0
  6
CONTINUOUS
 62
    2
370
  100
100
AcDbLine
 10
75750
 20
1064.168587386841
 11
75750
 21
111091.6235255817
  0
LINE
  5
DD
100
AcDbEntity
  8
0
  6
CONTINUOUS
 62
    2
370
  100
100
AcDbLine
 10
97750
 20
1064.168587386841
 11
97750
 21
111091.6235255817
  0
LINE
  5
DE
100
AcDbEntity
  8
0
  6
CONTINUOUS
 62
    2
370
  100
100
AcDbLine
 10
93750
 20
1064.168587386841
 11
93750
 21
111091.6235255817
  0
LINE
  5
DF
100
AcDbEntity
  8
0
  6
CONTINUOUS
 62
    2
370
  100
100
AcDbLine
 10
101750
 20
1064.168587386841
 11
101750
 21
111091.6235255817
  0
LINE
  5
E0
100
AcDbEntity
  8
0
  6
CONTINUOUS
 62
    2
370
  100
100
AcDbLine
 10
105750
 20
1064.168587386841
 11
105750
 21
111091.6235255817
  0
LINE
  5
E1
100
AcDbEntity
  8
0
  6
CONTINUOUS
 62
    2
370
  100
100
AcDbLine
 10
24750
 20
17050
 11
24750
 21
91050
  0
ARC
  5
E2
100
AcDbEntity
  8
ref_line
  6
ByLayer
 62
  256
370
   -1
100
AcDbCircle
 10
64750
 20
104050
 40
3000
100
AcDbArc
 50
0
 51
90
  0
ARC
  5
E3
100
AcDbEntity
  8
ref_line
  6
ByLayer
 62
  256
370
   -1
100
AcDbCircle
 10
90750.00000000033
 20
104050
 40
2999.999999999665
100
AcDbArc
 50
0
 51
90
  0
ARC
  5
E4
100
AcDbEntity
  8
ref_line
  6
ByLayer
 62
  256
370
   -1
100
AcDbCircle
 10
78750.00000000003
 20
104050
 40
3000
100
AcDbArc
 50
90
 51
180
  0
ARC
  5
E5
100
AcDbEntity
  8
ref_line
  6
ByLayer
 62
  256
370
   -1
100
AcDbCircle
 10
108750.0000000001
 20
104050
 40
3000
100
AcDbArc
 50
90
 51
180
  0
ARC
  5
E6
100
AcDbEntity
  8
ref_line
  6
ByLayer
 62
  256
370
   -1
100
AcDbCircle
 10
64750
 20
83050
 40
3000
100
AcDbArc
 50
270
 51
0
  0
ARC
  5
E7
100
AcDbEntity
  8
ref_line
  6
ByLayer
 62
  256
370
   -1
100
AcDbCircle
 10
78750.00000000003
 20
83050
 40
3000.021211774088
100
AcDbArc
 50
180
 51
270
  0
ARC
  5
E8
100
AcDbEntity
  8
ref_line
  6
ByLayer
 62
  256
370
   -1
100
AcDbCircle
 10
90750.00000000033
 20
83050
 40
2999.999999999665
100
AcDbArc
 50
270
 51
0
  0
ARC
  5
E9
100
AcDbEntity
  8
ref_line
  6
ByLayer
 62
  256
370
   -1
100
AcDbCircle
 10
108750.0000000001
 20
83050
 40
3000.021211774088
100
AcDbArc
 50
180
 51
270
  0
ARC
  5
EA
100
AcDbEntity
  8
ref_line
  6
ByLayer
 62
  256
370
   -1
100
AcDbCircle
 10
123750.0000000002
 20
83050
 40
3000.030356957999
100
AcDbArc
 50
270
 51
0
  0
ARC
  5
EB
100
AcDbEntity
  8
ref_line
  6
ByLayer
 62
  256
370
   -1
100
AcDbCircle
 10
27750
 20
83050
 40
3000.021211774088
100
AcDbArc
 50
180
 51
270
  0
ARC
  5
EC
100
AcDbEntity
  8
ref_line
  6
ByLayer
 62
  256
370
   -1
100
AcDbCircle
 10
27750
 20
65050
 40
2999.978788225912
100
AcDbArc
 50
90
 51
180
  0
ARC
  5
ED
100
AcDbEntity
  8
ref_line
  6
ByLayer
 62
  256
370
   -1
100
AcDbCircle
 10
64750
 20
65050
 40
3000
100
AcDbArc
 50
0
 51
90
  0
ARC
  5
EE
100
AcDbEntity
  8
ref_line
  6
ByLayer
 62
  256
370
   -1
100
AcDbCircle
 10
78750.00000000003
 20
65050
 40
2999.978788225912
100
AcDbArc
 50
90
 51
180
  0
ARC
  5
EF
100
AcDbEntity
  8
ref_line
  6
ByLayer
 62
  256
370
   -1
100
AcDbCircle
 10
108750.0000000001
 20
65050
 40
2999.978788225912
100
AcDbArc
 50
90
 51
180
  0
ARC
  5
F0
100
AcDbEntity
  8
ref_line
  6
ByLayer
 62
  256
370
   -1
100
AcDbCircle
 10
123750.0000000002
 20
65050
 40
2999.978788225912
100
AcDbArc
 50
0
 51
90
  0
ARC
  5
F1
100
AcDbEntity
  8
ref_line
  6
ByLayer
 62
  256
370
   -1
100
AcDbCircle
 10
108750.0000000001
 20
8050
 40
3000.000000000116
100
AcDbArc
 50
180
 51
270
  0
ARC
  5
F2
100
AcDbEntity
  8
ref_line
  6
ByLayer
 62
  256
370
   -1
100
AcDbCircle
 10
90750.00000000033
 20
8050
 40
2999.999999999665
100
AcDbArc
 50
270
 51
0
  0
ARC
  5
F3
100
AcDbEntity
  8
ref_line
  6
ByLayer
 62
  256
370
   -1
100
AcDbCircle
 10
78750.00000000003
 20
8050
 40
3000
100
AcDbArc
 50
180
 51
270
  0
ARC
  5
F4
100
AcDbEntity
  8
ref_line
  6
ByLayer
 62
  256
370
   -1
100
AcDbCircle
 10
64750
 20
8050
 40
3000
100
AcDbArc
 50
270
 51
0
  0
ARC
  5
F5
100
AcDbEntity
  8
ref_line
  6
ByLayer
 62
  256
370
   -1
100
AcDbCircle
 10
40750
 20
91050
 40
16001
100
AcDbArc
 50
90
 51
180
  0
ARC
  5
F6
100
AcDbEntity
  8
ref_line
  6
ByLayer
 62
  256
370
   -1
100
AcDbCircle
 10
115166.3995131776
 20
95475.15738229216
 40
11584.80666834698
100
AcDbArc
 50
0.3156838080130274
 51
88.20419643877995
  0
ARC
  5
F7
100
AcDbEntity
  8
ref_line
  6
ByLayer
 62
  256
370
   -1
100
AcDbCircle
 10
36750
 20
17050
 40
11999
100
AcDbArc
 50
180
 51
270
  0
ARC
  5
F8
100
AcDbEntity
  8
ref_line
  6
ByLayer
 62
  256
370
   -1
100
AcDbCircle
 10
118750
 20
13050
 40
8001
100
AcDbArc
 50
270
 51
0
  0
ARC
  5
F9
100
AcDbEntity
  8
ref_line
  6
ByLayer
 62
  256
370
   -1
100
AcDbCircle
 10
90750.00000000033
 20
65050
 40
2998.999999999665
100
AcDbArc
 50
0
 51
90
  0
LINE
  5
FA
100
AcDbEntity
  8
0
  6
CONTINUOUS
 62
    2
370
  100
100
AcDbLine
 10
103750.0000000003
 20
65050
 11
103750.0000000003
 21
8050
  0
ARC
  5
FB
100
AcDbEntity
  8
ref_line
  6
ByLayer
 62
  256
370
   -1
100
AcDbCircle
 10
113730.3813947498
 20
65036.76633358134
 40
11977.60097842631
100
AcDbArc
 50
180.0108268287489
 51
213.5655538259011
  0
ARC
  5
FC
100
AcDbEntity
  8
ref_line
  6
ByLayer
 62
  256
370
   -1
100
AcDbCircle
 10
93769.61860525086
 20
51792.15800962727
 40
11977.60097842631
100
AcDbArc
 50
0.01082682874889785
 51
33.56555382590115
  0
LINE
  5
FD
100
AcDbEntity
  8
0
  6
ByLayer
 62
  256
370
   -1
100
AcDbLine
 10
90998.773815269
 20
80049.97878822591
 11
78750.00000000001
 21
80049.97878822591
  0
ARC
  5
FE
100
AcDbEntity
  8
ref_line
  6
ByLayer
 62
  256
370
   -1
100
AcDbCircle
 10
90875.79044580257
 20
65172.72938766526
 40
10877.94463265751
100
AcDbArc
 50
359.2364148023283
 51
89.35221419304642
  0
ARC
  5
FF
100
AcDbEntity
  8
0
  6
ByLayer
 62
  256
370
   -1
100
AcDbCircle
 10
78749.99087587124
 20
80048.97878823974
 40
1
100
AcDbArc
 50
90.00010127889878
 51
341.9233416855841
  0
ARC
  5
100
100
AcDbEntity
  8
0
  6
ByLayer
 62
  256
370
   -1
100
AcDbCircle
 10
130684.1872884068
 20
80048.97878822591
 40
1
100
AcDbArc
 50
179.9988967619747
 51
90
  0
ARC
  5
101
100
AcDbEntity
  8
0
  6
ByLayer
 62
  256
370
   -1
100
AcDbCircle
 10
78749.99087587124
 20
80048.97878823974
 40
1
100
AcDbArc
 50
90.00010127889878
 51
341.9233416855841
  0
ARC
  5
102
100
AcDbEntity
  8
ref_line
  6
ByLayer
 62
  256
370
   -1
100
AcDbCircle
 10
90998.77381526899
 20
82081.43839182577
 40
6031.459603599855
100
AcDbArc
 50
221.953248523522
 51
270.0000000000002
  0
ARC
  5
103
100
AcDbEntity
  8
ref_line
  6
ByLayer
 62
  256
370
   -1
100
AcDbCircle
 10
82026.08190364575
 20
74017.80617397124
 40
6032.17862399105
100
AcDbArc
 50
41.93793061017615
 51
89.9846820866543
  0
LINE
  5
104
100
AcDbEntity
  8
ref_line
  6
ByLayer
 62
  256
370
   -1
100
AcDbLine
 10
40750
 20
107051
 11
64750
 21
107050
  0
LINE
  5
105
100
AcDbEntity
  8
ref_line
  6
ByLayer
 62
  256
370
   -1
100
AcDbLine
 10
64750
 20
107050
 11
78750.00000000003
 21
107050
  0
LINE
  5
106
100
AcDbEntity
  8
ref_line
  6
ByLayer
 62
  256
370
   -1
100
AcDbLine
 10
78750.00000000003
 20
107050
 11
90750.00000000033
 21
107049.9999999997
  0
LINE
  5
107
100
AcDbEntity
  8
ref_line
  6
ByLayer
 62
  256
370
   -1
100
AcDbLine
 10
90750.00000000033
 20
107049.9999999997
 11
108750.0000000001
 21
107050
  0
LINE
  5
108
100
AcDbEntity
  8
ref_line
  6
ByLayer
 62
  256
370
   -1
100
AcDbLine
 10
108750.0000000001
 20
107050
 11
115529.439011479
 21
107054.2742685512
  0
LINE
  5
109
100
AcDbEntity
  8
ref_line
  6
ByLayer
 62
  256
370
   -1
100
AcDbLine
 10
126751.0303417798
 20
95538.98612172055
 11
126750.0303569582
 21
83050
  0
LINE
  5
10A
100
AcDbEntity
  8
ref_line
  6
ByLayer
 62
  256
370
   -1
100
AcDbLine
 10
126750.0303569582
 20
83050
 11
126749.9787882261
 21
65050
  0
LINE
  5
10B
100
AcDbEntity
  8
ref_line
  6
ByLayer
 62
  256
370
   -1
100
AcDbLine
 10
126749.9787882261
 20
65050
 11
126751
 21
13050
  0
LINE
  5
10C
100
AcDbEntity
  8
ref_line
  6
ByLayer
 62
  256
370
   -1
100
AcDbLine
 10
24749
 20
91050
 11
24749.97878822591
 21
83050
  0
LINE
  5
10D
100
AcDbEntity
  8
ref_line
  6
ByLayer
 62
  256
370
   -1
100
AcDbLine
 10
24749.97878822591
 20
83050
 11
24750.02121177409
 21
65050
  0
LINE
  5
10E
100
AcDbEntity
  8
ref_line
  6
ByLayer
 62
  256
370
   -1
100
AcDbLine
 10
24750.02121177409
 20
65050
 11
24751
 21
17050
  0
LINE
  5
10F
100
AcDbEntity
  8
ref_line
  6
ByLayer
 62
  256
370
   -1
100
AcDbLine
 10
36750
 20
5051
 11
64750
 21
5050
  0
LINE
  5
110
100
AcDbEntity
  8
ref_line
  6
ByLayer
 62
  256
370
   -1
100
AcDbLine
 10
64750
 20
5050
 11
78750.00000000003
 21
5050
  0
LINE
  5
111
100
AcDbEntity
  8
ref_line
  6
ByLayer
 62
  256
370
   -1
100
AcDbLine
 10
78750.00000000003
 20
5050
 11
90750.00000000033
 21
5050.000000000335
  0
LINE
  5
112
100
AcDbEntity
  8
ref_line
  6
ByLayer
 62
  256
370
   -1
100
AcDbLine
 10
90750.00000000033
 20
5050.000000000335
 11
108750.0000000001
 21
5049.999999999884
  0
LINE
  5
113
100
AcDbEntity
  8
ref_line
  6
ByLayer
 62
  256
370
   -1
100
AcDbLine
 10
108750.0000000001
 20
5049.999999999884
 11
118750
 21
5049
  0
LINE
  5
114
100
AcDbEntity
  8
ref_line
  6
ByLayer
 62
  256
370
   -1
100
AcDbLine
 10
27750
 20
80049.97878822591
 11
64750
 21
80050
  0
LINE
  5
115
100
AcDbEntity
  8
ref_line
  6
ByLayer
 62
  256
370
   -1
100
AcDbLine
 10
64750
 20
80050
 11
78750.00000000003
 21
80049.97878822591
  0
LINE
  5
116
100
AcDbEntity
  8
ref_line
  6
ByLayer
 62
  256
370
   -1
100
AcDbLine
 10
78750.00000000003
 20
80049.97878822591
 11
82027.69459465254
 21
80049.98458238742
  0
LINE
  5
117
100
AcDbEntity
  8
ref_line
  6
ByLayer
 62
  256
370
   -1
100
AcDbLine
 10
82027.69459465254
 20
80049.98458238742
 11
90750.00000000033
 21
80050.00000000033
  0
LINE
  5
118
100
AcDbEntity
  8
ref_line
  6
ByLayer
 62
  256
370
   -1
100
AcDbLine
 10
90750.00000000033
 20
80050.00000000033
 11
108750.0000000001
 21
80049.97878822591
  0
LINE
  5
119
100
AcDbEntity
  8
ref_line
  6
ByLayer
 62
  256
370
   -1
100
AcDbLine
 10
108750.0000000001
 20
80049.97878822591
 11
123750.0000000002
 21
80049.969643042
  0
LINE
  5
11A
100
AcDbEntity
  8
ref_line
  6
ByLayer
 62
  256
370
   -1
100
AcDbLine
 10
27750
 20
68049.97878822591
 11
64750
 21
68050
  0
LINE
  5
11B
100
AcDbEntity
  8
ref_line
  6
ByLayer
 62
  256
370
   -1
100
AcDbLine
 10
64750
 20
68050
 11
78750.00000000003
 21
68049.97878822591
  0
LINE
  5
11C
100
AcDbEntity
  8
ref_line
  6
ByLayer
 62
  256
370
   -1
100
AcDbLine
 10
78750.00000000003
 20
68049.97878822591
 11
90750.00000000033
 21
68048.99999999967
  0
LINE
  5
11D
100
AcDbEntity
  8
ref_line
  6
ByLayer
 62
  256
370
   -1
100
AcDbLine
 10
90750.00000000033
 20
68048.99999999967
 11
108750.0000000001
 21
68049.97878822591
  0
LINE
  5
11E
100
AcDbEntity
  8
ref_line
  6
ByLayer
 62
  256
370
   -1
100
AcDbLine
 10
108750.0000000001
 20
68049.97878822591
 11
123750.0000000002
 21
68049.97878822591
  0
LINE
  5
11F
100
AcDbEntity
  8
ref_line
  6
ByLayer
 62
  256
370
   -1
100
AcDbLine
 10
67750
 20
104050
 11
67750
 21
83050
  0
LINE
  5
120
100
AcDbEntity
  8
ref_line
  6
ByLayer
 62
  256
370
   -1
100
AcDbLine
 10
67750
 20
83050
 11
67750
 21
65050
  0
LINE
  5
121
100
AcDbEntity
  8
ref_line
  6
ByLayer
 62
  256
370
   -1
100
AcDbLine
 10
67750
 20
65050
 11
67750
 21
8050
  0
LINE
  5
122
100
AcDbEntity
  8
ref_line
  6
ByLayer
 62
  256
370
   -1
100
AcDbLine
 10
75750.00000000003
 20
8050
 11
75750.02121177412
 21
65050
  0
LINE
  5
123
100
AcDbEntity
  8
ref_line
  6
ByLayer
 62
  256
370
   -1
100
AcDbLine
 10
75750.02121177412
 20
65050
 11
75749.97878822594
 21
83050
  0
LINE
  5
124
100
AcDbEntity
  8
ref_line
  6
ByLayer
 62
  256
370
   -1
100
AcDbLine
 10
75749.97878822594
 20
83050
 11
75750.00000000003
 21
104050
  0
LINE
  5
125
100
AcDbEntity
  8
ref_line
  6
ByLayer
 62
  256
370
   -1
100
AcDbLine
 10
93750
 20
104050
 11
93750
 21
83050
  0
LINE
  5
126
100
AcDbEntity
  8
ref_line
  6
ByLayer
 62
  256
370
   -1
100
AcDbLine
 10
93750
 20
83050
 11
93749
 21
65050
  0
LINE
  5
127
100
AcDbEntity
  8
ref_line
  6
ByLayer
 62
  256
370
   -1
100
AcDbLine
 10
93749
 20
65050
 11
93750
 21
8050
  0
LINE
  5
128
100
AcDbEntity
  8
ref_line
  6
ByLayer
 62
  256
370
   -1
100
AcDbLine
 10
105750
 20
8050
 11
105747.2193698331
 21
51794.42134271997
  0
LINE
  5
129
100
AcDbEntity
  8
ref_line
  6
ByLayer
 62
  256
370
   -1
100
AcDbLine
 10
105747.2193698331
 20
51794.42134271997
 11
105750.0212117742
 21
65050
  0
LINE
  5
12A
100
AcDbEntity
  8
ref_line
  6
ByLayer
 62
  256
370
   -1
100
AcDbLine
 10
105750.0212117742
 20
65050
 11
105749.978788226
 21
83050
  0
LINE
  5
12B
100
AcDbEntity
  8
ref_line
  6
ByLayer
 62
  256
370
   -1
100
AcDbLine
 10
105749.978788226
 20
83050
 11
105750.0000000001
 21
104050
  0
ARC
  5
12C
100
AcDbEntity
  8
board
  6
ByLayer
 62
  256
370
   -1
100
AcDbCircle
 10
40750
 20
91050
 40
13999.99999999999
100
AcDbArc
 50
90
 51
180
  0
LINE
  5
12D
100
AcDbEntity
  8
board
  6
ByLayer
 62
  256
370
   -1
100
AcDbLine
 10
40750
 20
105050
 11
64750
 21
105050
  0
LINE
  5
12E
100
AcDbEntity
  8
board
  6
ByLayer
 62
  256
370
   -1
100
AcDbLine
 10
27750
 20
66049.99999999999
 11
64750
 21
66050
  0
ARC
  5
12F
100
AcDbEntity
  8
board
  6
ByLayer
 62
  256
370
   -1
100
AcDbCircle
 10
115166.3995131776
 20
95475.15738229222
 40
9583.892722085702
100
AcDbArc
 50
0.4474392433896042
 51
92.49016218515683
  0
ARC
  5
130
100
AcDbEntity
  8
board
  6
ByLayer
 62
  256
370
   -1
100
AcDbCircle
 10
118750
 20
13050.00000000001
 40
6000.000000000006
100
AcDbArc
 50
270
 51
359.9999999999999
  0
ARC
  5
131
100
AcDbEntity
  8
board
  6
ByLayer
 62
  256
370
   -1
100
AcDbCircle
 10
36750
 20
17050
 40
10000
100
AcDbArc
 50
180
 51
270
  0
ARC
  5
132
100
AcDbEntity
  8
board
  6
ByLayer
 62
  256
370
   -1
100
AcDbCircle
 10
40750.00000000002
 20
91049.99999999997
 40
22000.00000000004
100
AcDbArc
 50
90.00000000000006
 51
180
  0
ARC
  5
133
100
AcDbEntity
  8
board
  6
ByLayer
 62
  256
370
   -1
100
AcDbCircle
 10
115171.0054523968
 20
95475.89132246461
 40
17579.15075880378
100
AcDbArc
 50
0.2415433535169529
 51
88.62768444334094
  0
ARC
  5
134
100
AcDbEntity
  8
board
  6
ByLayer
 62
  256
370
   -1
100
AcDbCircle
 10
120749.9999999998
 20
11050.00000000007
 40
12000.00000000023
100
AcDbArc
 50
270.0000093254861
 51
359.9999999999997
  0
ARC
  5
135
100
AcDbEntity
  8
board
  6
ByLayer
 62
  256
370
   -1
100
AcDbCircle
 10
36750.00000000001
 20
17050
 40
18000.00000000001
100
AcDbArc
 50
180
 51
269.9999984457525
  0
LINE
  5
136
100
AcDbEntity
  8
board
  6
ByLayer
 62
  256
370
   -1
100
AcDbLine
 10
132750
 20
95550.00000001608
 11
132750
 21
11050
  0
LINE
  5
137
100
AcDbEntity
  8
board
  6
ByLayer
 62
  256
370
   -1
100
AcDbLine
 10
120750.001953125
 20
-950.0000000000036
 11
36749.99951171875
 21
-950
  0
LINE
  5
138
100
AcDbEntity
  8
board
  6
ByLayer
 62
  256
370
   -1
100
AcDbLine
 10
18750
 20
17050.00000000001
 11
18749.99999999999
 21
91049.99999999999
  0
LINE
  5
139
100
AcDbEntity
  8
board
  6
ByLayer
 62
  256
370
   -1
100
AcDbLine
 10
18749.99999999999
 20
82050
 11
18749.99999999999
 21
66049.99999999999
  0
LINE
  5
13A
100
AcDbEntity
  8
board
  6
ByLayer
 62
  256
370
   -1
100
AcDbLine
 10
18749.99999999999
 20
66049.99999999999
 11
18749.99999999999
 21
65950.20358761506
  0
LINE
  5
13B
100
AcDbEntity
  8
board
  6
ByLayer
 62
  256
370
   -1
100
AcDbLine
 10
27750
 20
82050
 11
26750
 21
82050
  0
LINE
  5
13C
100
AcDbEntity
  8
board
  6
ByLayer
 62
  256
370
   -1
100
AcDbLine
 10
27750
 20
74049.99999999999
 11
26750
 21
74049.99999999999
  0
LINE
  5
13D
100
AcDbEntity
  8
board
  6
ByLayer
 62
  256
370
   -1
100
AcDbLine
 10
64750
 20
66049.99999999999
 11
26750
 21
66049.99999999999
  0
LINE
  5
13E
100
AcDbEntity
  8
ass
  6
ByLayer
 62
  256
370
   -1
100
AcDbLine
 10
18749.99999999999
 20
82050
 11
26750
 21
82050
  0
LINE
  5
13F
100
AcDbEntity
  8
ass
  6
ByLayer
 62
  256
370
   -1
100
AcDbLine
 10
26750
 20
82050
 11
26750
 21
66049.99999999999
  0
LINE
  5
140
100
AcDbEntity
  8
ass
  6
ByLayer
 62
  256
370
   -1
100
AcDbLine
 10
65750
 20
82050
 11
65750
 21
66050
  0
LINE
  5
141
100
AcDbEntity
  8
ass
  6
ByLayer
 62
  256
370
   -1
100
AcDbLine
 10
65750
 20
66050
 11
77750.00000000003
 21
66050
  0
LINE
  5
142
100
AcDbEntity
  8
ass
  6
ByLayer
 62
  256
370
   -1
100
AcDbLine
 10
77750.00000000003
 20
66050
 11
77750.00000000003
 21
82049.99999999999
  0
LINE
  5
143
100
AcDbEntity
  8
ass
  6
ByLayer
 62
  256
370
   -1
100
AcDbLine
 10
77750.00000000003
 20
82049.99999999999
 11
65750
 21
82049.99999999999
  0
LINE
  5
144
100
AcDbEntity
  8
ass
  6
ByLayer
 62
  256
370
   -1
100
AcDbLine
 10
91750.00000000033
 20
82049.99999999999
 11
91750.00000000033
 21
66050
  0
LINE
  5
145
100
AcDbEntity
  8
ass
  6
ByLayer
 62
  256
370
   -1
100
AcDbLine
 10
91750.00000000033
 20
66050
 11
107750.0000000001
 21
66050
  0
LINE
  5
146
100
AcDbEntity
  8
ass
  6
ByLayer
 62
  256
370
   -1
100
AcDbLine
 10
107750.0000000001
 20
66050
 11
107750.0000000001
 21
82050.00000000001
  0
LINE
  5
147
100
AcDbEntity
  8
ass
  6
ByLayer
 62
  256
370
   -1
100
AcDbLine
 10
107750.0000000001
 20
82050.00000000001
 11
91750.00000000033
 21
82050.00000000001
  0
LINE
  5
148
100
AcDbEntity
  8
ass
  6
ByLayer
 62
  256
370
   -1
100
AcDbLine
 10
65750
 20
113050
 11
65750
 21
105050
  0
LINE
  5
149
100
AcDbEntity
  8
ass
  6
ByLayer
 62
  256
370
   -1
100
AcDbLine
 10
65750
 20
105050
 11
77750.00000000003
 21
105050
  0
LINE
  5
14A
100
AcDbEntity
  8
ass
  6
ByLayer
 62
  256
370
   -1
100
AcDbLine
 10
77750.00000000003
 20
105050
 11
77750.00000000003
 21
113050
  0
LINE
  5
14B
100
AcDbEntity
  8
ass
  6
ByLayer
 62
  256
370
   -1
100
AcDbLine
 10
91750.00000000033
 20
113050
 11
91750.00000000033
 21
105050
  0
LINE
  5
14C
100
AcDbEntity
  8
ass
  6
ByLayer
 62
  256
370
   -1
100
AcDbLine
 10
91750.00000000033
 20
105050
 11
107750.0000000001
 21
105050
  0
LINE
  5
14D
100
AcDbEntity
  8
ass
  6
ByLayer
 62
  256
370
   -1
100
AcDbLine
 10
107750.0000000001
 20
105050
 11
107750.0000000001
 21
113050
  0
LINE
  5
14E
100
AcDbEntity
  8
ass
  6
ByLayer
 62
  256
370
   -1
100
AcDbLine
 10
132750
 20
66050
 11
124750.0000000002
 21
66050
  0
LINE
  5
14F
100
AcDbEntity
  8
ass
  6
ByLayer
 62
  256
370
   -1
100
AcDbLine
 10
124750.0000000002
 20
66050
 11
124750.0000000002
 21
82050
  0
LINE
  5
150
100
AcDbEntity
  8
ass
  6
ByLayer
 62
  256
370
   -1
100
AcDbLine
 10
124750.0000000002
 20
82050
 11
132750
 21
82050
  0
LINE
  5
151
100
AcDbEntity
  8
ass
  6
ByLayer
 62
  256
370
   -1
100
AcDbLine
 10
91750.00000000017
 20
7050
 11
107750.0000000001
 21
7050
  0
LINE
  5
152
100
AcDbEntity
  8
ass
  6
ByLayer
 62
  256
370
   -1
100
AcDbLine
 10
107750.0000000001
 20
7050
 11
107750.0000000001
 21
-950.0000000000031
  0
LINE
  5
153
100
AcDbEntity
  8
ass
  6
ByLayer
 62
  256
370
   -1
100
AcDbLine
 10
91750.00000000016
 20
-950.0000000000023
 11
91750.00000000017
 21
7050
  0
LINE
  5
154
100
AcDbEntity
  8
ass
  6
ByLayer
 62
  256
370
   -1
100
AcDbLine
 10
65750
 20
7049.999999999999
 11
65750
 21
-950.0000000000013
  0
LINE
  5
155
100
AcDbEntity
  8
ass
  6
ByLayer
 62
  256
370
   -1
100
AcDbLine
 10
77750.00000000003
 20
-950.0000000000018
 11
77750.00000000003
 21
7049.999999999999
  0
LINE
  5
156
100
AcDbEntity
  8
ass
  6
ByLayer
 62
  256
370
   -1
100
AcDbLine
 10
77750.00000000003
 20
7049.999999999999
 11
65750
 21
7049.999999999999
  0
LINE
  5
157
100
AcDbEntity
  8
board
  6
ByLayer
 62
  256
370
   -1
100
AcDbLine
 10
36750
 20
7050
 11
65750
 21
7049.999999999999
  0
LINE
  5
158
100
AcDbEntity
  8
board
  6
ByLayer
 62
  256
370
   -1
100
AcDbLine
 10
91750.00000000017
 20
7050
 11
77750.00000000003
 21
7049.999999999999
  0
LINE
  5
159
100
AcDbEntity
  8
board
  6
ByLayer
 62
  256
370
   -1
100
AcDbLine
 10
107750.0000000001
 20
7050
 11
118750
 21
7050
  0
LINE
  5
15A
100
AcDbEntity
  8
board
  6
ByLayer
 62
  256
370
   -1
100
AcDbLine
 10
107750.0000000001
 20
74050
 11
124750.0000000002
 21
74050
  0
LINE
  5
15B
100
AcDbEntity
  8
board
  6
ByLayer
 62
  256
370
   -1
100
AcDbLine
 10
107750.0000000001
 20
82050.00000000001
 11
124750.0000000002
 21
82050
  0
LINE
  5
15C
100
AcDbEntity
  8
board
  6
ByLayer
 62
  256
370
   -1
100
AcDbLine
 10
107750.0000000001
 20
66050
 11
124750.0000000002
 21
66050
  0
LINE
  5
15D
100
AcDbEntity
  8
board
  6
ByLayer
 62
  256
370
   -1
100
AcDbLine
 10
77750.00000000003
 20
74050
 11
91750.00000000032
 21
74050
  0
LINE
  5
15E
100
AcDbEntity
  8
board
  6
ByLayer
 62
  256
370
   -1
100
AcDbLine
 10
99750.00000000012
 20
82050.00000000001
 11
99750.00000000012
 21
105050
  0
LINE
  5
15F
100
AcDbEntity
  8
board
  6
ByLayer
 62
  256
370
   -1
100
AcDbLine
 10
99750.0000000001
 20
7050
 11
99750.0000000001
 21
66050
  0
LINE
  5
160
100
AcDbEntity
  8
board
  6
ByLayer
 62
  256
370
   -1
100
AcDbLine
 10
26750
 20
74049.99999999999
 11
65750
 21
74050
  0
LINE
  5
161
100
AcDbEntity
  8
board
  6
ByLayer
 62
  256
370
   -1
100
AcDbLine
 10
77750.00000000003
 20
83050
 11
77750.00000000003
 21
105050
  0
LINE
  5
162
100
AcDbEntity
  8
board
  6
ByLayer
 62
  256
370
   -1
100
AcDbLine
 10
69750.00000000003
 20
82049.99999999999
 11
69750.00000000003
 21
105050
  0
LINE
  5
163
100
AcDbEntity
  8
board
  6
ByLayer
 62
  256
370
   -1
100
AcDbLine
 10
69750.00000000003
 20
66050
 11
69750.00000000003
 21
7049.999999999999
  0
LINE
  5
164
100
AcDbEntity
  8
board
  6
ByLayer
 62
  256
370
   -1
100
AcDbLine
 10
26750
 20
66049.99999999999
 11
26750
 21
17050
  0
LINE
  5
165
100
AcDbEntity
  8
board
  6
ByLayer
 62
  256
370
   -1
100
AcDbLine
 10
26750
 20
82050
 11
26750.00000000001
 21
91050
  0
LINE
  5
166
100
AcDbEntity
  8
board
  6
ByLayer
 62
  256
370
   -1
100
AcDbLine
 10
64750
 20
105050
 11
65750
 21
105050
  0
LINE
  5
167
100
AcDbEntity
  8
board
  6
ByLayer
 62
  256
370
   -1
100
AcDbLine
 10
90750.00000000033
 20
105050
 11
91750.00000000016
 21
105050
  0
LINE
  5
168
100
AcDbEntity
  8
board
  6
ByLayer
 62
  256
370
   -1
100
AcDbLine
 10
114750.0000000377
 20
105050.0000000016
 11
107750.0000000001
 21
105050
  0
LINE
  5
169
100
AcDbEntity
  8
board
  6
ByLayer
 62
  256
370
   -1
100
AcDbLine
 10
77750.00000000003
 20
105050
 11
91750.00000000016
 21
105050
  0
LINE
  5
16A
100
AcDbEntity
  8
board
  6
ByLayer
 62
  256
370
   -1
100
AcDbLine
 10
65750
 20
82050.00000000001
 11
65750
 21
83050
  0
LINE
  5
16B
100
AcDbEntity
  8
board
  6
ByLayer
 62
  256
370
   -1
100
AcDbLine
 10
65750
 20
7049.999999999999
 11
65750
 21
66050
  0
LINE
  5
16C
100
AcDbEntity
  8
board
  6
ByLayer
 62
  256
370
   -1
100
AcDbLine
 10
65750
 20
105050
 11
65750
 21
83050
  0
LINE
  5
16D
100
AcDbEntity
  8
board
  6
ByLayer
 62
  256
370
   -1
100
AcDbLine
 10
65750
 20
82050
 11
27750
 21
82050
  0
LINE
  5
16E
100
AcDbEntity
  8
board
  6
ByLayer
 62
  256
370
   -1
100
AcDbLine
 10
91750.00000000033
 20
82051.14984280888
 11
77750.00000000003
 21
82050
  0
LINE
  5
16F
100
AcDbEntity
  8
board
  6
ByLayer
 62
  256
370
   -1
100
AcDbLine
 10
77750.00000000003
 20
83050
 11
77750.00000000003
 21
82050
  0
LINE
  5
170
100
AcDbEntity
  8
board
  6
ByLayer
 62
  256
370
   -1
100
AcDbLine
 10
77750.00000000003
 20
66050
 11
77750.00000000003
 21
7049.999999999999
  0
LINE
  5
171
100
AcDbEntity
  8
board
  6
ByLayer
 62
  256
370
   -1
100
AcDbLine
 10
91750.00000000033
 20
66050
 11
91750.00000000017
 21
7050
  0
LINE
  5
172
100
AcDbEntity
  8
board
  6
ByLayer
 62
  256
370
   -1
100
AcDbLine
 10
91750.00000000016
 20
105050
 11
91750.00000000032
 21
82051.14984280888
  0
LINE
  5
173
100
AcDbEntity
  8
board
  6
ByLayer
 62
  256
370
   -1
100
AcDbLine
 10
107750.0000000001
 20
66050
 11
107750.0000000001
 21
7050
  0
LINE
  5
174
100
AcDbEntity
  8
board
  6
ByLayer
 62
  256
370
   -1
100
AcDbLine
 10
107750.0000000001
 20
105050
 11
107750.0000000001
 21
82050.00000000001
  0
LINE
  5
175
100
AcDbEntity
  8
board
  6
ByLayer
 62
  256
370
   -1
100
AcDbLine
 10
124750.0000000002
 20
66050
 11
124750
 21
13050
  0
LINE
  5
176
100
AcDbEntity
  8
board
  6
ByLayer
 62
  256
370
   -1
100
AcDbLine
 10
124750.0000000002
 20
82050
 11
124750
 21
95550
  0
LINE
  5
177
100
AcDbEntity
  8
board
  6
ByLayer
 62
  256
370
   -1
100
AcDbLine
 10
64750
 20
66050
 11
65750
 21
66050
  0
LINE
  5
178
100
AcDbEntity
  8
board
  6
ByLayer
 62
  256
370
   -1
100
AcDbLine
 10
77750.00000000003
 20
66050
 11
91750.00000000033
 21
66050
  0
LINE
  5
179
100
AcDbEntity
  8
board
  6
ByLayer
 62
  256
370
   -1
100
AcDbLine
 10
99750.0000000001
 20
-950.0000000000031
 11
77750.00000000003
 21
-950.0000000000031
  0
LINE
  5
17A
100
AcDbEntity
  8
ass
  6
ByLayer
 62
  256
370
   -1
100
AcDbLine
 10
132750
 20
82050.00000000001
 11
124750.0000000002
 21
82050
  0
LINE
  5
17B
100
AcDbEntity
  8
ass
  6
ByLayer
 62
  256
370
   -1
100
AcDbLine
 10
124750.0000000002
 20
82050
 11
124750.0000000002
 21
74050
  0
LINE
  5
17C
100
AcDbEntity
  8
ass
  6
ByLayer
 62
  256
370
   -1
100
AcDbLine
 10
124750.0000000002
 20
74050
 11
132750
 21
74050
  0
LINE
  5
17D
100
AcDbEntity
  8
ass
  6
ByLayer
 62
  256
370
   -1
100
AcDbLine
 10
132750
 20
82050
 11
132750
 21
74050
  0
LINE
  5
17E
100
AcDbEntity
  8
ass
  6
ByLayer
 62
  256
370
   -1
100
AcDbLine
 10
132750
 20
74050
 11
132750
 21
66050
  0
LINE
  5
17F
100
AcDbEntity
  8
ass
  6
ByLayer
 62
  256
370
   -1
100
AcDbLine
 10
132750
 20
66050
 11
124750.0000000002
 21
66050
  0
LINE
  5
180
100
AcDbEntity
  8
ass
  6
ByLayer
 62
  256
370
   -1
100
AcDbLine
 10
124750.0000000002
 20
66050
 11
124750.0000000002
 21
74050
  0
LINE
  5
181
100
AcDbEntity
  8
ass
  6
ByLayer
 62
  256
370
   -1
100
AcDbLine
 10
107750.0000000001
 20
82050.00000000001
 11
99750.0000000001
 21
82050.00000000001
  0
LINE
  5
182
100
AcDbEntity
  8
ass
  6
ByLayer
 62
  256
370
   -1
100
AcDbLine
 10
99750.0000000001
 20
82050.00000000001
 11
91750.00000000033
 21
82049.99999999999
  0
LINE
  5
183
100
AcDbEntity
  8
ass
  6
ByLayer
 62
  256
370
   -1
100
AcDbLine
 10
91750.00000000033
 20
82049.99999999999
 11
91750.00000000016
 21
74050
  0
LINE
  5
184
100
AcDbEntity
  8
ass
  6
ByLayer
 62
  256
370
   -1
100
AcDbLine
 10
91750.00000000016
 20
74050
 11
91750.00000000032
 21
66050
  0
LINE
  5
185
100
AcDbEntity
  8
ass
  6
ByLayer
 62
  256
370
   -1
100
AcDbLine
 10
91750.00000000032
 20
66050
 11
99750.0000000001
 21
66050
  0
LINE
  5
186
100
AcDbEntity
  8
ass
  6
ByLayer
 62
  256
370
   -1
100
AcDbLine
 10
99750.0000000001
 20
66050
 11
107750.0000000001
 21
66050
  0
LINE
  5
187
100
AcDbEntity
  8
ass
  6
ByLayer
 62
  256
370
   -1
100
AcDbLine
 10
107750.0000000001
 20
66050
 11
107750.0000000001
 21
74050
  0
LINE
  5
188
100
AcDbEntity
  8
ass
  6
ByLayer
 62
  256
370
   -1
100
AcDbLine
 10
107750.0000000001
 20
74050
 11
107750.0000000001
 21
82050.00000000001
  0
LINE
  5
189
100
AcDbEntity
  8
ass
  6
ByLayer
 62
  256
370
   -1
100
AcDbLine
 10
99750.00000000012
 20
82050.00000000001
 11
99750.0000000001
 21
74050
  0
LINE
  5
18A
100
AcDbEntity
  8
ass
  6
ByLayer
 62
  256
370
   -1
100
AcDbLine
 10
99750.0000000001
 20
74050
 11
91750.00000000033
 21
74050
  0
LINE
  5
18B
100
AcDbEntity
  8
ass
  6
ByLayer
 62
  256
370
   -1
100
AcDbLine
 10
99750.0000000001
 20
74050
 11
99750.0000000001
 21
66050
  0
LINE
  5
18C
100
AcDbEntity
  8
ass
  6
ByLayer
 62
  256
370
   -1
100
AcDbLine
 10
99750.0000000001
 20
74050
 11
107750.0000000001
 21
74050
  0
LINE
  5
18D
100
AcDbEntity
  8
ass
  6
ByLayer
 62
  256
370
   -1
100
AcDbLine
 10
65750
 20
113050
 11
69750.00000000003
 21
113050
  0
LINE
  5
18E
100
AcDbEntity
  8
ass
  6
ByLayer
 62
  256
370
   -1
100
AcDbLine
 10
69750.00000000003
 20
113050
 11
77750.00000000003
 21
113050
  0
LINE
  5
18F
100
AcDbEntity
  8
ass
  6
ByLayer
 62
  256
370
   -1
100
AcDbLine
 10
77750.00000000003
 20
113050
 11
77750.00000000003
 21
105050
  0
LINE
  5
190
100
AcDbEntity
  8
ass
  6
ByLayer
 62
  256
370
   -1
100
AcDbLine
 10
77750.00000000003
 20
105050
 11
69750.00000000003
 21
105050
  0
LINE
  5
191
100
AcDbEntity
  8
ass
  6
ByLayer
 62
  256
370
   -1
100
AcDbLine
 10
69750.00000000003
 20
105050
 11
65750
 21
105050
  0
LINE
  5
192
100
AcDbEntity
  8
ass
  6
ByLayer
 62
  256
370
   -1
100
AcDbLine
 10
65750
 20
105050
 11
65750
 21
113050
  0
LINE
  5
193
100
AcDbEntity
  8
ass
  6
ByLayer
 62
  256
370
   -1
100
AcDbLine
 10
69750.00000000003
 20
113050
 11
69750.00000000003
 21
105050
  0
LINE
  5
194
100
AcDbEntity
  8
ass
  6
ByLayer
 62
  256
370
   -1
100
AcDbLine
 10
91750.00000000033
 20
113050
 11
99750.00000000013
 21
113050
  0
LINE
  5
195
100
AcDbEntity
  8
ass
  6
ByLayer
 62
  256
370
   -1
100
AcDbLine
 10
99750.00000000013
 20
113050
 11
107750.0000000001
 21
113050
  0
LINE
  5
196
100
AcDbEntity
  8
ass
  6
ByLayer
 62
  256
370
   -1
100
AcDbLine
 10
107750.0000000001
 20
113050
 11
107750.0000000001
 21
105050
  0
LINE
  5
197
100
AcDbEntity
  8
ass
  6
ByLayer
 62
  256
370
   -1
100
AcDbLine
 10
107750.0000000001
 20
105050
 11
99750.00000000013
 21
105050
  0
LINE
  5
198
100
AcDbEntity
  8
ass
  6
ByLayer
 62
  256
370
   -1
100
AcDbLine
 10
99750.00000000012
 20
105050
 11
91750.00000000033
 21
105050
  0
LINE
  5
199
100
AcDbEntity
  8
ass
  6
ByLayer
 62
  256
370
   -1
100
AcDbLine
 10
91750.00000000033
 20
105050
 11
91750.00000000033
 21
113050
  0
LINE
  5
19A
100
AcDbEntity
  8
ass
  6
ByLayer
 62
  256
370
   -1
100
AcDbLine
 10
99750.00000000013
 20
105050
 11
99750.00000000013
 21
113050
  0
LINE
  5
19B
100
AcDbEntity
  8
ass
  6
ByLayer
 62
  256
370
   -1
100
AcDbLine
 10
65750
 20
82050.00000000001
 11
69750.00000000003
 21
82050
  0
LINE
  5
19C
100
AcDbEntity
  8
ass
  6
ByLayer
 62
  256
370
   -1
100
AcDbLine
 10
69750.00000000003
 20
82050
 11
77750.00000000003
 21
82050
  0
LINE
  5
19D
100
AcDbEntity
  8
ass
  6
ByLayer
 62
  256
370
   -1
100
AcDbLine
 10
77750.00000000003
 20
82050
 11
77750.00000000003
 21
74050
  0
LINE
  5
19E
100
AcDbEntity
  8
ass
  6
ByLayer
 62
  256
370
   -1
100
AcDbLine
 10
77750.00000000003
 20
74050
 11
77750.00000000003
 21
66050
  0
LINE
  5
19F
100
AcDbEntity
  8
ass
  6
ByLayer
 62
  256
370
   -1
100
AcDbLine
 10
77750.00000000003
 20
66050
 11
69750.00000000003
 21
66050
  0
LINE
  5
1A0
100
AcDbEntity
  8
ass
  6
ByLayer
 62
  256
370
   -1
100
AcDbLine
 10
69750.00000000003
 20
66050
 11
65750
 21
66050
  0
LINE
  5
1A1
100
AcDbEntity
  8
ass
  6
ByLayer
 62
  256
370
   -1
100
AcDbLine
 10
65750
 20
66050
 11
65750
 21
74049.99999999999
  0
LINE
  5
1A2
100
AcDbEntity
  8
ass
  6
ByLayer
 62
  256
370
   -1
100
AcDbLine
 10
65750
 20
74049.99999999999
 11
65750
 21
82049.99999999999
  0
LINE
  5
1A3
100
AcDbEntity
  8
ass
  6
ByLayer
 62
  256
370
   -1
100
AcDbLine
 10
65750
 20
74050
 11
69750.00000000003
 21
74050
  0
LINE
  5
1A4
100
AcDbEntity
  8
ass
  6
ByLayer
 62
  256
370
   -1
100
AcDbLine
 10
69750.00000000003
 20
74050
 11
77750.00000000003
 21
74050
  0
LINE
  5
1A5
100
AcDbEntity
  8
ass
  6
ByLayer
 62
  256
370
   -1
100
AcDbLine
 10
69750.00000000003
 20
82049.99999999999
 11
69750.00000000003
 21
74050
  0
LINE
  5
1A6
100
AcDbEntity
  8
ass
  6
ByLayer
 62
  256
370
   -1
100
AcDbLine
 10
69750.00000000003
 20
74050
 11
69750.00000000003
 21
66050
  0
LINE
  5
1A7
100
AcDbEntity
  8
ass
  6
ByLayer
 62
  256
370
   -1
100
AcDbLine
 10
18749.99999999999
 20
82050
 11
26750
 21
82050
  0
LINE
  5
1A8
100
AcDbEntity
  8
ass
  6
ByLayer
 62
  256
370
   -1
100
AcDbLine
 10
26750
 20
82050
 11
26750
 21
74049.99999999999
  0
LINE
  5
1A9
100
AcDbEntity
  8
ass
  6
ByLayer
 62
  256
370
   -1
100
AcDbLine
 10
26750
 20
74049.99999999999
 11
26750
 21
66049.99999999999
  0
LINE
  5
1AA
100
AcDbEntity
  8
ass
  6
ByLayer
 62
  256
370
   -1
100
AcDbLine
 10
18749.99999999999
 20
74049.99999999999
 11
26750
 21
74049.99999999999
  0
LINE
  5
1AB
100
AcDbEntity
  8
ass
  6
ByLayer
 62
  256
370
   -1
100
AcDbLine
 10
18749.99999999999
 20
82050
 11
18749.99999999999
 21
74049.99999999999
  0
LINE
  5
1AC
100
AcDbEntity
  8
ass
  6
ByLayer
 62
  256
370
   -1
100
AcDbLine
 10
18749.99999999999
 20
74049.99999999999
 11
18749.99999999999
 21
66049.99999999999
  0
LINE
  5
1AD
100
AcDbEntity
  8
ass
  6
ByLayer
 62
  256
370
   -1
100
AcDbLine
 10
18749.99999999999
 20
66049.99999999999
 11
26750
 21
66049.99999999999
  0
LINE
  5
1AE
100
AcDbEntity
  8
ass
  6
ByLayer
 62
  256
370
   -1
100
AcDbLine
 10
65750
 20
7049.999999999999
 11
69750.00000000003
 21
7049.999999999999
  0
LINE
  5
1AF
100
AcDbEntity
  8
ass
  6
ByLayer
 62
  256
370
   -1
100
AcDbLine
 10
69750.00000000003
 20
7049.999999999999
 11
77750.00000000003
 21
7049.999999999999
  0
LINE
  5
1B0
100
AcDbEntity
  8
ass
  6
ByLayer
 62
  256
370
   -1
100
AcDbLine
 10
77750.00000000003
 20
7049.999999999999
 11
77750.00000000003
 21
-950.0000000000018
  0
LINE
  5
1B1
100
AcDbEntity
  8
ass
  6
ByLayer
 62
  256
370
   -1
100
AcDbLine
 10
77750.00000000003
 20
-950.0000000000018
 11
69750.00000000003
 21
-950.0000000000018
  0
LINE
  5
1B2
100
AcDbEntity
  8
ass
  6
ByLayer
 62
  256
370
   -1
100
AcDbLine
 10
69750.00000000003
 20
-950.0000000000018
 11
65750
 21
-950.0000000000018
  0
LINE
  5
1B3
100
AcDbEntity
  8
ass
  6
ByLayer
 62
  256
370
   -1
100
AcDbLine
 10
65750
 20
-950.0000000000018
 11
65750
 21
7049.999999999999
  0
LINE
  5
1B4
100
AcDbEntity
  8
ass
  6
ByLayer
 62
  256
370
   -1
100
AcDbLine
 10
69750.00000000003
 20
7049.999999999999
 11
69750.00000000003
 21
-950.0000000000014
  0
LINE
  5
1B5
100
AcDbEntity
  8
ass
  6
ByLayer
 62
  256
370
   -1
100
AcDbLine
 10
91750.00000000017
 20
7049.999999999999
 11
99750.0000000001
 21
7050
  0
LINE
  5
1B6
100
AcDbEntity
  8
ass
  6
ByLayer
 62
  256
370
   -1
100
AcDbLine
 10
99750.0000000001
 20
7050
 11
107750.0000000001
 21
7049.999999999999
  0
LINE
  5
1B7
100
AcDbEntity
  8
ass
  6
ByLayer
 62
  256
370
   -1
100
AcDbLine
 10
107750.0000000001
 20
7049.999999999999
 11
107750.0000000001
 21
-950.0000000000024
  0
LINE
  5
1B8
100
AcDbEntity
  8
ass
  6
ByLayer
 62
  256
370
   -1
100
AcDbLine
 10
107750.0000000001
 20
-950.0000000000024
 11
99750.0000000001
 21
-950.0000000000031
  0
LINE
  5
1B9
100
AcDbEntity
  8
ass
  6
ByLayer
 62
  256
370
   -1
100
AcDbLine
 10
99750.0000000001
 20
-950.0000000000031
 11
91750.00000000017
 21
-950.0000000000024
  0
LINE
  5
1BA
100
AcDbEntity
  8
ass
  6
ByLayer
 62
  256
370
   -1
100
AcDbLine
 10
91750.00000000017
 20
-950.0000000000024
 11
91750.00000000017
 21
7049.999999999999
  0
LINE
  5
1BB
100
AcDbEntity
  8
ass
  6
ByLayer
 62
  256
370
   -1
100
AcDbLine
 10
99750.0000000001
 20
-950.0000000000031
 11
99750.0000000001
 21
7049.999999999999
  0
LINE
  5
1BC
100
AcDbEntity
  8
board
  6
ByLayer
 62
  256
370
   -1
100
AcDbLine
 10
40750
 20
113050
 11
115592.010904768
 21
113050
  0
LINE
  5
1BD
100
AcDbEntity
  8
board
  6
ByLayer
 62
  256
370
   -1
100
AcDbLine
 10
65750
 20
105050
 11
69750.00000000003
 21
105050
  0
LINE
  5
1BE
100
AcDbEntity
  8
board
  6
ByLayer
 62
  256
370
   -1
100
AcDbLine
 10
69750.00000000003
 20
105050
 11
77750.00000000003
 21
105050
  0
LINE
  5
1BF
100
AcDbEntity
  8
board
  6
ByLayer
 62
  256
370
   -1
100
AcDbLine
 10
77750.00000000003
 20
113050
 11
77750.00000000003
 21
105050
  0
LINE
  5
1C0
100
AcDbEntity
  8
board
  6
ByLayer
 62
  256
370
   -1
100
AcDbLine
 10
65750
 20
105050
 11
65750
 21
113050
  0
LINE
  5
1C1
100
AcDbEntity
  8
board
  6
ByLayer
 62
  256
370
   -1
100
AcDbLine
 10
65750
 20
82049.99999999999
 11
69750.00000000003
 21
82049.99999999999
  0
LINE
  5
1C2
100
AcDbEntity
  8
board
  6
ByLayer
 62
  256
370
   -1
100
AcDbLine
 10
69750.00000000003
 20
82049.99999999999
 11
77750.00000000003
 21
82049.99999999999
  0
LINE
  5
1C3
100
AcDbEntity
  8
board
  6
ByLayer
 62
  256
370
   -1
100
AcDbLine
 10
77750.00000000003
 20
82049.99999999999
 11
77750.00000000003
 21
74050
  0
LINE
  5
1C4
100
AcDbEntity
  8
board
  6
ByLayer
 62
  256
370
   -1
100
AcDbLine
 10
77750.00000000003
 20
74050
 11
77750.00000000003
 21
66050
  0
LINE
  5
1C5
100
AcDbEntity
  8
board
  6
ByLayer
 62
  256
370
   -1
100
AcDbLine
 10
69750.00000000003
 20
66050
 11
65750
 21
66050
  0
LINE
  5
1C6
100
AcDbEntity
  8
board
  6
ByLayer
 62
  256
370
   -1
100
AcDbLine
 10
65750
 20
66050
 11
65750
 21
74050
  0
LINE
  5
1C7
100
AcDbEntity
  8
board
  6
ByLayer
 62
  256
370
   -1
100
AcDbLine
 10
65750
 20
74050
 11
65750
 21
82049.99999999999
  0
LINE
  5
1C8
100
AcDbEntity
  8
board
  6
ByLayer
 62
  256
370
   -1
100
AcDbLine
 10
65750
 20
74050
 11
77750.00000000003
 21
74050
  0
LINE
  5
1C9
100
AcDbEntity
  8
board
  6
ByLayer
 62
  256
370
   -1
100
AcDbLine
 10
69750.00000000003
 20
82049.99999999999
 11
69750.00000000003
 21
74050
  0
LINE
  5
1CA
100
AcDbEntity
  8
board
  6
ByLayer
 62
  256
370
   -1
100
AcDbLine
 10
69750.00000000003
 20
74050
 11
69750.00000000003
 21
66050
  0
LINE
  5
1CB
100
AcDbEntity
  8
board
  6
ByLayer
 62
  256
370
   -1
100
AcDbLine
 10
91750.00000000033
 20
66050
 11
91750.00000000033
 21
74050
  0
LINE
  5
1CC
100
AcDbEntity
  8
board
  6
ByLayer
 62
  256
370
   -1
100
AcDbLine
 10
91750.00000000033
 20
74050
 11
91750.00000000033
 21
82051.14984280888
  0
LINE
  5
1CD
100
AcDbEntity
  8
board
  6
ByLayer
 62
  256
370
   -1
100
AcDbLine
 10
91750.00000000033
 20
82051.14984280888
 11
99750.00000000012
 21
82051.14984280888
  0
LINE
  5
1CE
100
AcDbEntity
  8
board
  6
ByLayer
 62
  256
370
   -1
100
AcDbLine
 10
99750.00000000012
 20
82051.14984280888
 11
107750.0000000001
 21
82051.14984280888
  0
LINE
  5
1CF
100
AcDbEntity
  8
board
  6
ByLayer
 62
  256
370
   -1
100
AcDbLine
 10
107750.0000000001
 20
82051.14984280888
 11
107750.0000000001
 21
74050
  0
LINE
  5
1D0
100
AcDbEntity
  8
board
  6
ByLayer
 62
  256
370
   -1
100
AcDbLine
 10
107750.0000000001
 20
74050
 11
107750.0000000001
 21
66050
  0
LINE
  5
1D1
100
AcDbEntity
  8
board
  6
ByLayer
 62
  256
370
   -1
100
AcDbLine
 10
107750.0000000001
 20
66050
 11
99750.0000000001
 21
66050
  0
LINE
  5
1D2
100
AcDbEntity
  8
board
  6
ByLayer
 62
  256
370
   -1
100
AcDbLine
 10
99750.0000000001
 20
66050
 11
91750.00000000033
 21
66050
  0
LINE
  5
1D3
100
AcDbEntity
  8
board
  6
ByLayer
 62
  256
370
   -1
100
AcDbLine
 10
91750.00000000033
 20
74050
 11
107750.0000000001
 21
74050
  0
LINE
  5
1D4
100
AcDbEntity
  8
board
  6
ByLayer
 62
  256
370
   -1
100
AcDbLine
 10
99750.0000000001
 20
82050.00000000001
 11
99750.0000000001
 21
74050
  0
LINE
  5
1D5
100
AcDbEntity
  8
board
  6
ByLayer
 62
  256
370
   -1
100
AcDbLine
 10
99750.0000000001
 20
74050
 11
99750.0000000001
 21
66050
  0
LINE
  5
1D6
100
AcDbEntity
  8
board
  6
ByLayer
 62
  256
370
   -1
100
AcDbLine
 10
124750.0000000002
 20
66050
 11
124750.0000000002
 21
74050
  0
LINE
  5
1D7
100
AcDbEntity
  8
board
  6
ByLayer
 62
  256
370
   -1
100
AcDbLine
 10
124750.0000000002
 20
74050
 11
124750.0000000002
 21
82050
  0
LINE
  5
1D8
100
AcDbEntity
  8
board
  6
ByLayer
 62
  256
370
   -1
100
AcDbLine
 10
124750.0000000002
 20
82050
 11
132750
 21
82050
  0
LINE
  5
1D9
100
AcDbEntity
  8
board
  6
ByLayer
 62
  256
370
   -1
100
AcDbLine
 10
132750
 20
66050
 11
124750.0000000002
 21
66050
  0
LINE
  5
1DA
100
AcDbEntity
  8
board
  6
ByLayer
 62
  256
370
   -1
100
AcDbLine
 10
91750.00000000016
 20
105050
 11
99750.00000000012
 21
105050
  0
LINE
  5
1DB
100
AcDbEntity
  8
board
  6
ByLayer
 62
  256
370
   -1
100
AcDbLine
 10
99750.00000000012
 20
105050
 11
107750.0000000001
 21
105050
  0
LINE
  5
1DC
100
AcDbEntity
  8
board
  6
ByLayer
 62
  256
370
   -1
100
AcDbLine
 10
107750.0000000001
 20
105050
 11
107750.0000000001
 21
113050
  0
LINE
  5
1DD
100
AcDbEntity
  8
board
  6
ByLayer
 62
  256
370
   -1
100
AcDbLine
 10
91750.00000000016
 20
105050
 11
91750.00000000016
 21
113050
  0
LINE
  5
1DE
100
AcDbEntity
  8
board
  6
ByLayer
 62
  256
370
   -1
100
AcDbLine
 10
26750
 20
82050
 11
26750
 21
74049.99999999999
  0
LINE
  5
1DF
100
AcDbEntity
  8
board
  6
ByLayer
 62
  256
370
   -1
100
AcDbLine
 10
26750
 20
74049.99999999999
 11
26750
 21
66049.99999999999
  0
LINE
  5
1E0
100
AcDbEntity
  8
board
  6
ByLayer
 62
  256
370
   -1
100
AcDbLine
 10
18749.99999999999
 20
65950.20358761506
 11
26750
 21
66049.99999999999
  0
LINE
  5
1E1
100
AcDbEntity
  8
board
  6
ByLayer
 62
  256
370
   -1
100
AcDbLine
 10
26750
 20
66049.99999999999
 11
26750
 21
82050
  0
LINE
  5
1E2
100
AcDbEntity
  8
board
  6
ByLayer
 62
  256
370
   -1
100
AcDbLine
 10
26750
 20
82050
 11
18749.99999999999
 21
82050
  0
LINE
  5
1E3
100
AcDbEntity
  8
board
  6
ByLayer
 62
  256
370
   -1
100
AcDbLine
 10
65750
 20
7049.999999999999
 11
69750.00000000003
 21
7049.999999999999
  0
LINE
  5
1E4
100
AcDbEntity
  8
board
  6
ByLayer
 62
  256
370
   -1
100
AcDbLine
 10
69750.00000000003
 20
7049.999999999999
 11
77750.00000000003
 21
7049.999999999999
  0
LINE
  5
1E5
100
AcDbEntity
  8
board
  6
ByLayer
 62
  256
370
   -1
100
AcDbLine
 10
77750.00000000003
 20
7049.999999999999
 11
77750.00000000003
 21
-950.0000000000031
  0
LINE
  5
1E6
100
AcDbEntity
  8
board
  6
ByLayer
 62
  256
370
   -1
100
AcDbLine
 10
65750
 20
7049.999999999999
 11
65750
 21
-950.0000000000013
  0
LINE
  5
1E7
100
AcDbEntity
  8
board
  6
ByLayer
 62
  256
370
   -1
100
AcDbLine
 10
91750.00000000017
 20
7050
 11
99750.0000000001
 21
7050
  0
LINE
  5
1E8
100
AcDbEntity
  8
board
  6
ByLayer
 62
  256
370
   -1
100
AcDbLine
 10
99750.0000000001
 20
7050
 11
107750.0000000001
 21
7050
  0
LINE
  5
1E9
100
AcDbEntity
  8
board
  6
ByLayer
 62
  256
370
   -1
100
AcDbLine
 10
107750.0000000001
 20
7050
 11
107750.0000000001
 21
-950.0000000000031
  0
LINE
  5
1EA
100
AcDbEntity
  8
board
  6
ByLayer
 62
  256
370
   -1
100
AcDbLine
 10
91750.00000000017
 20
-950.0000000000031
 11
91750.00000000017
 21
7050
  0
LINE
  5
1EB
100
AcDbEntity
  8
board
  6
ByLayer
 62
  256
370
   -1
100
AcDbLine
 10
69750.00000000003
 20
105050
 11
69750.00000000003
 21
113050
  0
LINE
  5
1EC
100
AcDbEntity
  8
board
  6
ByLayer
 62
  256
370
   -1
100
AcDbLine
 10
99750.00000000013
 20
105050
 11
99750.00000000013
 21
113050
  0
LINE
  5
1ED
100
AcDbEntity
  8
board
  6
ByLayer
 62
  256
370
   -1
100
AcDbLine
 10
99750.00000000013
 20
74050
 11
132750
 21
74050
  0
LINE
  5
1EE
100
AcDbEntity
  8
board
  6
ByLayer
 62
  256
370
   -1
100
AcDbLine
 10
26750
 20
74050
 11
18749.99999999999
 21
74050
  0
LINE
  5
1EF
100
AcDbEntity
  8
board
  6
ByLayer
 62
  256
370
   -1
100
AcDbLine
 10
69750.00000000003
 20
7049.999999999999
 11
69750.00000000003
 21
-950.0000000000013
  0
LINE
  5
1F0
100
AcDbEntity
  8
board
  6
ByLayer
 62
  256
370
   -1
100
AcDbLine
 10
99750.0000000001
 20
-950.0000000000013
 11
99750.0000000001
 21
7050
  0
LINE
  5
1F1
100
AcDbEntity
  8
board
  6
ByLayer
 62
  256
370
   -1
100
AcDbLine
 10
69750.00000000003
 20
66050
 11
77750.00000000003
 21
66050
  0
ENDSEC
  0
SECTION
  2
OBJECTS
  0
DICTIONARY
  5
C
330
0
100
AcDbDictionary
281
    1
  3
ACAD_GROUP
350
D
  0
DICTIONARY
  5
D
330
C
100
AcDbDictionary
281
    1
  0
ENDSEC
  0
EOF
